<?xml version="1.0" encoding="UTF-8" standalone="no"?>
<!-- Created with Inkscape (http://www.inkscape.org/) -->

<svg
   xmlns:dc="http://purl.org/dc/elements/1.1/"
   xmlns:cc="http://creativecommons.org/ns#"
   xmlns:rdf="http://www.w3.org/1999/02/22-rdf-syntax-ns#"
   xmlns:svg="http://www.w3.org/2000/svg"
   xmlns="http://www.w3.org/2000/svg"
   xmlns:sodipodi="http://sodipodi.sourceforge.net/DTD/sodipodi-0.dtd"
   xmlns:inkscape="http://www.inkscape.org/namespaces/inkscape"
   width="700mm"
   height="700mm"
   viewBox="0 0 700 700"
   version="1.1"
   id="svg999"
   inkscape:version="0.92.4 (5da689c313, 2019-01-14)"
   sodipodi:docname="crunchyroll-logo.svg"
   inkscape:export-filename="C:\Users\suitedoalex\sites\crunchyroll-logo-0.png"
   inkscape:export-xdpi="148.6263"
   inkscape:export-ydpi="148.6263">
  <defs
     id="defs993" />
  <sodipodi:namedview
     id="base"
     pagecolor="#ffffff"
     bordercolor="#666666"
     borderopacity="1.0"
     inkscape:pageopacity="0.0"
     inkscape:pageshadow="2"
     inkscape:zoom="0.12374369"
     inkscape:cx="1127.8427"
     inkscape:cy="88.340968"
     inkscape:document-units="mm"
     inkscape:current-layer="cr_logo_noTagline"
     showgrid="false"
     inkscape:window-width="1600"
     inkscape:window-height="837"
     inkscape:window-x="-8"
     inkscape:window-y="-8"
     inkscape:window-maximized="1" />
  <metadata
     id="metadata996">
    <rdf:RDF>
      <cc:Work
         rdf:about="">
        <dc:format>image/svg+xml</dc:format>
        <dc:type
           rdf:resource="http://purl.org/dc/dcmitype/StillImage" />
        <dc:title></dc:title>
      </cc:Work>
    </rdf:RDF>
  </metadata>
  <g
     inkscape:label="Layer 1"
     inkscape:groupmode="layer"
     id="layer1"
     transform="translate(0,403)">
    <svg
       id="cr_logo_noTagline"
       viewBox="0 0 96 18"
       version="1.1"
       width="100%"
       height="100%"
       transform="matrix(1.0416667,0,0,1.0416667,-83.333333,40.625)">
      <title
         id="title2">cr_logo_noTagline</title>
      <path
         d="m 83.585973,-42.408921 v -8.336845 h 1.466667 v 8.336845 z"
         id="path4"
         inkscape:connector-curvature="0"
         style="fill:#f47521;stroke-width:0.77193004"
         inkscape:export-filename="C:\Users\suitedoalex\sites\crunchyroll-logo-4.png"
         inkscape:export-xdpi="18.802595"
         inkscape:export-ydpi="18.802595" />
      <path
         d="m 80.421061,-42.408921 v -8.336845 h 1.466666 v 8.336845 z"
         id="path6"
         inkscape:connector-curvature="0"
         style="fill:#f47521;stroke-width:0.77193004"
         inkscape:export-filename="C:\Users\suitedoalex\sites\crunchyroll-logo-4.png"
         inkscape:export-xdpi="18.802595"
         inkscape:export-ydpi="18.802595" />
      <path
         d="m 79.185972,-45.419448 c 0,2.007018 -1.003509,3.08772 -2.85614,3.08772 -1.852633,0 -2.856142,-1.080702 -2.856142,-3.08772 0,-2.007018 1.003509,-3.08772 2.856142,-3.08772 1.852631,0 2.85614,1.080702 2.85614,3.08772 z m -1.389474,0 c 0,-1.621054 -0.540351,-1.929825 -1.389474,-1.929825 -0.849123,0 -1.389473,0.308771 -1.389473,1.929825 0,1.621053 0.54035,1.929825 1.389473,1.929825 0.771931,0 1.389474,-0.308772 1.389474,-1.929825 z"
         id="path8"
         inkscape:connector-curvature="0"
         style="fill:#f47521;stroke-width:0.77193004"
         inkscape:export-filename="C:\Users\suitedoalex\sites\crunchyroll-logo-4.png"
         inkscape:export-xdpi="18.802595"
         inkscape:export-ydpi="18.802595" />
      <path
         d="m 72.856147,-48.507168 v 1.235087 c -0.771931,0 -1.698247,0 -1.698247,0.385966 v 4.477194 h -1.466667 v -5.326317 c 0.07719,-0.926316 3.164914,-0.77193 3.164914,-0.77193 z"
         id="path10"
         inkscape:connector-curvature="0"
         style="fill:#f47521;stroke-width:0.77193004"
         inkscape:export-filename="C:\Users\suitedoalex\sites\crunchyroll-logo-4.png"
         inkscape:export-xdpi="18.802595"
         inkscape:export-ydpi="18.802595" />
      <path
         d="m 64.056144,-40.015938 c 1.080702,-2.701755 1.00351,-2.470176 1.080702,-2.701755 l -2.161404,-5.712282 h 1.54386 l 1.389474,4.168422 1.312282,-4.168422 h 1.54386 l -2.315791,6.17544 -0.849123,2.238597 z"
         id="path12"
         inkscape:connector-curvature="0"
         style="fill:#f47521;stroke-width:0.77193004"
         inkscape:export-filename="C:\Users\suitedoalex\sites\crunchyroll-logo-4.png"
         inkscape:export-xdpi="18.802595"
         inkscape:export-ydpi="18.802595" />
      <path
         d="m 62.126319,-46.036992 v 3.628071 h -1.466667 v -3.705264 c 0,-0.540351 -0.154386,-1.080702 -1.466667,-1.080702 a 3.9113694,3.9113694 0 0 0 -1.003509,0.154385 v 4.631581 h -1.466667 v -8.336845 h 1.466667 v 2.392983 a 2.9395094,2.9395094 0 0 1 1.235088,-0.231579 c 1.77544,0.0772 2.701755,1.00351 2.701755,2.54737 z"
         id="path14"
         inkscape:connector-curvature="0"
         style="fill:#f47521;stroke-width:0.77193004"
         inkscape:export-filename="C:\Users\suitedoalex\sites\crunchyroll-logo-4.png"
         inkscape:export-xdpi="18.802595"
         inkscape:export-ydpi="18.802595" />
      <path
         d="m 54.021054,-43.566816 a 4.9905275,4.9905275 0 0 0 1.543861,-0.308772 v 1.235088 a 4.290387,4.290387 0 0 1 -1.77544,0.308772 c -1.852632,0 -2.856141,-1.080702 -2.856141,-3.08772 0,-2.007018 1.003509,-3.164914 2.856141,-3.164914 a 6.5760717,6.5760717 0 0 1 1.77544,0.308773 v 1.235087 a 4.5675098,4.5675098 0 0 0 -1.543861,-0.308771 c -1.003509,0 -1.621053,0.308771 -1.621053,1.852632 0,1.621053 0.617544,1.929825 1.621053,1.929825 z"
         id="path16"
         inkscape:connector-curvature="0"
         style="fill:#f47521;stroke-width:0.77193004"
         inkscape:export-filename="C:\Users\suitedoalex\sites\crunchyroll-logo-4.png"
         inkscape:export-xdpi="18.802595"
         inkscape:export-ydpi="18.802595" />
      <path
         d="m 50.007018,-46.191378 v 3.782457 h -1.389474 v -3.782457 c 0,-0.540351 0,-1.080703 -1.235088,-1.080703 -0.385965,0 -1.157895,0.07719 -1.157895,0.308773 v 4.554387 h -1.389474 v -5.017545 c 0,-1.003509 1.235088,-1.157896 2.778948,-1.157896 1.54386,0.0772 2.392983,0.694738 2.392983,2.392984 z"
         id="path18"
         inkscape:connector-curvature="0"
         style="fill:#f47521;stroke-width:0.77193004"
         inkscape:export-filename="C:\Users\suitedoalex\sites\crunchyroll-logo-4.png"
         inkscape:export-xdpi="18.802595"
         inkscape:export-ydpi="18.802595" />
      <path
         d="m 43.445613,-48.429975 v 3.319299 c 0,1.775439 -0.617544,2.856141 -2.701755,2.856141 -2.084211,0 -2.624562,-1.080702 -2.624562,-2.856141 v -3.319299 h 1.389474 v 3.473685 c 0,1.003509 0.385965,1.312281 1.235088,1.312281 0.849123,0 1.235088,-0.308772 1.235088,-1.312281 v -3.473685 z"
         id="path20"
         inkscape:connector-curvature="0"
         style="fill:#f47521;stroke-width:0.77193004"
         inkscape:export-filename="C:\Users\suitedoalex\sites\crunchyroll-logo-4.png"
         inkscape:export-xdpi="18.802595"
         inkscape:export-ydpi="18.802595" />
      <path
         d="m 36.961401,-48.507168 v 1.235087 c -0.77193,0 -1.698246,0 -1.698246,0.385966 v 4.477194 h -1.466667 v -5.326317 c 0.07719,-0.926316 3.164913,-0.77193 3.164913,-0.77193 z"
         id="path22"
         inkscape:connector-curvature="0"
         style="fill:#f47521;stroke-width:0.77193004"
         inkscape:export-filename="C:\Users\suitedoalex\sites\crunchyroll-logo-4.png"
         inkscape:export-xdpi="18.802595"
         inkscape:export-ydpi="18.802595" />
      <path
         d="m 30.940347,-43.566816 a 4.1143869,4.1143869 0 0 0 1.466667,-0.308772 v 1.235088 a 4.290387,4.290387 0 0 1 -1.775439,0.308772 c -1.852632,0 -2.856141,-1.080702 -2.856141,-3.08772 0,-2.007018 1.003509,-3.164914 2.856141,-3.164914 a 6.5760717,6.5760717 0 0 1 1.775439,0.308773 v 1.235087 a 4.5134748,4.5134748 0 0 0 -1.466667,-0.308771 c -1.003509,0 -1.621053,0.308771 -1.621053,1.852632 -0.07719,1.621053 0.617544,1.929825 1.621053,1.929825 z"
         id="path24"
         inkscape:connector-curvature="0"
         style="fill:#f47521;stroke-width:0.77193004"
         inkscape:export-filename="C:\Users\suitedoalex\sites\crunchyroll-logo-4.png"
         inkscape:export-xdpi="18.802595"
         inkscape:export-ydpi="18.802595" />
      <path
         d="M 12.645606,-45.419448 A 6.1075102,6.1075102 0 0 1 24.8421,-45.882606 v -0.385965 a 6.9473701,6.9473701 0 1 0 -6.94737,6.94737 h 0.463158 a 6.1468786,6.1468786 0 0 1 -5.712282,-6.098247 z"
         id="path26"
         inkscape:connector-curvature="0"
         style="fill:#f47521;stroke-width:0.77193004"
         inkscape:export-filename="C:\Users\suitedoalex\sites\crunchyroll-logo-4.png"
         inkscape:export-xdpi="18.802595"
         inkscape:export-ydpi="18.802595" />
      <path
         d="m 22.063152,-45.110676 a 2.2285619,2.2285619 0 0 1 -0.77193,-4.322809 4.5682818,4.5682818 0 0 0 -2.238597,-0.54035 4.863159,4.863159 0 1 0 4.863159,4.863159 3.7585272,3.7585272 0 0 0 -0.07719,-0.926316 1.9769127,1.9769127 0 0 1 -1.77544,0.926316 z"
         id="path28"
         inkscape:connector-curvature="0"
         style="fill:#f47521;stroke-width:0.77193004"
         inkscape:export-filename="C:\Users\suitedoalex\sites\crunchyroll-logo-4.png"
         inkscape:export-xdpi="18.802595"
         inkscape:export-ydpi="18.802595" />
    </svg>
  </g>
</svg>
