<svg xmlns="http://www.w3.org/2000/svg" xmlns:cc="http://creativecommons.org/ns#" xmlns:dc="http://purl.org/dc/elements/1.1/" xmlns:rdf="http://www.w3.org/1999/02/22-rdf-syntax-ns#" version="1.1" viewBox="-0.58 -0.29 2168.14 330.15">
 <title>デスノート</title>
 <metadata>
  <rdf:RDF>
   <cc:Work rdf:about="">
    <dc:format>image/svg+xml</dc:format>
    <dc:type rdf:resource="http://purl.org/dc/dcmitype/StillImage"/>
    <dc:title>デスノート</dc:title>
    <dc:date>2013-07-04</dc:date>
    <dc:creator>
     <cc:Agent>
      <dc:title>Zerabat and Vulphere</dc:title>
     </cc:Agent>
    </dc:creator>
    <cc:license rdf:resource="http://creativecommons.org/licenses/publicdomain/"/>
    <dc:language>None</dc:language>
    <dc:subject>
     <rdf:Bag>
      <rdf:li>Death Note;デスノート</rdf:li>
     </rdf:Bag>
    </dc:subject>
    <dc:coverage>Worldwide</dc:coverage>
    <dc:description>Death Note Logo</dc:description>
   </cc:Work>
   <cc:License rdf:about="http://creativecommons.org/licenses/publicdomain/">
    <cc:permits rdf:resource="http://creativecommons.org/ns#Reproduction"/>
    <cc:permits rdf:resource="http://creativecommons.org/ns#Distribution"/>
    <cc:permits rdf:resource="http://creativecommons.org/ns#DerivativeWorks"/>
   </cc:License>
  </rdf:RDF>
 </metadata>
 <g transform="translate(34.7 -669)">
  <g transform="translate(474 2.83)">
   <g transform="matrix(2.22 0 0 2.22 -750 -348)">
    <path d="m109 603-0.568-3.03 1.14-1.89-0.568-0.757 0.568-2.46-0.568-0.568-0.568 0.568v-0.568l7.57-2.65 1.89-8.7-0.757-3.78h1.32v-2.65h-1.32v-6.81l1.32-1.89-1.32-1.32 0.757 0.568 0.568-3.78q-0.568-0.568-0.946-1.7-0.378-1.32-0.378-2.65t0-2.46q0-1.32 0-2.65l0.757-1.14-0.757-12.7 0.757-1.89-0.757-8.89 2.65-0.568-2.65-0.568v-1.89l0.757-6.43-0.757-9.46 1.89-1.89-1.89-1.14v-12.7l0.757-0.568q-0.757-2.65-0.757-5.49 0-2.84 0-5.68 0-2.84 0-5.87 0-3.22-1.89-5.11l0.757-0.568-6.43-3.22q-0.568-0.568-0.946-1.51-0.189-0.946-0.189-1.89 0-0.946 0-1.89 0-0.946 0-2.27l14.4-0.568 2.65 0.568 28.4-0.568q3.78 0.568 7.19 1.32 3.41 0.568 6.62 1.89 3.22 1.14 6.24 3.41 3.22 2.08 5.68 4.73 1.32 1.89 3.22 3.78t3.03 4.16q1.32 2.08 2.27 4.35 0.946 2.08 2.27 3.97l-0.568 0.757q1.14 1.14 1.7 2.46 0.757 1.32 0.946 2.84 0.378 1.51 0.946 3.22 0.757 1.51 0.757 2.84l-0.568 1.14q0.568 1.89 1.51 4.16 0.946 2.27 1.14 4.73 0.378 2.46 0.378 4.73t0.757 4.73l-0.757 3.78 0.757 19.5q-0.757 3.78-1.32 7.95-0.568 4.16-1.32 7.95-0.568 3.78-1.51 7.19-0.946 3.41-2.27 7.19l-0.568-0.568-1.89 4.35 0.568 1.32-0.568 1.32h-1.89l-1.32 5.68-1.89 1.14 0.757 0.757q-1.32 1.89-3.03 3.41-1.51 1.51-3.41 3.22-1.89 1.51-3.78 2.84-1.89 1.14-3.78 2.46l-10.6 3.22-1.32-0.757q-1.32 0.757-2.27 1.14-0.946 0.189-2.27 0.189-1.14 0-2.46 0-1.14 0-2.46 0l-0.568-1.89-1.32 2.46h-18.4v-1.14h-1.89v1.14h-8.7 2.46l1.32-2.46-3.78-1.89-2.65 4.35h1.32zm36.5-0.568-3.03-1.89-1.89 1.32 4.35 1.14zm0.757-0.568-0.757-0.757-0.568 0.757zm3.78-0.757v-2.46l0.568-5.11h-3.22v3.22l0.757 4.35zm22.7-5.68 1.14-5.68h-1.89l-0.568 5.68 0.568 0.757zm-41.1-4.92-0.568-0.757-0.757 0.757 0.757 0.568zm25.2 0 3.22-2.65 0.568 1.32 1.32-2.46 1.32-0.757-0.757-1.89q1.89-1.89 2.84-4.35 0.946-2.46 1.51-4.92 0.757-2.65 1.32-5.11 0.757-2.65 1.32-5.11h1.32l0.568-2.46-1.32-0.757v-4.92l1.32-3.78-0.568-3.78 0.568-15.9h1.32v-3.03l-1.32-7 0.568-0.568q-1.14-1.32-1.14-3.41 0-2.27 0-4.16t-0.378-3.78q-0.378-1.89-0.378-3.78l1.32-2.65-1.89-3.78-0.568 0.757-1.89-14h-1.32q-0.568-1.89-1.32-3.78-0.568-1.89-1.51-3.78-0.946-1.89-2.27-3.41-1.14-1.51-2.46-3.41l-9.46-4.54-4.35 2.65-1.89 3.78h-1.32v2.46l0.568 3.22-0.568 0.568 0.568 12.7h-1.14v2.46q1.14 1.32 1.14 3.22t0 3.41 0 3.41 0 3.78h-1.14v3.22q1.14 5.11 1.14 11.2 0 5.87 0 11.5t0 11.7q0 5.87 0 11.5l-1.14 3.22q1.89 3.22 1.51 7t-0.378 7.19 0 7.19 1.32 7q0.568 0.568 1.51 0.946 0.946 0.378 2.27 0.757 1.32 0.189 2.27 0.189 0.946 0 2.08 0zm-26.5 0v-1.89l0.757-4.54h-1.89l-0.757 6.43zm-3.78-0.757v-3.03l-1.89-2.65-0.568 5.68zm45.4-1.14v-1.32l-0.568-0.568-1.32 1.14 1.32 1.32zm-38.4-4.54 0.568-0.568-3.03-1.32-1.32 1.32 3.22 1.32zm37.8 0v-0.568l-0.568-0.568-0.757 1.14 0.757 0.757zm-32.7-3.78-0.757-0.568-0.568 0.568 0.568 0.757zm0.568-3.03-0.568-0.757-0.757 0.757 0.757 0.568zm-0.568-1.32v-0.568l-0.757-0.757-0.568 1.89 0.568 0.757zm-11.4-1.89 4.35-5.68-0.568-0.568-5.68 3.03-0.757 2.65 1.89 1.14zm63.6-5.11 1.32-4.92-1.32-2.65-2.46 4.54 0.568 3.78h1.32zm-59.8-1.89-0.757-0.568-0.568 0.568 0.568 0.757zm0.568-0.568v-1.32l-0.568-0.568-0.757 1.89zm4.35-0.568v-1.32l0.757-3.78-1.89-0.568-1.32 2.46 0.568 3.22zm-1.14-10.2v-2.46l-0.757-6.24h-2.46v1.14l0.568 2.65-1.14 3.78 0.568 0.568 1.32-0.568v1.14zm-7-4.92v-3.22l-1.32-1.32-0.568 1.32h-0.568l-0.757-1.32-0.568 1.89 1.32 1.32-0.757 1.89h1.32l0.568-0.568 0.757 0.568zm64.3-3.78 0.568-0.757-0.568-1.89-2.46-0.568-1.32 1.89 3.22 1.89zm-67.5-1.32v-1.32h-2.46l-0.568 4.54h2.46zm13.2-1.32v-0.568l0.757-1.89-1.89-3.78-1.32 4.35 1.89 2.65zm-11.9-0.568-0.568-0.568-0.757 0.568 0.757 0.568zm5.11-1.89v-2.46l-0.757-0.757-1.14 3.22zm46.5-2.46 1.32-4.54-3.22-1.14v4.35l1.32 1.89zm7.57-2.65v-2.46h-1.89v1.89l1.32 1.32zm3.22-3.03v-7l-1.32-1.32-0.568 0.757v-2.65h-1.32l-1.14 5.11 1.89 1.32 0.568 3.03zm-48.6-1.89v-1.89l-1.14-1.32-0.757 3.22zm-20.1-4.54 1.14-3.03-3.03-1.32v3.22l1.14 1.89zm14.4-3.03v-2.65l2.65-0.568v-1.32l-5.11-2.46v1.89l1.32 2.46-0.757 1.89 1.32 1.32zm59.4-3.78v-1.32l0.568-3.78-0.568-0.568q-0.757 0.568-1.32 1.32-0.568 0.568-0.568 1.14 0 0.568 0 1.51 0 0.946 0 1.7zm-59.4-4.54v-2.46h-1.89v2.46zm2.65-4.35v-3.22h-3.22l-1.32 2.65zm56.8-1.89v-3.22h-1.89v3.22zm-17.8-2.46v-2.65h-1.89v2.65zm8.33-4.54v-1.89l-1.32-1.14-0.568 2.46 1.14 1.32zm8.14-3.78v-3.03l-0.568-0.757-0.757 3.78 0.757 0.757zm-10-1.14 1.14-2.65-1.89-0.568-0.568 3.22 0.568 0.568z"/>
    <path d="m214 603 4.35-1.14 0.568 1.14 0.757-0.568 0.568 0.568-0.568-0.568 3.03-1.32 0.568 1.32 1.89 0.568 4.54-1.14 1.7 1.14 5.11-0.568 0.568 0.568h1.32l0.568-1.14 0.568 1.14v-1.14l2.65-0.757 1.89 1.89 4.92-0.568 1.32 0.568 1.14-0.568 0.568 0.568 5.68-1.14 0.757-1.89 2.46 1.14v1.32l3.03-1.32 1.32 1.32 0.568-0.568h1.89v1.14l0.568-1.89 2.65 0.757-0.757 0.568 0.757 0.568 0.568-0.568 1.32 0.568 1.7-0.568 0.757 0.568 1.89-1.89 4.92 1.89 1.32-1.14-1.32-7q-0.568-1.14-2.08-1.14-1.7 0-2.65-0.568-0.946-0.757-2.08-1.32-1.32-0.757-1.89-1.89l-2.46 5.68-0.757-0.757q0-0.568 0-1.51 0-0.946 0-1.89 0-0.946 0.757-1.51 0.568-0.757 1.14-1.32l-0.568-0.568 0.568-0.568-1.89-3.78 0.757-1.32-0.757-1.14v-2.65h1.32l-0.568-9.27-1.89-0.757-1.32-4.92 0.568-0.568h1.89v3.03l0.757-0.568 0.568 0.568-0.568-0.568 0.568-0.568-1.32-0.757 1.32-1.14-0.568-3.78 0.568-3.78-1.89-3.78 1.32-3.03-0.757-1.32 1.32-7.57-1.89-4.35 0.568-2.46 0.757 1.32 0.568-1.32q0-1.32 0-2.08 0-0.946 0-2.27 0-1.32-0.568-2.27-0.757-0.946-1.32-1.51l1.32-0.568v-0.568l-2.65-1.89 1.32-2.65 1.89-2.46-0.568-1.14 0.568-1.89-0.568-0.757 0.568-0.568v-0.568h-1.32l1.32-5.11v-0.568l-0.568 1.32-0.757-0.757v-3.78h1.32v-9.27l-1.32 1.89-0.568-0.568 0.568-5.68h1.32l-0.568-1.32 0.568-0.568-1.32-0.568 0.757-0.757-0.757-0.568v-1.32h1.32l-1.32-0.568 1.32-0.568-1.32-2.46 0.757-0.757h-1.32v-3.03h1.89l1.89-5.68h1.14l0.757-1.89 1.14 1.32-0.568 0.568h1.32l0.568-1.32 0.568 0.757 3.22-1.32-1.32-1.89 0.568-1.14-0.568-0.757 0.568-0.568-1.7-3.78-0.757 1.32-0.568-0.757-0.568 0.757-0.757-0.757-0.568 0.757h-1.32v-1.32l-3.03 1.32-4.35-1.32-5.11 0.568-2.46-0.568-4.35 0.568-0.568-0.568-18.2 0.568-0.568-0.568h-12.7l0.757 0.568-0.757 0.757-5.49-1.32-2.46 0.568-0.757-0.568 0.757 0.568v1.32l-3.22 1.32-3.78 8.14 1.89-1.32 0.568 0.568-3.03 2.46-2.46 12.7-1.89 0.568-1.32 4.35v3.78l3.22 1.89h0.568l0.568-1.32 1.32 1.32h1.14l1.32-2.46v-0.757l-2.46 2.46-0.568-0.568q0-0.568 0-1.51 0-0.946 0-1.51 0-0.757 0.568-0.946 0.568-0.378 1.14-0.946l1.89 0.568v1.32l8.89-12.5 2.46-2.65 0.568 0.757 0.568-1.89-0.568-0.757 0.568-0.568 1.32 0.568 5.11-4.92 0.568 0.568-0.568-0.568v-1.32l2.46 1.89 1.14-2.46 5.11 1.89 0.568-0.568 1.32 0.568 1.89-0.568 4.92 3.03-0.568 3.22 0.568 1.14 1.89 1.32-0.568 0.568 0.568 0.757-1.89 1.14v1.32h1.32v1.89l1.14 0.568-1.89 2.46 0.757 0.568-1.32 0.757v1.89h1.32l0.568 2.46v1.32h-1.89l0.568 4.35-0.568 0.568 0.568 0.568-0.568 2.46v7.57l2.46-1.89 1.32 1.32-1.89 1.89q-0.568 1.89-0.946 3.41t-0.568 3.22q-0.378 1.51-0.378 3.41t-1.89 2.46l-4.92-1.32-1.89 0.757-1.89-1.89 0.568-1.32-4.35-8.14-1.32 0.568-0.568-0.568 0.568-1.32-1.14-7.38h-1.32v-1.32l-1.89 0.568-1.89 1.89 0.757 0.757-0.757 1.89 0.757 10.6-0.757 1.14h1.32l-0.568 2.65 0.568 0.568v1.32h-1.32l0.757 15.5-0.757 1.32 0.757 16.3 2.46 1.14 2.46-0.568 0.568-1.89v-4.35l-0.568 2.46-1.89-2.46 1.32-3.22 5.68-11.7 5.49-3.22 5.11 1.89 1.14 3.22-0.568 0.568 0.568 6.81-0.568 0.568q0 1.32 0 2.27 0 0.946 0 2.27 0 1.14 0.757 2.08 0.568 0.946 1.14 1.51l-0.568 0.757v0.568l1.14 0.568-1.89 0.757-0.568 1.89 0.568 16.1-0.568 0.757 0.568 1.14-1.14 8.14 0.568 3.78-0.568 3.78-1.89 0.568-0.568-0.568h-0.757l0.757 0.568-1.32 1.89h-1.89l1.32-2.46-3.22 1.32-1.32-0.757-3.03 1.32h-2.46v-1.89l-1.89 0.568-0.568-1.14-3.22-1.32-3.78-4.92-0.568 0.568-2.46-1.89 1.14-0.568h-1.14l-2.65-5.68-1.7-1.32v-1.89l-0.757 0.757h-1.14v-1.32l-2.65-1.14 0.757-1.89-1.32-3.22-0.568 0.568h-1.32v-1.7h1.32l0.568-1.32-2.46-1.32 0.568-0.568-1.89 1.32-0.568-0.757-0.568 1.32-0.757-0.568-1.14 1.14-0.757-1.14-1.7 1.14 1.7 1.89v1.32h-1.14q1.14 4.35 2.84 8.51 1.51 3.97 2.84 8.33 1.14 4.35 2.84 8.7 1.51 4.35 3.97 8.14zm30.7-1.14-0.568 0.568-0.757-0.568 0.757-0.757zm0.568-0.757h-1.14l0.568-0.568zm3.78-0.568h-1.89v-2.46h1.89zm-10.6-1.89-0.757 0.568h-2.46l1.32-2.46 2.46 1.32zm-19.5-8.14-1.89 1.32-1.14-1.89 1.14-1.89zm-8.14-1.32-0.568 0.757-3.03-1.32 2.46-4.92 0.568 0.568-0.568 2.46v0.757l1.14-0.757 1.32 1.32zm13.8-1.14-0.568 0.568-0.757-0.568 0.757-0.568zm38.2 0-0.757 0.568h-1.14l-0.757-1.89 1.32-3.03 1.32 3.03-0.757 0.757zm8.14 0-0.757 0.568-0.568-0.568v-1.89l1.89 0.568-0.568 0.757zm-62.1-6.81-0.568 0.568-0.568-0.568 0.568-0.757zm46.9-1.89-0.568 0.568-0.568-0.568 0.568-1.32 0.568 0.568zm-42.4-7h0.568v-1.14l-1.32-0.757zm54.3-10.6 0.568 1.32-0.568 0.568-1.89-1.32 0.568-3.59 1.32 1.7zm-12.5-8.14-0.568 0.568-1.89-1.7 1.14-1.89h1.32zm11.2-1.14-0.568 0.568-0.568-0.568 0.568-3.78 0.568 0.568zm-11.7-9.46h-1.89l-0.757-1.89 0.757-5.68 1.89 4.35zm3.78-10-0.757 0.568-0.568-0.568 1.32-3.03 1.14 1.7zm9.84-1.89-0.568 0.568-1.32-1.14 0.757-1.89 1.14 1.32zm-8.7-1.14-0.568 0.568-0.568-0.568 0.568-0.757zm1.89 0-1.32-0.757 0.757-0.568 1.14 0.568zm-25.5-1.89h-1.89l1.14-5.11 0.757 0.757zm31.2-0.757-0.757 0.757-0.568-0.757 0.568-1.14 0.757 0.568zm-11.9-8.7h-1.89q0-0.568 0-1.51 0-0.946 0-1.51 0-0.757 0.378-1.32 0.189-0.568 0.946-1.32l1.14 1.32-0.568 2.46zm13.1-10-0.568 0.757-1.32-7.57 0.757-3.78 3.03 6.81-1.89 3.22zm-19.9-12.5-0.757 0.568-0.568-0.568 0.568-0.568zm-33.1-10.6v1.32h-1.89l0.568-3.22 1.32 1.32zm56.8-10.6-0.568 0.568-0.568-0.568 0.568-0.757zm-60.5-3.78-0.757 0.568-0.568-0.568 0.568-1.32 0.757 0.757zm0.568-1.32-0.568 0.757-0.757-0.757 1.32-2.46 1.32 0.568zm27.4-8.14-0.568 0.757-0.568-0.757 0.568-0.568z"/>
    <path d="m421 573-0.568 1.32h-1.89l-1.7-0.568v2.27l-1.32-2.27-0.568 1.7-1.89 0.568-0.568-1.14 0.568-0.568-1.89-3.78h-1.14l1.14-0.568-3.03-1.89 0.568-0.568q-0.568-0.568-1.14-1.51-0.568-0.946-1.7-0.946-1.32 0-1.89-0.189-0.757-0.378-1.89-0.378l-0.757 0.568-4.92-3.03-1.7 0.568v1.32l-0.757-1.32-1.7 0.568v-1.14l-8.7-1.32-0.568-1.7-3.78-0.757-0.568 0.757v-1.32h-1.89l-0.568 0.568-2.46-0.568v-1.89h-3.03v1.32h-1.32v-1.32l-3.59-0.568-0.568 0.568-4.92-1.7-1.89 0.568-0.568-3.03h-2.46v1.7l0.568 1.32-3.03-1.89-1.89 0.568-1.89-1.14-0.568 0.568-3.59-1.89-0.757 0.757v-1.32h-5.49l-0.568-1.14-1.32 0.568-0.568-0.568-0.568 0.568-5.49-1.89-0.757-1.14-3.59 0.568q-1.32-0.568-2.84-1.14-1.51-0.757-3.03-0.946-1.51-0.378-3.03-0.378-1.51 0-2.84-1.32l-1.14 0.757-3.22-1.32 1.32-0.568-3.03-1.89-0.757 0.568-2.46-1.14-2.46 1.14-13.4-3.59-0.568 0.568-3.22-1.14-0.568-1.32-0.568 0.568-3.03-0.568-0.757 0.568-1.7-1.14 0.568-0.568-0.568-6.24 0.568-0.568-0.568-0.568 7.95-2.46 0.568 0.568 0.568-1.32 4.35-0.568 1.32 3.03 1.7-4.16 16.1-3.78v1.32h1.14l1.89-2.46 7.95-1.89 1.32 0.568 7.95-3.03v1.14h1.89l0.568-0.568-0.568-0.568 1.14 1.14 0.757-1.7 23.3-5.68 1.14 0.757 0.757-0.757-0.757-0.568 6.81-1.14 0.568 0.568q1.89-1.89 4.73-2.46 2.65-0.568 5.49-1.14 2.84-0.757 5.68-1.51 2.65-0.946 5.11-1.7l2.46 1.32 1.14-1.89 9.84-2.46-0.568 1.32 0.568 0.568 3.78-1.89v-1.14h0.568l0.568 0.568 0.757-1.32 0.568 0.757 0.568-0.757-0.568 0.757 1.89 0.568 1.7-2.46-1.14-0.568-0.568 0.568 3.03-5.49 6.81-0.757 0.568 1.32 0.568-1.32 0.568 1.32-0.568 1.89-0.568-0.757-0.568 3.78h1.14l-0.568 0.568q1.14 0.568 1.14 1.51 0 0.946 0 1.89 0 0.946 0 1.89 0 0.946 0 1.51l-0.568 0.568 0.568 0.568-0.568 0.757 0.568 1.7-0.568 4.92 0.568 1.89h-1.14l-0.568 4.35 1.14 3.03 0.568-0.568v1.14l-1.7 1.32 0.568 1.14-0.568 0.568 1.14 1.89-0.568-0.568-1.32 3.03h1.32l-0.568 1.32h-1.89l-3.03-0.757-1.32 0.757-0.568-0.757 0.568-2.46-0.568-0.568 0.568-0.568-0.568-0.568 0.568-1.89-1.89-1.32-4.16 1.32v-1.89h-1.32l-5.49 1.32-0.568 1.7h-3.22v1.32l-0.568-0.568-3.59 1.14-1.89-0.568-1.32 0.568-0.568-0.568-2.46 0.568-1.89-0.568-0.568 2.46h-1.89l-0.568-0.568-0.568 1.14v-0.568l1.14-2.46-1.7-3.78q-1.32 0.757-1.32 1.7 0 0.757 0 1.7 0 0.946 0 1.89 0 0.946 0 2.08l0.568 0.757q-0.568 0.568-1.14 1.51-0.568 0.946-0.568 1.89 0 0.757 0 1.7 0 0.946 0 2.27l0.568 9.08-0.568 1.32 0.568 0.568-0.568 0.568 1.14 2.46q1.89 0 3.41 1.32 1.51 1.14 3.78 1.14 2.08 0 3.97 0.378 1.7 0.378 3.59 0.946l1.32 2.46 0.568-1.89h1.89l4.92 1.32-0.757 0.568 2.46 0.568 3.78-1.14 0.568 1.7 1.32-2.46h2.46v-1.14l-0.757-0.568 0.757-0.757-0.757-1.14 1.32-3.78 6.05-1.14 1.89 1.89 0.568-0.757-0.568 1.89 0.568 2.46-0.568 0.568 0.568 8.7-0.568 0.568 0.568 1.32-0.568 1.14 0.568 1.32h-1.14v1.7l1.14 3.78-0.568 1.14zm-9.08-3.59-0.757 0.568 0.757 0.568 0.568-0.568zm-15.1-62.4-2.65-0.946-2.46 0.757v2.08l3.41-0.189zm-5.68 11.5 0.568-0.568-2.46-0.378-0.946 1.32 2.46 0.378zm5.87 0.189-0.189-1.89-5.3-1.51 0.189 2.08zm-8.51 32.9-2.46-0.757v1.32l1.89 2.46 1.14-2.46zm-5.3-36.7-0.189-2.08-2.27-1.14-1.89 0.946 0.378 1.89zm-10.6 34.4-4.54-0.946v2.08l2.65 0.378zm-4.35-20.6h-0.568l-0.757-0.568-10.4 3.78-1.14-0.757q-2.46 0.757-4.92 1.32-2.46 0.568-4.92 1.32-2.46 0.568-4.92 1.89-2.46 1.14-4.92 1.14l0.568 1.7 7.38 1.32 1.32 2.46 0.568-1.89h0.568l18.4 5.49 1.89-0.568 1.32 0.568 1.7-4.92-0.568-1.14 0.568-0.568-1.14-9.27 0.568-0.568zm0.757-9.46 0.568-0.946q-0.568-0.378-1.14-0.568-0.757-0.378-1.32-0.378-0.757 0-1.7 0-0.946 0-1.51 0.189v1.89l4.35 0.568zm-13.1-6.05-2.65-0.568-0.757 0.757 2.65 0.568zm-9.27 2.65h-1.14l-1.89 2.46 0.568 0.568 2.46-0.568zm-0.378 11.5-2.84-0.189v0.946l2.65 0.378zm-8.14-12.1q-0.568 0.568-0.946 1.32-0.378 0.568-0.378 1.14t0 1.51q0 0.946 0 1.51l0.757 0.568-1.32 1.32 1.32 1.89 1.14-8.7zm-1.89 1.89-0.568 1.14 0.568 0.568 0.568-1.14zm-1.14 15.9-1.32 4.35h1.32l1.14-1.32zm-1.32 13.6-0.568 1.14 0.568 0.568 0.568-1.14-0.568-0.568zm-0.946-4.16 0.568-0.757-1.14-0.757-2.08 0.946 1.7 1.14 0.946-0.568zm-2.08 2.84h-1.89l-0.568 0.568 2.46 0.757 0.568-0.757-0.568-0.568zm-2.84-16.8-3.03-0.757-2.65 1.51 2.84 0.757 2.84-1.51zm-18.2 5.49 1.14-2.08-2.84-0.189-2.08 0.378-0.189 1.89 3.22 0.568 0.757-0.568zm2.27-6.05-3.41-0.189-0.757 0.378 3.78 0.568 0.378-0.757zm3.22-0.568 1.32-1.51-2.08-0.946-1.14 1.7-1.32 0.757 2.46 0.757 0.757-0.757zm-7.76-0.568-0.189-1.89-2.46 0.189 0.189 1.89 2.46-0.189zm-24.8-1.14-0.568-0.568-1.14 3.03h1.14l1.32-1.89-0.757-0.568z"/>
    <path d="m570 538-1.89 7.57 0.757 3.22-0.757 0.568 1.32 0.568v2.46h-0.568l-0.757-0.568-1.14 0.568-1.32-0.568-0.568 0.568-1.89-0.568v1.89h-0.568l-0.757-1.32 0.757-1.89h-1.32v-1.7h-1.32v-1.32l1.32-0.568-0.568-0.757 0.568-2.46h-3.78l-1.89 0.568-0.568-1.14-0.568 0.568-1.89-0.568 0.568-0.757-2.46-0.568-3.78 1.89v-1.32h-4.35v1.32h-7.57v-2.46h-1.89l-0.568-1.32-1.32 3.22h1.32l0.568-0.757v0.757l-1.14 0.568-0.757-0.568-4.92 0.568-1.89-0.568-6.81 0.568-1.89-0.568-6.24 0.568-1.32-0.568-0.568 0.568-0.757-0.568-6.24 0.568v-1.32l-4.92-0.568-1.89 1.89-5.68-1.89-2.46 0.568v-1.7h-1.32l-1.14 2.46h-0.568l-5.68-1.32-0.568 0.568 0.568 0.757-1.32 0.568-1.14-1.89-2.65-0.568-4.92 1.89-3.78-1.32-0.568 0.568-0.568-0.568-0.757 1.32 0.757 0.568h-6.43l-1.7-1.32q-1.32 1.32-3.22 1.32t-3.78 0-3.78 0-3.03 1.32l-3.22-1.32-3.03 1.89 2.46 0.568 1.32-0.568v1.32l-1.32 2.46 1.32 0.568 0.568 3.78-0.568 0.568 4.35 5.11v1.14l3.03 1.89 0.757 2.46 4.92 1.32v1.32h1.89l3.78 3.03 0.568-0.568 2.46 1.14-1.14 1.32 6.81 2.46 0.568-0.568 5.68 2.46v1.32h1.32l-0.757 1.89-1.14-0.757-0.757 0.757 0.757 0.568-1.32 0.568 1.32 0.757v2.46l-0.757 0.568v-1.14l0.757-0.757-1.89-0.568v2.46l-11.4-3.78-1.14 0.757-15.1-4.35v-1.32l-1.7-0.568-2.65 0.568-0.568-1.89-5.68-3.22-0.568-1.7-1.89-0.757v-8.14l1.32-1.14-1.32-7 0.568-3.03-0.568-0.568 0.568-0.757-0.568-0.568 0.568-0.568-0.568-0.757 0.568-3.03-0.568-3.78 1.32-0.568-0.757-2.65 0.757-3.59h-1.32v-1.32l0.568-0.568-0.568-2.65 0.568-1.14-0.568-0.568 0.568-1.32 1.32-0.568-1.32-0.757-0.568-7.38 0.568-0.757-0.568-8.14 1.32-4.35-0.757-0.568-0.568 0.568 0.568-0.568-0.568-0.568 1.89-3.78-1.89-5.11 1.32-3.59 1.14 0.568 9.46-3.78 1.14 0.568 1.89-1.14 1.32 1.14 0.568-1.89 0.757 0.757 4.35-1.89v1.14h1.14l1.89-0.568v-1.14l11.4-3.78 1.89 0.568v-1.32l3.59-0.568 1.89 6.81-0.568 1.32h-1.89l-0.568-0.568-5.11 3.78-0.568-0.757-0.568 1.32h-1.89v1.32l-3.78-0.757-1.89 0.757q0 0.568 0 1.14 0 0.568 0 1.32 0 0.568-0.946 0.568-0.946 0-0.946 0.568l-0.568-0.568-4.35 3.22-2.46-0.757v1.89l0.568 1.32-1.32 0.568-0.568-0.568-3.22 1.89-1.14 3.03h-1.32v1.32l0.757 1.14-2.65 5.11 1.32 1.14h-1.32v1.32l-2.46 1.89-0.568-0.568-0.568 1.14 2.46 1.32v-1.32l3.03-0.568q0.757 1.32 1.7 1.7 0.757 0.189 1.7 0.568 0.946 0.189 2.27 0.189t2.46 0v1.89h1.89v-1.14l7.57-0.757 1.14 0.757 0.757-0.757 1.14 0.757 0.757-0.757 3.03 0.757 4.35-0.757 0.757 0.757 0.568-0.757 0.568 0.757 0.568-0.757 0.757 0.757 0.568-0.757 1.32 1.32q0.568-0.568 1.51-0.946 0.946-0.378 2.27-0.378 1.14 0 6.43-1.32 5.3-1.51-2.08 1.32l0.568 0.757 8.7-0.757 0.757 0.757 0.568-0.757 3.78 1.89q0.568-1.14 1.51-1.51 0.946-0.378 2.27-0.378 1.14 0 2.46 0 1.14 0 2.46 0l0.568 1.32 0.757-0.568 1.14 0.568q0.568-1.32 1.51-1.32t1.89 0q0.946 0 1.89 0 0.946 0 2.27 0l3.78 0.757 6.81-0.757v1.89h1.89v-1.14l1.14 1.7 1.32-1.14-0.568-0.568 8.7-0.757 0.568 0.757 3.78-0.757 0.568 0.757q2.65-0.757 5.11-0.757t5.11 0q2.46 0 4.73-0.946 2.08-0.946 3.97-2.08l0.568-3.22-0.568-0.568 0.568-1.32 1.32 0.757 3.59-1.89 1.32 0.568 1.89-0.568 0.568 19.9-0.568 0.757zm-0.568-1.89-0.568 1.32 0.568 0.568 0.568-1.14zm-3.03-6.62-3.78-1.32-0.757 0.568 3.78 1.32zm0-1.32-0.946-0.757-0.568 0.568 0.946 0.757zm-3.78 8.7-1.32 4.35 1.89 2.46 1.14-3.03zm-5.11 1.14-2.46 5.11 0.568 0.568 3.22-3.78zm-25-1.14h-1.89v1.89h1.89zm-2.46-3.03-3.97-0.378-0.568 0.757 3.97 0.378zm-4.54-0.378-1.14-0.378-0.757 0.568 1.32 0.757zm-4.54 2.84-7.76-2.08v2.08l7 0.568zm-9.84-6.81 0.757-0.568-1.89-1.51-2.08 1.89 2.46 0.757zm2.08-0.378-0.568-0.568-0.757 0.378 0.568 0.757zm-0.568-2.08 0.757-1.32-0.568-0.568-1.51 1.7 0.568 0.757zm-5.11 14.2-0.757 0.568 0.757 0.568 0.568-0.568zm-1.32-16.3-1.32-0.189-0.378 0.946 1.32 0.189zm-2.46 0.189-3.03-0.378-0.378 0.946 3.03 0.378zm-10 13.6-1.89-0.757v1.89l0.568 1.89h1.89v-2.46zm-3.22-8.51 0.568-0.946-1.89-1.14-0.946 3.03 1.89-0.189zm-3.97 0.189v-1.32l-0.757-0.568-1.7 1.7zm0.378 7-1.32 1.89 1.89 0.568v-1.89zm-11.2-3.59-1.14-0.568-0.946 0.568 1.51 0.757zm3.78-0.378 0.189-1.89h-1.89l-0.189 1.89zm-5.68-5.3 1.7-1.32-2.08-1.32-3.97 3.03 1.89 0.568zm-6.43-44.7-0.189-1.51-1.7-0.757-0.757 2.27zm-5.49 53.4-2.65 4.92 0.757 0.568 3.03-3.59zm-32.5-14.4-0.757 0.568 0.757 0.568 0.568-0.568z"/>
    <path d="m569 603-1.89-0.568 2.46-4.35-1.32-2.65 0.757-0.568-1.32-0.568 4.35-1.32 1.89 0.568 3.22-1.89 1.32-4.35-0.757-0.568 1.89-1.89-0.568-3.78 1.32-2.65-0.757-3.03h-1.14l-0.757-1.32 1.89-2.46-1.14-2.65 0.568-0.568-0.568-0.568 0.568-0.757-0.568-0.568 0.568-0.568-1.32-0.757h1.32v-1.89h1.32v-4.92l-1.32-3.22 1.32-1.32-1.32-2.46-1.32-0.568v-8.33l0.757-1.89-0.757-4.92 0.757-3.78-0.757-5.68 1.32-1.32q-0.568-0.568-0.946-1.51-0.378-0.946-0.378-1.89 0-0.946 0-1.89 0-0.946 0-2.27l0.757-2.46-0.757-0.757 0.757-1.14-0.757-1.89 2.65-1.32-0.757-0.568 0.757-0.757-0.757-0.568 0.757-1.32-1.89-3.78 1.89-7.57-1.89-2.46h1.14l0.757-3.78-1.32-4.35 0.568-6.43-1.14-2.46 0.568-0.568-0.568-0.757 1.14-0.568-1.14-0.568 0.568-0.757q-0.568-1.14-1.89-1.51-1.32-0.378-2.65-0.946-1.14-0.568-2.08-0.946-0.946-0.378-2.27-0.946l-1.14 0.568q-0.757-0.568-1.32-0.757-0.568-0.378-0.568-0.946 0-0.757 0-1.7 0-0.946 0-1.51l0.568-3.78h3.78l1.32 0.568 0.568-0.568 1.32 0.568 0.568-0.568 0.568 1.89h3.78l1.89-0.757v-1.14h3.22l1.32 0.568 15.7-0.568 3.78 0.568 0.568-0.568 0.757 0.568 4.35-0.568 0.568 1.14-0.568 3.22 0.568 3.78-1.89 1.32-3.03-0.757v1.89l-3.22 1.32-2.46 11.9q1.14 0.757 1.14 2.08 0 1.14 0 2.84 0 1.51 0 2.84 0 1.14 0 2.46h-1.89v2.46h1.89v7.57l-1.14 3.22q1.14 1.14 1.14 3.41t0 4.54q0 2.08 0 4.35 0 2.08 0.757 3.97l6.24 1.89 0.568-1.14v1.14h1.89v-1.14h4.54l0.568 0.568 6.24-0.568 3.22 0.568q1.32-0.568 1.32-1.51 0-0.946 0-2.27 0-1.32 0.189-1.89 0.378-0.568 0.378-1.89h1.32v-1.32l-1.32-1.14 1.32-0.757-0.757-1.89 1.32-4.35h-1.32l-0.568-3.22 0.568-0.568-1.14-0.568h1.89l1.14-5.11-2.46-0.568v-2.65l1.32-1.14-0.757-0.757 0.757-1.14-0.757-2.65h-1.14l1.14-0.568-1.14-0.568v-1.89l3.03-4.54-1.89-1.14-1.14-4.54 0.568-0.568-1.32-0.568-1.14-5.68-1.89-0.757-1.32 0.757-3.22-1.32-1.14-1.89 0.568-0.568-1.32-1.32 0.757-1.32-0.757-3.03h5.68l0.757 1.14q0.568-0.568 1.14-0.757 0.757-0.378 1.7-0.378 0.946 0 1.89 0 0.946 0 1.51 0l1.32 1.89 0.568-0.757 1.32 0.757 0.568-0.757-0.568-0.568 5.68-0.568 4.35 1.14v-1.14h17.6l0.757 5.68-0.757 2.46-1.89-1.89-3.03 1.89 0.568 0.568-1.32 0.757 0.757 0.568-3.22 2.46-1.32 2.65 0.757 8.14-1.32 1.32q1.32 0.568 1.32 1.89 0 1.14 0 2.46 0 1.32 0 2.65 0 1.14 0 2.46l-0.757 0.568 0.757 0.568h-1.32v1.89h1.32v8.33l-1.32 4.35h1.32v11.4l-0.757 0.568 0.757 8.33-1.32 0.568q1.32 0.568 1.32 2.27 0 1.51 0 3.22 0 1.51 0 3.03 0 1.51 0 2.84l-1.32 1.32q1.32 0.568 1.32 1.89 0 1.14 0 2.08 0 0.946 0 2.27t0 2.46h-1.32v3.22q1.32 0.568 1.32 1.89t0 2.27q0 0.946 0 2.27 0 1.14 0 2.46h-1.32v1.89q1.32 0.568 1.32 1.51 0 0.946 0 2.27 0 1.14 0 2.08 0 0.946 0 2.27l-1.32 3.78h1.32v8.89-0.757l-0.757-0.568-1.14 3.22 0.568 0.568-0.568 0.568 1.89 0.757v-1.32h0.568l0.568 2.46-0.568 0.757 1.32 0.568 0.568-0.568 1.32 1.89h3.03l-0.568 0.568 3.22 1.32v5.68l-2.65 0.568-1.14-0.568-2.65 1.14-1.14-2.46-1.32 1.32-2.46-1.32-3.78 1.89-0.757-0.568-2.46 1.14-0.568-0.568-2.65 0.568-2.46-1.14-0.568 0.568-1.32-0.568q-0.568 0.568-1.89 0.946-1.32 0.189-2.27 0.189-0.946 0-2.27 0-1.14 0-2.46 0l-0.568-0.568-3.22 0.568-3.78-0.568-0.568 0.568-1.89-0.568v-3.78l1.89-3.22-0.568-1.14h1.14l1.89 2.46 3.22-5.11 2.46-1.14-0.568-3.22 1.89-1.32-0.568-6.81 0.568-1.32-0.568-1.89 1.89-1.32-0.757-0.568 1.32-4.35-1.32-1.32 1.89-0.568-3.03-0.757v-1.14l1.89-1.32-1.32-0.568v-1.32h1.32v-2.46h-1.32l-0.568-10.8 0.568-3.22-0.568-0.568 0.568-0.568-0.568-0.757 0.568-0.568-0.568-5.11 0.568-0.568-1.32-3.22-2.46-1.14-3.22 0.568-3.78-0.568-14.4 1.14-1.32 4.54 0.568 5.68-0.568 1.89 0.568 6.24-1.89 0.568q0.757 0.757 1.32 1.14 0.568 0.189 0.568 1.51 0 1.14 0 1.89 0 0.568 0 1.89l-0.568 1.89 0.568 12.5-0.568-0.568-1.32 3.22h1.32l0.568 11.9h1.32l0.568 1.89 1.32 0.568 1.89 1.89v1.32h2.46l1.32-0.568 0.568 4.92-0.568 1.32-5.11 1.32v1.14h-0.568l-0.568-1.14-6.43 1.14-0.568-1.89q-0.568 0.757-1.51 1.32-0.946 0.568-2.27 0.568-1.32 0-2.27 0-0.946 0-2.08 0v-1.14l-1.89-0.757-0.757 1.32-0.568-1.32-0.568 1.89h-6.43l-1.14-1.14-0.757 0.568v-3.22h-1.14l-1.32 3.22zm11.4-0.568v-1.89l-0.757-0.568-1.14 1.89 1.14 1.14zm1.89-0.568v-0.757l-0.757-0.568-0.568 1.32 0.568 0.568zm23.8-1.89v-0.757l-0.568-0.568-0.568 1.32 0.568 0.568zm0-3.22v-3.22l-0.568-0.568-0.568 3.78 0.568 0.568zm36.7 0v-3.78l-0.757-1.89h-1.89v3.22l1.89 3.03zm14.4-1.89-0.568-0.568-0.568 0.568 0.568 0.568zm-78.1-4.35-1.32-0.757-0.568 0.757 1.32 0.568zm64.3-0.757v-1.89h-1.32l-0.568 0.757 1.32 1.89zm-46-0.568v-1.32l-1.89-4.35-0.757 1.89 0.757 3.78zm30.8-1.32-0.568-0.568-0.757 0.568 0.757 0.757zm-33.5-5.68v-0.568h-1.89v1.32l1.89 1.14 0.757-0.568zm41.6-6.24v-4.35l0.757-1.32-1.89-3.22-1.32 5.68 0.568 3.22zm-5.68-10v-0.757l-0.568-0.568-0.568 1.32 0.568 0.568zm-34.6-10.2 0.568-0.568-1.14-0.568-1.32 1.14 1.32 0.757zm51.7-1.89v-3.03l-0.568-0.757-0.568 3.78 0.568 0.757zm-10.6-6.81v-2.65l-2.65-1.14v1.89l0.757 1.89zm-48.1-1.32v-2.46h-1.89v1.89l1.32 1.14zm41.1-0.568v-1.89l-0.568-0.757-1.32 1.89zm-41.6-3.22v-2.46l-0.568-0.757-1.32 3.22zm1.32-3.78-0.757-0.568-0.568 0.568 0.568 0.568zm40.9-0.568v-1.89h-1.14l-0.757 0.568 1.32 1.89zm-41.6-0.757v-0.568l-0.568-0.568-0.568 1.89 0.568 0.568zm27.8-3.03-1.89-0.757-0.568 0.757 1.89 0.568zm10.8 0 0.568-0.757-1.89-0.568v1.32l0.568 0.568zm3.78 0.568v-1.89l-1.32-1.32-1.32 1.89zm14.4-1.89 0.757-1.89-0.757-0.568-1.14 2.46 0.568 0.568zm-25.7-0.568v-1.89h-1.89v1.89zm27.1-3.22v-0.568l-0.568-0.757-0.757 1.32 0.757 0.568zm-5.68-11.9 0.568-1.32-1.14-1.32-0.757 2.65 0.757 0.568zm-41.1-1.32v-6.24l-0.568-0.757-1.32 5.11 1.32 2.46zm41.6-1.32-0.568-0.568-0.568 0.568 0.568 0.757zm0.757-6.24v-3.78h-1.89v2.46l1.14 1.89zm-57.5-0.568v-1.32l-0.568-0.568-0.568 1.89 0.568 0.568zm47.3-12.1v-0.568l1.32-3.22-1.89-0.568-0.568 4.35 0.568 0.757zm18.9-4.92v-0.757l-0.568-0.568-0.568 1.32 0.568 0.568zm-23.3-16.5v-0.568l-0.568-0.757-0.757 1.32 0.757 0.568zm-1.32-3.22-0.568-0.568-0.568 0.568 0.568 0.757z"/>
    <path d="m740 605-3.22-4.35 0.568-1.14-1.89-5.11 0.568-0.568-0.946-0.757-0.568-2.46-0.568 0.568v-5.49l-1.89-0.757q-0.378-1.51-1.32-2.46-0.757-1.14-0.757-2.27 0.189-1.32 0-2.08-0.189-0.946-0.757-2.27-0.568-0.568-1.14-1.32-0.378-0.757-0.757-1.32-0.189-0.568-0.568-1.51-0.189-1.14-0.757-1.7l0.757-0.568-1.32-4.35 0.757-1.89-2.46-0.189v-0.568l2.08-0.378-1.32-0.946 0.189-1.14h-1.14l0.568-0.568-2.08-4.54-1.51 0.378 0.378-4.35 1.14-0.946-2.46-2.27-0.757 0.568-5.3-14.6 0.757-2.08-1.89-5.68-1.89-0.757 1.51-1.14-4.35-6.62-0.568-6.81-2.27-2.08 1.7-4.35-3.03-1.32 1.32-1.14-1.14-0.757-0.946-2.08-1.89-0.189-0.378 3.78h-1.14l-0.189 1.89 0.378 0.568-0.568 0.568 1.14 0.568 0.378 1.32-2.27 6.62 0.946 1.89-0.946 2.46 0.568 0.757-1.51 2.84 0.568 0.568-0.568 0.568-0.189 7.95-0.757 0.757 0.757 5.11-2.08-3.97-1.32 1.89 2.65 3.22-0.757 1.89h1.14l-0.568 12.3-1.89 14.2 0.378 1.14-1.32 6.62 0.568 0.757-0.946 4.73 0.378 2.08-0.946 2.27 0.568 0.568 1.32-0.378 1.51 4.54 1.14 0.189 0.378 1.14-1.51 4.16 2.27 1.32 0.946-2.84-0.378-1.89 0.568-0.568-0.378-0.568h1.14l0.378 2.46 1.7 0.189 0.189-1.89 0.568 2.65-0.946 1.14 0.757 0.757-1.32 0.378 0.946 2.65-0.757 1.14-1.7-0.189-0.757-0.757-1.14 0.568-0.568-0.757-2.46 1.14-2.27-2.65-1.51 0.946 0.568 0.757-3.59 0.189v-1.32h-1.32l-0.568 0.568 0.757-1.7-1.7-0.189-0.189 1.89h-4.92l0.189-1.32-4.16-0.378-1.51 0.568-0.757-3.78-1.32-0.189-0.378-1.14-0.568 0.378v-1.32l0.757-0.946-0.946-1.51 0.378 0.946 5.49-2.08 1.32 0.757 3.41-2.65 1.89-0.568 1.32-2.46-1.32-5.49 2.08-2.27-0.757-2.65 0.757-2.46-0.568-0.568 1.32-1.14v-5.49l0.568-0.568-0.946-1.51 1.51-3.97-0.378-2.46 0.757-1.32v-5.49l0.568-0.568-1.7-1.51 0.757-0.378-0.189-6.81 0.946-0.568-0.378-3.78 1.7-4.35h-1.32v-0.757l0.946-0.568-0.378-4.92 0.946-1.7-0.189-5.68 0.757-0.378-0.757-0.757 1.89-4.73 0.378 1.14 2.27-2.27-1.32-1.14-0.568 0.378-0.378-1.14 0.568-1.32-0.378-0.568 0.568-0.568-0.946-1.89 0.757-1.89-1.14-1.89h1.32l0.946-3.97-0.378-1.51 0.568-0.378v-5.49l0.757-1.89-0.946-3.22 1.7-4.73-0.757-3.78-1.89-0.189v-0.568l0.757-2.46q-1.89 0.378-2.65-0.568-0.757-1.14-2.27-1.51t-2.27-1.32q-0.757-1.14-2.08-1.89l-0.946-2.65 1.32-0.946-0.946-3.22 3.22-0.946 2.46 0.757h4.92l2.27 0.757h5.11l2.27 0.757 1.89-0.378 1.14 0.757 1.89-0.378 3.03 1.32 1.32-0.946 1.14 0.568 1.32-0.378 2.08 5.11-1.51 0.568 1.7 2.08-0.757 2.27 2.27 1.32-0.757 0.757q1.14 1.89 2.27 3.97 1.14 1.89 1.89 4.16 0.757 2.27 1.14 4.35t0 4.54l1.32 0.189 1.32 5.11h1.32l-0.757 0.757 6.24 19.1-0.757 0.378 1.7 1.51 6.81 24.2 1.32 0.189 0.946 7.57 1.89 0.189 2.65-6.62-2.08-3.22h0.946l2.46-4.73-2.84-1.51 0.378-4.92 0.757-1.32 1.89-0.378-1.51-3.22-0.757 1.14 0.568-5.49 0.568-0.568 0.189-6.81 0.568-0.378-0.568-0.757 1.32-0.568-0.568-0.568 0.757-1.89-1.14-0.189 0.378-2.84 0.568-0.568-0.378-1.32 1.14-0.568-1.14-1.14 1.32-0.757-1.14-0.568 0.189-2.46 0.757-0.568-0.378-2.46h1.14l2.27-4.16-2.27-2.08 0.378-4.16 2.08-1.14 0.189-1.89-2.84-1.32v-0.568l0.757-1.32-0.568-0.568 0.568-0.568-3.97-3.59-0.757 1.89-1.14-2.08-1.14 0.568-3.03-1.51-0.378-3.03 0.946-2.46-0.568-0.568 6.81-0.757 5.3 3.03 2.65-2.27 1.32 0.757 1.14-0.946 0.568 1.14 0.757-1.14 0.568 0.189 3.03 0.757 4.35-0.189 3.03 0.946 0.568-0.568q1.14 0.757 0.946 1.7 0 0.946 0 1.89 0 0.946-0.189 1.89 0 0.757-0.189 2.08l-1.32-0.189-0.568-0.568-0.568 1.14-2.08 0.378 0.568 0.757-5.68 1.14-0.378-0.568-1.51 1.7 0.568 0.568h-1.32l-0.189 2.46-0.378 16.7-1.32 6.62 0.757 0.757-1.51 6.62 0.757 0.568-1.51 6.81 0.757 0.568-1.32 6.81 0.568 0.568-1.89 5.87 0.378 1.51-1.14 6.05 0.378 1.89-1.32 2.46h1.14l-0.946 3.59 0.568 0.757-2.08 15.7 0.568 7.57-1.51 6.62 0.757 0.757-1.51 6.62 0.757 0.757-1.14 4.73v-1.14l-1.7-0.189-0.189 1.7q0.568 1.32 0.946 2.46 0.568 0.946 0.378 2.27-0.189 1.14-0.378 2.46 0 1.14 0.568 2.27l-1.14 5.3-0.568-0.189-2.46-0.757zm8.33-3.78-0.568-0.757-0.568 0.757 0.568 0.568zm-63.8-7-0.568-0.568-0.568 0.568 0.378 0.757zm1.89-0.378 0.378-3.03-0.568-0.568-0.946 3.59 0.568 0.568zm58.3 6.43 0.378-2.46-1.89-0.189-0.378 2.46zm-42.8-7.38-0.568-0.568-0.568 1.14 0.378 0.757zm45.8-5.3-0.568-0.568-0.568 0.378 0.568 0.757zm-0.378-2.46 1.7-3.03-2.08-3.97-1.51 7.38h1.32zm-9.27-5.87v-0.568l-0.378-0.757-0.757 1.14 0.568 0.568zm12.5-0.757v-1.14l-0.946-1.51-0.946 2.46zm-2.08-4.35 2.27-3.59-1.89-0.189-0.189 1.32-0.946-0.946-0.946 0.757 1.14 3.22zm-0.757-4.54-0.757-0.568-0.568 0.568 0.568 0.568zm0.568-0.378-0.378-0.946-0.946 0.757zm2.46-12.9 0.757-0.568-1.7-0.757-0.189 1.14 0.568 0.757zm-23.1-3.41 0.378-3.03-0.568-0.946-0.946 3.78 0.568 0.568zm11.7 1.7v-1.14l0.757-1.32-2.27-1.32-0.378 3.59zm9.08-0.378 0.189-1.89 0.946-2.27-2.46-0.189-0.946 4.16zm-8.14-10.6 0.189-1.32 0.946-3.03-0.946-3.03-2.08 7.19zm9.46-2.84v-0.568l-0.378-0.757 0.946-4.16-1.7-0.189-1.51 1.7 0.378 3.78 1.7 0.568zm-13.4-6.81 0.189-1.89-1.7-1.51-0.568 0.378 0.378 0.757-0.568 0.568 1.7 2.08zm-9.65-2.46 0.757-0.568-1.14-1.89-1.51 3.22h1.32zm7-1.14-1.7-1.51-0.757 0.757 1.7 1.32zm1.7-0.378-0.378-0.757-0.757 0.568 0.568 0.757zm-7.76-2.08v-0.568l-0.378-0.568-0.757 0.946 0.568 0.757zm-36.5-7.95-0.378-0.568-0.757 0.378 0.568 0.946zm31.6-3.59 0.189-1.32-1.51-1.32-0.757 2.46zm0.189-2.46-0.568-0.757-0.946 0.568 0.757 0.757zm0.757-6.81 0.189-1.89-1.32-1.14-0.946 2.84zm-12.9-4.16 0.189-1.89 0.757-1.32-1.7-1.32-2.08 0.946 0.378 3.22zm-11.9-4.54 0.757-1.51-1.14-0.189-1.32 1.14 0.946 1.32zm-12.7-34.4-0.568-0.568-0.757 0.378 0.757 0.757z"/>
    <path d="m811 603-1.14-1.14-1.89 0.568-0.568-1.14-1.14 0.568 0.568-0.568-1.32-0.568-0.568 0.568v-1.32h-1.7v1.32h-0.757l-3.03-1.32v-1.7h-1.14v-1.32h-1.89l-1.14 0.757-3.03-2.46 1.14-0.757-2.46-0.568h1.32v-1.7h-1.32l0.568-0.757-2.46-1.7-0.568 1.14q0-0.568 0-1.51 0-0.946 0-1.7 0-0.946-0.568-1.51-0.568-0.757-1.14-0.757l0.568-1.89-1.89-0.568-1.14 1.32-1.89-6.24 0.568-0.568-3.59-3.59-1.32-3.03 1.89-1.32v-2.46h-1.89v1.32l-1.7-5.49 0.568-0.568q-0.568-0.568-1.32-1.14-0.568-0.757-0.568-1.7 0-0.946 0-1.7 0-0.946-0.568-1.51l0.568-1.32-1.14-1.89h1.14v-1.7l-1.7-3.03h1.14l0.568-1.89-1.14-3.03 0.568-1.89h-1.14l-0.568 0.568v-3.03l1.14-2.46-0.568-1.14 1.14-0.568-0.568-0.568 0.568-2.46h-1.7v-1.89l1.14-0.568-1.14-0.568 0.568-3.78h1.14v-1.14l-1.14-3.59 1.14-0.757-1.14-0.568 2.46-1.89-1.89-0.568v-0.568l1.14-0.568-1.14-1.89 1.89-0.568v-1.89h-1.89v-0.568l2.46-0.568v-1.89h1.14v-3.03l-1.14-2.46-0.568 0.568v-0.568l0.568-0.568-0.568-0.568q1.14-0.757 1.14-1.89 0-1.14 0-2.27 0-1.32 0.568-2.27 0.568-0.946 0.568-2.08h1.32v-1.89l2.46-0.568 0.568-5.49-0.568-1.32 5.49-9.08 1.7-0.568 0.757-1.89 1.7-0.568v-1.32l3.03-0.568v-1.14l-0.568-1.32h1.89v-1.14l0.568 0.568 0.568-0.568 0.757 0.568 1.14-3.03 6.62-2.46 3.22 0.568v-1.7h1.7l0.568 0.568 7.38-0.568 7.95 2.46 0.568 1.14 1.89-0.568 1.14 1.14 0.568-0.568 6.81 5.49v1.89l3.03 1.14 4.92 7.38-1.89 1.14 4.35 3.03v3.78l1.7 0.568 4.92 17.6-0.568 1.89 1.7 3.59-0.568 1.32 1.32 3.59-1.32 2.46 1.32 1.89 0.568-0.757v6.24l-0.568 0.568 0.568 4.16-0.568-0.568-1.32 1.89 1.89 3.03-1.32 0.568 1.32 0.568v3.78q-0.568 3.59-1.32 7.38-0.568 3.59-0.946 7.19-0.189 3.59-1.14 7.38-0.946 3.59-2.65 6.62l0.568 1.89-1.32 1.7-1.7 0.568 0.568 0.757-1.14 0.568 1.14 0.568-0.568 0.568 0.568 1.89-1.89 4.35h-1.14l-1.14 2.27-1.32 2.46 0.568 0.757-1.7 0.568q0 0.568 0 1.51 0 0.946-0.757 1.32-0.568 0.189-1.14 0.757-0.568 0.568-0.568 1.32h-1.32l-0.568 1.7-1.89 0.568-1.14 1.89-4.35 2.46 0.757 0.568h-1.89l-0.568-0.568-3.03 3.03-3.03-0.568-1.32 0.568-0.568-0.568-1.89 0.568v1.14h-1.7l-0.757-1.14-0.568 1.14zm-4.16-3.59-0.568-0.568-0.757 0.568 0.757 0.568zm2.46-7.19v-1.89l0.568 1.89 6.62 0.568 1.89-1.32 1.89 0.757 1.7-0.757v-2.46l2.46-1.14-1.14-0.568 2.46-1.32 1.14-4.73-0.568-0.757 1.14-0.568-0.568-1.14 1.89-1.32-0.568-4.16 0.568-1.89v1.14h1.7v-1.14l-0.568-2.46h1.89v-1.14l-0.568-1.89h-1.32v-3.03l0.568-2.46h1.32v-1.14l-0.568-2.46 2.46-1.89-2.46-1.89 0.568-0.568-0.568-1.14 1.14-1.89-0.568-1.89 0.568-1.14-0.568-3.59 0.568-0.757-0.568-1.7 0.568-1.89h1.32v-1.14l-1.89-1.32 0.568-0.568-0.568-2.46 1.14-0.568-1.14-0.568 0.568-0.757-0.568-0.568 0.568-0.568-0.568-1.14 1.14-1.32-1.14-1.14 1.14-2.46-0.568-1.32 0.568-0.568-1.14-1.7 0.568-1.89h-1.14v-1.89l1.14-2.46-0.568-0.568 0.568-1.89-0.568-1.14 1.14-0.568-1.14-1.32-0.568 0.757-0.757-3.22 1.32-3.59-1.32-3.03-1.14-0.568v-7.95l0.568-0.568-1.14-2.46-1.32-0.568-0.568-3.03 1.89-0.757-3.03-3.59 1.14-1.89-2.46-1.7v-1.32l-3.03-1.14-1.14-2.46-1.32 0.568-1.14-1.89-0.568 1.32-1.89-1.32-1.32 0.757-0.568-0.757-3.59 2.46-0.568-0.568-2.46 3.03h-1.32q0 3.03-1.14 5.49t-1.89 5.3q-0.568 2.65-1.14 5.49-0.568 2.65-1.32 5.11l-1.7 0.568 1.14 3.59-3.03 19.7-1.14 0.568 1.7 3.59-0.568 0.568 0.568 4.35-0.568 0.568 0.568 1.14-0.568 1.32 0.568 1.14-1.14-1.14-0.568 3.59 1.14 1.89-0.568 2.46h1.14v3.03l-0.568 0.568 0.568 0.568h-1.14v1.32q1.14 1.7 1.51 3.97 0.378 2.08 0.378 4.35 0 2.08 0.189 4.16 0.378 2.08 0.946 3.97l-1.14 1.14 0.568 0.568-0.568 2.46h1.7l1.89 7.95-0.568 0.568 5.49 11-1.32 1.32 2.46 4.16zm-9.27-7.38v-2.46l0.757-3.59-1.32-1.32-0.568 7.38 0.568 0.568zm-13.2-2.46 0.568-1.14 0.568 0.568 0.568-1.89-2.46-1.89-0.568-1.14-0.568 1.89 1.14 1.7h-1.7v1.32l1.7 1.14zm4.73-1.14v-3.78l-0.568-0.568-0.568 4.35 0.568 0.568zm40.9-0.757v-0.568l-0.568-0.568-0.568 1.14 0.568 0.757zm-32.4-3.59-0.568-0.568-0.568 0.568 0.568 0.568zm37.8 0 0.568-0.568-1.7-1.89-1.32 1.89 1.89 1.14zm-51.1-2.46-0.757-0.568-0.568 0.568 0.568 0.568zm50.5-1.89v-1.14l-1.89-2.46-0.568 1.89 1.89 2.46zm-4.92-7.19-0.568-0.568-0.568 0.568 0.568 0.568zm3.59 0v-0.568l-0.568-0.757-0.568 1.32 0.568 0.568zm-47.5-1.32v-0.568l-2.46-3.03-0.568 1.32 2.46 3.03zm48.2-0.568v-1.14l-0.757-0.568-0.568 1.7 0.568 0.568zm14-2.46 0.568-1.14-0.568-1.89 0.568-3.03-0.568-0.568-1.89 5.49 1.14 1.89zm-67.7-2.46v-2.27l-1.14-2.46-0.568 4.73zm-1.14-5.49v-1.7l-0.568-0.568-0.757 3.03 0.757 0.568zm51.1-3.03-0.568-0.568-0.568 0.568 0.568 0.757zm16.5-1.14v-2.46l-0.568-0.568-1.14 3.03zm-70.6-1.32 1.7-4.16-0.568-0.568-2.46 4.73 0.568 0.757zm7.19 0v-0.568l0.757-1.7-1.32-2.46-0.568 4.73 0.568 0.757zm62.8-3.03v-1.7h-1.89v1.7zm-14.6-7.95v-3.59h-1.89v3.03l1.32 1.32zm-46.4-0.568v-3.03l-1.14-3.03-0.757 4.92 1.32 1.7zm57.3-11v-0.568l-0.568-0.568-0.757 1.14 0.757 0.757zm-6.05-1.14v-3.03l-0.757-0.568-0.568 3.59 0.568 0.568zm-43.9-4.35 0.568-1.14-2.46-1.32v3.22h1.14zm-10.4-3.03v-4.16h-1.89v3.59l1.32 1.14zm9.65-1.14v-1.89l0.757-2.46-0.757-0.568-1.14 4.92 0.568 0.568zm48.2-0.568v-0.757l0.568-1.14-0.568-0.568-1.32 2.46 0.757 0.568zm7.95-3.78 0.568-4.16h-1.89v1.7l0.568 1.32-0.568 1.14 0.568 0.568zm-65.8-0.568v-2.46h-1.89v2.46zm11-0.568-0.568-0.568-0.757 0.568 0.757 0.568zm-1.89-1.89-0.568-0.568-0.568 0.568 0.568 0.568zm-9.65-0.568v-1.89l0.568-1.7-2.46-1.32-1.89 2.46 0.757 0.568 1.14-0.568 1.14 3.03zm58.5-0.568v-1.89l-0.568-0.568-0.757 2.46 0.757 0.568zm-48.8-4.92v-1.89l-3.03-1.7-0.568 2.27 1.89 1.89zm-2.46-7.38-1.14-1.14-1.32 1.14 1.89 0.568zm0.757-0.568-0.757-0.568-0.568 0.568zm-8.7-9.65v-1.89l-0.568-0.568-1.14 1.7zm43.3-7.95-1.14-0.757-0.757 0.757 1.32 0.568zm-35.9-3.78-0.568-0.568-0.568 0.568 0.568 0.757z"/>
    <path d="m1008 538-1.89 7.57 0.757 3.22-0.757 0.568 1.32 0.568v2.46h-0.568l-0.757-0.568-1.14 0.568-1.32-0.568-0.568 0.568-1.89-0.568v1.89h-0.568l-0.757-1.32 0.757-1.89h-1.32v-1.7h-1.32v-1.32l1.32-0.568-0.568-0.757 0.568-2.46h-3.78l-1.89 0.568-0.568-1.14-0.568 0.568-1.89-0.568 0.568-0.757-2.46-0.568-3.78 1.89v-1.32h-4.35v1.32h-7.57v-2.46h-1.89l-0.568-1.32-1.32 3.22h1.32l0.568-0.757v0.757l-1.14 0.568-0.757-0.568-4.92 0.568-1.89-0.568-6.81 0.568-1.89-0.568-6.24 0.568-1.32-0.568-0.568 0.568-0.757-0.568-6.24 0.568v-1.32l-4.92-0.568-1.89 1.89-5.68-1.89-2.46 0.568v-1.7h-1.32l-1.14 2.46h-0.568l-5.68-1.32-0.568 0.568 0.568 0.757-1.32 0.568-1.14-1.89-2.65-0.568-4.92 1.89-3.78-1.32-0.568 0.568-0.568-0.568-0.757 1.32 0.757 0.568h-6.43l-1.7-1.32q-1.32 1.32-3.22 1.32-1.89 0-3.78 0t-3.78 0-3.03 1.32l-3.22-1.32-3.03 1.89 2.46 0.568 1.32-0.568v1.32l-1.32 2.46 1.32 0.568 0.568 3.78-0.568 0.568 4.35 5.11v1.14l3.03 1.89 0.757 2.46 4.92 1.32v1.32h1.89l3.78 3.03 0.568-0.568 2.46 1.14-1.14 1.32 6.81 2.46 0.568-0.568 5.68 2.46v1.32h1.32l-0.757 1.89-1.14-0.757-0.757 0.757 0.757 0.568-1.32 0.568 1.32 0.757v2.46l-0.757 0.568v-1.14l0.757-0.757-1.89-0.568v2.46l-11.4-3.78-1.14 0.757-15.1-4.35v-1.32l-1.7-0.568-2.65 0.568-0.568-1.89-5.68-3.22-0.568-1.7-1.89-0.757v-8.14l1.32-1.14-1.32-7 0.568-3.03-0.568-0.568 0.568-0.757-0.568-0.568 0.568-0.568-0.568-0.757 0.568-3.03-0.568-3.78 1.32-0.568-0.757-2.65 0.757-3.6h-1.32v-1.32l0.568-0.568-0.568-2.65 0.568-1.14-0.568-0.568 0.568-1.32 1.32-0.568-1.32-0.757-0.568-7.38 0.568-0.757-0.568-8.14 1.32-4.35-0.757-0.568-0.568 0.568 0.568-0.568-0.568-0.568 1.89-3.78-1.89-5.11 1.32-3.6 1.14 0.568 9.46-3.78 1.14 0.568 1.89-1.14 1.32 1.14 0.568-1.89 0.757 0.757 4.35-1.89v1.14h1.14l1.89-0.568v-1.14l11.4-3.78 1.89 0.568v-1.32l3.6-0.568 1.89 6.81-0.568 1.32h-1.89l-0.568-0.568-5.11 3.78-0.568-0.757-0.568 1.32h-1.89v1.32l-3.78-0.757-1.89 0.757q0 0.568 0 1.14 0 0.568 0 1.32 0 0.568-0.946 0.568t-0.946 0.568l-0.568-0.568-4.35 3.22-2.46-0.757v1.89l0.568 1.32-1.32 0.568-0.568-0.568-3.22 1.89-1.14 3.03h-1.32v1.32l0.757 1.14-2.65 5.11 1.32 1.14h-1.32v1.32l-2.46 1.89-0.568-0.568-0.568 1.14 2.46 1.32v-1.32l3.03-0.568q0.757 1.32 1.7 1.7 0.757 0.189 1.7 0.568 0.946 0.189 2.27 0.189 1.32 0 2.46 0v1.89h1.89v-1.14l7.57-0.757 1.14 0.757 0.757-0.757 1.14 0.757 0.757-0.757 3.03 0.757 4.35-0.757 0.757 0.757 0.568-0.757 0.568 0.757 0.568-0.757 0.757 0.757 0.568-0.757 1.32 1.32q0.568-0.568 1.51-0.946 0.946-0.378 2.27-0.378 1.14 0 6.43-1.32 5.3-1.51-2.08 1.32l0.568 0.757 8.7-0.757 0.757 0.757 0.568-0.757 3.78 1.89q0.568-1.14 1.51-1.51 0.946-0.378 2.27-0.378 1.14 0 2.46 0 1.14 0 2.46 0l0.568 1.32 0.757-0.568 1.14 0.568q0.568-1.32 1.51-1.32 0.946 0 1.89 0 0.946 0 1.89 0 0.946 0 2.27 0l3.78 0.757 6.81-0.757v1.89h1.89v-1.14l1.14 1.7 1.32-1.14-0.568-0.568 8.7-0.757 0.568 0.757 3.78-0.757 0.568 0.757q2.65-0.757 5.11-0.757t5.11 0q2.46 0 4.73-0.946 2.08-0.946 3.97-2.08l0.568-3.22-0.568-0.568 0.568-1.32 1.32 0.757 3.59-1.89 1.32 0.568 1.89-0.568 0.568 19.9-0.568 0.757zm-0.568-1.89-0.568 1.32 0.568 0.568 0.568-1.14zm-3.03-6.62-3.78-1.32-0.757 0.568 3.78 1.32zm0-1.32-0.946-0.757-0.568 0.568 0.946 0.757zm-3.78 8.7-1.32 4.35 1.89 2.46 1.14-3.03zm-5.11 1.14-2.46 5.11 0.568 0.568 3.22-3.78zm-25-1.14h-1.89v1.89h1.89zm-2.46-3.03-3.97-0.378-0.568 0.757 3.97 0.378zm-4.54-0.378-1.14-0.378-0.757 0.568 1.32 0.757zm-4.54 2.84-7.76-2.08v2.08l7 0.568zm-9.84-6.81 0.757-0.568-1.89-1.51-2.08 1.89 2.46 0.757zm2.08-0.378-0.568-0.568-0.757 0.378 0.568 0.757zm-0.568-2.08 0.757-1.32-0.568-0.568-1.51 1.7 0.568 0.757zm-5.11 14.2-0.757 0.568 0.757 0.568 0.568-0.568zm-1.32-16.3-1.32-0.189-0.378 0.946 1.32 0.189zm-2.46 0.189-3.03-0.378-0.378 0.946 3.03 0.378zm-10 13.6-1.89-0.757v1.89l0.568 1.89h1.89v-2.46zm-3.22-8.51 0.568-0.946-1.89-1.14-0.946 3.03 1.89-0.189zm-3.97 0.189v-1.32l-0.757-0.568-1.7 1.7zm0.378 7-1.32 1.89 1.89 0.568v-1.89zm-11.2-3.6-1.14-0.568-0.946 0.568 1.51 0.757zm3.78-0.378 0.189-1.89h-1.89l-0.189 1.89zm-5.68-5.3 1.7-1.32-2.08-1.32-3.97 3.03 1.89 0.568zm-6.43-44.7-0.189-1.51-1.7-0.757-0.757 2.27zm-5.49 53.4-2.65 4.92 0.757 0.568 3.03-3.6zm-32.5-14.4-0.757 0.568 0.757 0.568 0.568-0.568z"/>
    <path d="m1072 603-4.35-1.14-0.568 1.14-0.757-0.568-0.568 0.568 0.568-0.568-3.03-1.32-0.568 1.32-1.89 0.568-4.54-1.14-1.7 1.14-5.11-0.568-0.568 0.568h-1.32l-0.568-1.14-0.568 1.14v-1.14l-2.65-0.757-1.89 1.89-4.92-0.568-1.32 0.568-1.14-0.568-0.568 0.568-5.68-1.14-0.757-1.89-2.46 1.14v1.32l-3.03-1.32-1.32 1.32-0.568-0.568h-1.89v1.14l-0.568-1.89-2.65 0.757 0.757 0.568-0.757 0.568-0.568-0.568-1.32 0.568-1.7-0.568-0.757 0.568-1.89-1.89-4.92 1.89-1.32-1.14 1.32-7q0.568-1.14 2.08-1.14 1.7 0 2.65-0.568 0.946-0.757 2.08-1.32 1.32-0.757 1.89-1.89l2.46 5.68 0.757-0.757q0-0.568 0-1.51 0-0.946 0-1.89 0-0.946-0.757-1.51-0.568-0.757-1.14-1.32l0.568-0.568-0.568-0.568 1.89-3.78-0.757-1.32 0.757-1.14v-2.65h-1.32l0.568-9.27 1.89-0.757 1.32-4.92-0.568-0.568h-1.89v3.03l-0.757-0.568-0.568 0.568 0.568-0.568-0.568-0.568 1.32-0.757-1.32-1.14 0.568-3.78-0.568-3.78 1.89-3.78-1.32-3.03 0.757-1.32-1.32-7.57 1.89-4.35-0.568-2.46-0.757 1.32-0.568-1.32q0-1.32 0-2.08 0-0.946 0-2.27 0-1.32 0.568-2.27 0.757-0.946 1.32-1.51l-1.32-0.568v-0.568l2.65-1.89-1.32-2.65-1.89-2.46 0.568-1.14-0.568-1.89 0.568-0.757-0.568-0.568v-0.568h1.32l-1.32-5.11v-0.568l0.568 1.32 0.757-0.757v-3.78h-1.32v-9.27l1.32 1.89 0.568-0.568-0.568-5.68h-1.32l0.568-1.32-0.568-0.568 1.32-0.568-0.757-0.757 0.757-0.568v-1.32h-1.32l1.32-0.568-1.32-0.568 1.32-2.46-0.757-0.757h1.32v-3.03h-1.89l-1.89-5.68h-1.14l-0.757-1.89-1.14 1.32 0.568 0.568h-1.32l-0.568-1.32-0.568 0.757-3.22-1.32 1.32-1.89-0.568-1.14 0.568-0.757-0.568-0.568 1.7-3.78 0.757 1.32 0.568-0.757 0.568 0.757 0.757-0.757 0.568 0.757h1.32v-1.32l3.03 1.32 4.35-1.32 5.11 0.568 2.46-0.568 4.35 0.568 0.568-0.568 18.2 0.568 0.568-0.568h12.7l-0.757 0.568 0.757 0.757 5.49-1.32 2.46 0.568 0.757-0.568-0.757 0.568v1.32l3.22 1.32 3.78 8.14-1.89-1.32-0.568 0.568 3.03 2.46 2.46 12.7 1.89 0.568 1.32 4.35v3.78l-3.22 1.89h-0.568l-0.568-1.32-1.32 1.32h-1.14l-1.32-2.46v-0.757l2.46 2.46 0.568-0.568q0-0.568 0-1.51 0-0.946 0-1.51 0-0.757-0.568-0.946-0.568-0.378-1.14-0.946l-1.89 0.568v1.32l-8.89-12.5-2.46-2.65-0.568 0.757-0.568-1.89 0.568-0.757-0.568-0.568-1.32 0.568-5.11-4.92-0.568 0.568 0.568-0.568v-1.32l-2.46 1.89-1.14-2.46-5.11 1.89-0.568-0.568-1.32 0.568-1.89-0.568-4.92 3.03 0.568 3.22-0.568 1.14-1.89 1.32 0.568 0.568-0.568 0.757 1.89 1.14v1.32h-1.32v1.89l-1.14 0.568 1.89 2.46-0.757 0.568 1.32 0.757v1.89h-1.32l-0.568 2.46v1.32h1.89l-0.568 4.35 0.568 0.568-0.568 0.568 0.568 2.46v7.57l-2.46-1.89-1.32 1.32 1.89 1.89q0.568 1.89 0.946 3.41 0.378 1.51 0.568 3.22 0.378 1.51 0.378 3.41t1.89 2.46l4.92-1.32 1.89 0.757 1.89-1.89-0.568-1.32 4.35-8.14 1.32 0.568 0.568-0.568-0.568-1.32 1.14-7.38h1.32v-1.32l1.89 0.568 1.89 1.89-0.757 0.757 0.757 1.89-0.757 10.6 0.757 1.14h-1.32l0.568 2.65-0.568 0.568v1.32h1.32l-0.757 15.5 0.757 1.32-0.757 16.3-2.46 1.14-2.46-0.568-0.568-1.89v-4.35l0.568 2.46 1.89-2.46-1.32-3.22-5.68-11.7-5.49-3.22-5.11 1.89-1.14 3.22 0.568 0.568-0.568 6.81 0.568 0.568q0 1.32 0 2.27 0 0.946 0 2.27 0 1.14-0.757 2.08-0.568 0.946-1.14 1.51l0.568 0.757v0.568l-1.14 0.568 1.89 0.757 0.568 1.89-0.568 16.1 0.568 0.757-0.568 1.14 1.14 8.14-0.568 3.78 0.568 3.78 1.89 0.568 0.568-0.568h0.757l-0.757 0.568 1.32 1.89h1.89l-1.32-2.46 3.22 1.32 1.32-0.757 3.03 1.32h2.46v-1.89l1.89 0.568 0.568-1.14 3.22-1.32 3.78-4.92 0.568 0.568 2.46-1.89-1.14-0.568h1.14l2.65-5.68 1.7-1.32v-1.89l0.757 0.757h1.14v-1.32l2.65-1.14-0.757-1.89 1.32-3.22 0.568 0.568h1.32v-1.7h-1.32l-0.568-1.32 2.46-1.32-0.568-0.568 1.89 1.32 0.568-0.757 0.568 1.32 0.757-0.568 1.14 1.14 0.757-1.14 1.7 1.14-1.7 1.89v1.32h1.14q-1.14 4.35-2.84 8.51-1.51 3.97-2.84 8.33-1.14 4.35-2.84 8.7-1.51 4.35-3.97 8.14zm-30.7-1.14 0.568 0.568 0.757-0.568-0.757-0.757zm-0.568-0.757h1.14l-0.568-0.568zm-3.78-0.568h1.89v-2.46h-1.89zm10.6-1.89 0.757 0.568h2.46l-1.32-2.46-2.46 1.32zm19.5-8.14 1.89 1.32 1.14-1.89-1.14-1.89zm8.14-1.32 0.568 0.757 3.03-1.32-2.46-4.92-0.568 0.568 0.568 2.46v0.757l-1.14-0.757-1.32 1.32zm-13.8-1.14 0.568 0.568 0.757-0.568-0.757-0.568zm-38.2 0 0.757 0.568h1.14l0.757-1.89-1.32-3.03-1.32 3.03 0.757 0.757zm-8.14 0 0.757 0.568 0.568-0.568v-1.89l-1.89 0.568 0.568 0.757zm62.1-6.81 0.568 0.568 0.568-0.568-0.568-0.757zm-46.9-1.89 0.568 0.568 0.568-0.568-0.568-1.32-0.568 0.568zm42.4-7h-0.568v-1.14l1.32-0.757zm-54.3-10.6-0.568 1.32 0.568 0.568 1.89-1.32-0.568-3.59-1.32 1.7zm12.5-8.14 0.568 0.568 1.89-1.7-1.14-1.89h-1.32zm-11.2-1.14 0.568 0.568 0.568-0.568-0.568-3.78-0.568 0.568zm11.7-9.46h1.89l0.757-1.89-0.757-5.68-1.89 4.35zm-3.78-10 0.757 0.568 0.568-0.568-1.32-3.03-1.14 1.7zm-9.84-1.89 0.568 0.568 1.32-1.14-0.757-1.89-1.14 1.32zm8.7-1.14 0.568 0.568 0.568-0.568-0.568-0.757zm-1.89 0 1.32-0.757-0.757-0.568-1.14 0.568zm25.5-1.89h1.89l-1.14-5.11-0.757 0.757zm-31.2-0.757 0.757 0.757 0.568-0.757-0.568-1.14-0.757 0.568zm11.9-8.7h1.89q0-0.568 0-1.51 0-0.946 0-1.51 0-0.757-0.378-1.32-0.189-0.568-0.946-1.32l-1.14 1.32 0.568 2.46zm-13.1-10 0.568 0.757 1.32-7.57-0.757-3.78-3.03 6.81 1.89 3.22zm19.9-12.5 0.757 0.568 0.568-0.568-0.568-0.568zm33.1-10.6v1.32h1.89l-0.568-3.22-1.32 1.32zm-56.8-10.6 0.568 0.568 0.568-0.568-0.568-0.757zm60.5-3.78 0.757 0.568 0.568-0.568-0.568-1.32-0.757 0.757zm-0.568-1.32 0.568 0.757 0.757-0.757-1.32-2.46-1.32 0.568zm-27.4-8.14 0.568 0.757 0.568-0.757-0.568-0.568z"/>
   </g>
  </g>
 </g>
</svg>