<svg xmlns="http://www.w3.org/2000/svg" xmlns:xlink="http://www.w3.org/1999/xlink" xml:space="preserve" version="1.1" style="shape-rendering:geometricPrecision; text-rendering:geometricPrecision; image-rendering:optimizeQuality; fill-rule:evenodd; clip-rule:evenodd" viewBox="1174 7213.06 18651.46 15274.12">
 <defs>
  <style type="text/css">
   <![CDATA[
    .fil1 {fill:black}
    .fil0 {fill:red}
   ]]>
  </style>
 </defs>
 <g id="Layer_x0020_1">
  <metadata id="CorelCorpID_0Corel-Layer"/>
  <g id="_1702493717824">
   <path class="fil0" d="M18885 12844c-51,-82 -124,-352 -171,-465 -327,-786 -640,-1316 -1208,-1967 -126,-144 -633,-624 -639,-634 130,54 558,475 676,597 239,248 366,432 561,708 195,276 326,495 469,801 46,101 360,907 315,955l-3 5zm-249 -1688c-83,-62 -800,-1305 -2557,-2364 -172,-105 -331,-211 -510,-310 -106,-59 -440,-237 -512,-305 296,83 824,385 1107,541 363,200 645,456 956,684 285,209 1484,1452 1516,1754zm-4871 -3298c-79,-11 -591,-162 -625,-204 245,-10 1241,209 1411,329l-786 -162c-28,65 22,-8 0,37zm-1567 116c412,-79 616,-42 1023,16 143,20 819,168 913,220 -100,5 -346,-62 -460,-83 -156,-29 -314,-45 -471,-70 -310,-50 -688,-65 -1005,-83zm-1958 -483l679 -109c137,-23 604,-80 710,-27 -44,21 -389,31 -469,40 -148,16 -295,32 -442,52 -133,19 -292,45 -421,74 -69,16 -354,97 -396,79 -470,185 -877,292 -1323,559 -402,239 -715,505 -1076,793 -339,270 -660,596 -965,905 -330,333 -612,718 -681,1194 88,-87 177,-236 254,-340 226,-305 569,-666 835,-931 411,-410 818,-735 1310,-1044 547,-343 1020,-507 1605,-750 499,-208 1414,-419 1949,-412 -66,44 -601,108 -731,129 -258,41 -446,90 -686,169 39,30 11,6 59,23 -384,99 -1329,456 -1616,706 97,-26 254,-113 350,-159 333,-160 733,-302 1086,-402 356,-102 1393,-328 1718,-236 -56,173 -997,190 -1197,266 -19,24 -454,131 -529,158 -148,53 -344,131 -479,198 12,22 14,4 -12,25 -6,5 -23,13 -30,16 -48,25 -161,73 -185,104 -36,1 -18,-5 -24,12l-23 10 23 -10 24 -12c91,-12 286,-93 384,-123 76,-23 354,-83 398,-109 -13,-20 -19,-3 13,-19l135 -40c349,-97 1079,-222 1378,-178 -54,-10 -603,66 -655,96 84,-1 285,-27 351,11 389,-79 1000,-51 1412,-59 -80,-49 -234,-7 -309,-59 255,-11 1354,110 1528,230l-523 -74c369,119 740,195 1112,331 565,207 1146,511 1639,865 98,71 104,98 181,177 240,248 421,355 728,704 227,259 444,516 646,796 225,312 167,293 255,435 98,159 191,254 282,437 146,296 308,717 397,1034 26,94 41,183 87,270 99,189 197,680 187,874 -48,2 -60,-15 -126,0 -51,12 -64,32 -110,43 -45,-50 -172,-378 -207,-464 -67,-166 -135,-302 -209,-460 -24,42 157,499 173,599 -33,54 -57,50 -97,146 -110,264 -130,90 -189,72 -37,164 39,1283 40,1629 0,117 -27,440 -13,525 63,-68 79,-152 169,-145 10,77 1,209 -36,278 -66,125 -148,53 -196,83 -23,52 38,167 73,212 52,67 95,92 161,139 154,110 -10,258 -95,387 -68,105 -162,286 -238,373 -43,49 -301,284 -306,298l159 66c-61,109 -118,45 -169,347 -11,66 -99,338 -183,298 -31,-41 -9,-125 -6,-181 -80,43 5,44 -212,163 -202,110 -120,130 -194,170l-40 -266c-62,27 -157,260 -263,328 -66,43 -63,-12 -117,-27 -82,288 -231,508 -439,716 -83,83 -509,564 -571,590l-67 -126c-32,29 -57,90 -92,133 -209,253 -751,433 -838,696 -87,-25 -41,-76 -194,107 -49,58 -111,118 -162,173 -52,56 -102,136 -192,142 -137,9 -128,-79 -194,-140 -60,12 -224,90 -291,117 -393,156 -584,167 -996,183 -125,314 -524,298 -802,313 -357,21 -730,3 -1086,-30 -1471,-135 -2781,-732 -3915,-1659 -210,-172 -394,-372 -668,-444 37,100 666,525 666,619 -197,-19 -1249,-962 -1461,-1228 -100,-126 -315,-375 -443,-459l-10 -13 -9 -9 9 9 10 13c75,161 212,244 235,435 25,218 19,375 71,594l48 -269c121,19 234,240 284,345 118,245 256,223 329,321l-258 59c11,14 127,83 168,120 168,155 262,442 329,511 47,-71 -7,-196 69,-276 81,0 113,104 148,166 73,131 156,239 237,387 29,53 74,175 104,208l13 -107c24,3 164,134 207,163 75,52 146,101 225,156 452,318 291,239 191,357 90,50 264,-24 396,92 -61,53 -192,53 -231,116 96,70 968,241 895,431 -80,72 -363,-2 -462,11 192,101 711,278 900,115 104,-90 129,-238 289,-288 106,-32 398,-32 493,16 -27,53 -124,72 -172,110 68,32 336,-38 431,-59 87,-19 233,134 318,180 161,-50 185,-115 403,-126 163,-8 349,-6 511,13 273,32 726,50 993,2 182,-33 235,-67 397,-122 197,-66 531,58 956,-36 77,-17 346,-84 401,-120 -39,-45 -151,-36 -204,-88 92,-18 216,-15 314,-30 100,-15 196,-31 295,-50 183,-36 381,-74 557,-124 255,-71 1127,-181 1166,-210 -66,-24 -107,-5 -144,-52 8,-23 137,-115 176,-158 489,-548 698,-388 1029,-598 196,-125 197,-192 310,-323 -86,13 -325,273 -511,293 14,-39 253,-220 308,-279 119,-131 146,-218 215,-374 60,-137 378,-628 508,-662l13 63c260,-432 522,-888 750,-1338 265,-523 387,-971 572,-1517 290,-855 374,-1886 339,-2782 -12,-322 -58,-642 -82,-965l-52 69c-23,-351 -84,-569 -215,-886 -43,-105 -297,-711 -343,-752l16 211c-94,-35 -403,-628 -539,-808 -62,-83 -59,-50 -45,-165 15,-116 25,-89 131,-91 -14,-37 -152,-160 -190,-194 -155,-136 -112,-67 -282,-100 -140,-27 -153,-75 -209,-183 -127,-241 -338,-441 -532,-622 -126,-117 -394,-282 -379,-378 84,-34 176,45 259,60 -171,-168 -556,-217 -794,-361 -238,-143 -498,-269 -747,-395 -261,-133 -499,-263 -774,-368 -892,-341 -1860,-585 -2812,-618 -546,-19 -1488,52 -1989,275z"/>
   <path class="fil1" d="M3786 14094c92,-21 484,-4 607,-4 864,0 871,-72 875,364 1,127 42,457 -129,489 -93,18 -1068,8 -1242,7 -276,-2 -250,-131 -250,-369 0,-153 -56,-444 139,-487zm2104 2c128,-33 1034,-7 1239,-6 272,0 257,137 258,375 1,142 35,441 -148,478 -89,18 -1088,10 -1253,7 -262,-6 -257,-158 -256,-381 0,-163 -31,-424 160,-473zm-2148 -1026c109,-39 1036,-16 1228,-16 292,0 296,43 298,326 2,126 41,452 -104,505 -87,33 -1058,15 -1233,15 -287,0 -304,-39 -304,-324 0,-99 -5,-214 2,-312 7,-104 18,-160 113,-194zm2135 0c119,-38 1032,-18 1228,-16 280,2 278,97 282,349 9,586 -23,497 -755,497 -957,0 -928,100 -888,-647 6,-120 27,-149 133,-183zm-586 -598c-17,-43 41,-159 65,-207 30,-60 118,-65 174,-102 72,-47 55,-142 -21,-175 -46,-20 -1211,-108 -1296,-113 -13,119 -137,513 -206,603l-1247 3 3 3134 1188 -1c124,269 -156,1151 -263,1446 -145,401 -372,788 -627,1128 -479,637 -1186,1235 -1887,1628l57 168c1308,-570 2316,-1501 2845,-2823 113,-283 278,-927 360,-1060 56,-90 196,-156 211,-254 -57,-41 -246,-175 -267,-235l645 1c67,240 -49,1693 48,2039 177,629 1004,494 1594,494 658,0 1307,123 1585,-503 256,-574 125,-501 -72,-675 -110,-97 -117,-254 -129,-391 -4,-41 -54,-432 -88,-432 -64,16 -35,689 -269,974 -127,155 -279,135 -462,146 -283,18 -859,30 -1104,-114 -159,-93 -159,-264 -183,-429 -30,-200 26,-926 109,-1103 270,-33 1933,29 2006,-13 45,-65 -12,-2147 15,-2446 71,26 200,305 238,386 31,65 61,165 142,173 231,23 309,-348 56,-545 -165,-128 -262,-112 -438,-179l-4 -517 -2778 -6z"/>
   <path class="fil1" d="M13168 12614c272,29 1841,-31 1926,15 18,53 -39,528 -54,619 -24,156 -45,441 -146,555 -52,-1 -696,-313 -798,-362 -126,-60 -784,-340 -873,-279 -3,51 529,386 610,450 206,160 410,303 609,476 297,259 374,300 250,704 -233,765 -671,1455 -1237,2018 -183,181 -386,339 -591,494 -96,71 -222,158 -326,216 -56,32 -314,159 -307,214 101,128 942,-334 1084,-418 822,-487 1430,-1260 1795,-2140 29,-69 67,-237 172,-188 53,25 140,181 169,237 227,438 325,1018 700,818 372,-198 70,-873 -108,-1120 -111,-155 -222,-295 -352,-433 -151,-161 -283,-259 -245,-499 35,-227 71,-454 106,-681 34,-218 56,-484 103,-691 164,-6 1442,-16 1494,8 22,85 0,1253 1,1457 0,474 3,982 -31,1454 -26,371 -48,932 -203,1270 -97,211 -254,260 -474,263 -161,2 -510,-15 -653,-84 -11,45 212,1055 247,1159 501,8 1120,45 1518,-318 380,-347 434,-873 489,-1358 132,-1146 160,-2363 169,-3517 2,-300 9,-601 8,-901 -1,-78 21,-384 -50,-409 -27,-9 -395,-2 -458,-2l-4144 0c-86,-1 -385,-39 -407,54 -14,60 1,808 7,919z"/>
   <path class="fil1" d="M5188 18464l9 9 10 13c128,84 343,333 443,459 212,266 1264,1209 1461,1228 0,-94 -629,-519 -666,-619 274,72 458,272 668,444 1134,927 2444,1524 3915,1659 356,33 729,51 1086,30 278,-15 677,1 802,-313 412,-16 603,-27 996,-183 67,-27 231,-105 291,-117 66,61 57,149 194,140 90,-6 140,-86 192,-142 51,-55 113,-115 162,-173 153,-183 107,-132 194,-107 87,-263 629,-443 838,-696 35,-43 60,-104 92,-133l67 126c62,-26 488,-507 571,-590 208,-208 357,-428 439,-716 54,15 51,70 117,27 106,-68 201,-301 263,-328l40 266c74,-40 -8,-60 194,-170 217,-119 132,-120 212,-163 -3,56 -25,140 6,181 84,40 172,-232 183,-298 51,-302 108,-238 169,-347l-159 -66c5,-14 263,-249 306,-298 76,-87 170,-268 238,-373 85,-129 249,-277 95,-387 -66,-47 -109,-72 -161,-139 -35,-45 -96,-160 -73,-212 48,-30 130,42 196,-83 37,-69 46,-201 36,-278 -90,-7 -106,77 -169,145 -14,-85 13,-408 13,-525 -1,-346 -77,-1465 -40,-1629 59,18 79,192 189,-72 40,-96 64,-92 97,-146 -16,-100 -197,-557 -173,-599 74,158 142,294 209,460 35,86 162,414 207,464 46,-11 59,-31 110,-43 66,-15 78,2 126,0 10,-194 -88,-685 -187,-874 -46,-87 -61,-176 -87,-270 -89,-317 -251,-738 -397,-1034 -91,-183 -184,-278 -282,-437 -88,-142 -30,-123 -255,-435 -202,-280 -419,-537 -646,-796 -307,-349 -488,-456 -728,-704 -77,-79 -83,-106 -181,-177 -493,-354 -1074,-658 -1639,-865 -372,-136 -743,-212 -1112,-331l523 74c-174,-120 -1273,-241 -1528,-230 75,52 229,10 309,59 -412,8 -1023,-20 -1412,59 -16,102 -317,171 -405,205l276 -9c-49,21 -216,34 -282,44 -27,4 -262,48 -264,49 82,27 583,-76 711,-23 -16,8 -332,36 -394,47 -468,78 -592,96 -1070,245 111,1 400,-79 532,-103 584,-106 1256,-163 1845,-110 730,65 1456,233 2124,540 289,132 598,287 861,466 97,66 321,202 384,287 70,95 247,226 345,324 414,415 587,611 931,1065 46,60 223,360 284,348 4,-105 -507,-739 -603,-860 -235,-296 -656,-629 -735,-731 350,253 493,403 774,727 240,278 410,613 648,874l717 2c87,252 -38,3896 -104,4352 -128,885 3,1956 -1175,2198 -241,50 -201,-7 -388,178 -126,124 -175,237 -324,105 -59,135 -69,230 -165,364 -120,167 -703,816 -773,854l-66 -116c-33,17 -53,83 -83,117 -227,259 -720,416 -778,651l-81 -32c-62,97 -191,219 -271,305 -149,161 -218,175 -344,-16 -119,68 -386,157 -534,202 -256,77 -400,69 -659,85 -83,153 -261,266 -438,272 -751,21 -1186,52 -1974,-105 -759,-152 -1376,-405 -2045,-783 -265,-150 -1414,-934 -1691,-1137 -270,-199 -532,-414 -775,-645 -121,-115 -251,-220 -371,-333 -84,-78 -288,-287 -364,-341 9,116 279,564 351,693zm7053 -9977l-108 -17c97,-32 743,41 879,63 136,22 264,47 398,76 56,12 347,81 370,97 -35,15 -691,-113 -795,-130l-637 -81c-39,-8 -67,-8 -107,-8zm-319 -93c84,-33 692,21 827,31 129,9 268,39 394,58l282 55c7,2 35,8 44,11l18 8c3,1 8,8 9,5 2,-2 7,4 9,6 -91,1 -299,-31 -396,-48l-787 -94c-80,-4 -344,-11 -400,-32z"/>
   <path class="fil1" d="M9997 13706c-15,-47 -3,-153 -4,-211 -1,-110 -12,-112 101,-110l879 0c106,0 65,33 74,134 6,75 24,110 14,193 -74,-36 -209,-207 -332,-258 -84,51 -167,233 -246,257 -60,18 -444,18 -486,-5zm1073 -1011c-60,45 -1563,-26 -1792,17 -27,279 -4,687 -4,980 0,600 9,1227 -150,1811 -78,283 -172,457 -279,717 38,31 279,116 350,149 75,36 280,166 340,176 238,-546 361,-965 412,-1571 10,2 253,151 284,-233 7,-85 -54,-422 -125,-459 -36,41 -25,357 -140,454 -4,-135 20,-292 23,-433 1,-78 -20,-410 20,-444 42,-36 913,-7 1058,-22l50 522c-75,-10 -153,-150 -249,-158 -72,91 -114,405 -255,403 -40,-92 -13,-405 1,-439 20,-47 58,-44 71,-104 -56,-74 -298,-102 -388,-95 -3,75 36,185 40,279 14,307 40,587 -35,902 -116,490 -434,712 -474,809 138,-22 349,-228 427,-327 75,-96 263,-425 301,-454 149,21 146,286 229,386 196,36 243,-211 148,-319 -164,-186 -480,-32 -340,-438 28,-81 82,-96 153,-138 122,-73 233,-163 374,-197 22,41 82,473 101,567 68,329 85,211 -110,468 -237,311 -692,611 -714,646 13,16 262,164 309,196 104,71 192,156 289,226 100,-26 327,-269 401,-344 210,-214 219,-280 337,-412 29,14 242,285 289,334 77,82 244,229 345,279 167,83 367,73 309,-171 -17,-72 -107,-465 -123,-499 -76,40 -99,404 -339,142 -62,-69 -236,-304 -276,-386 10,-22 132,-212 197,-348 117,-246 237,-527 324,-785 158,-471 57,-394 259,-461 8,-124 -109,-128 -324,-196 -83,-27 -325,-122 -396,-125 -54,158 -137,655 -218,760 -33,-67 -50,-856 -41,-971l894 -4c23,-45 20,-593 9,-669 -61,-24 -197,7 -233,-21 -10,-10 5,-242 -206,-396 -96,-70 -357,-213 -463,-142 19,33 82,80 112,112 44,49 56,76 91,128 37,54 156,257 121,301 -47,22 -619,20 -646,-4 -46,-43 -21,-368 41,-442 63,-74 72,-108 -26,-153 -65,-30 -136,-47 -204,-63 -300,-68 -218,-47 -181,184 12,70 50,443 22,475z"/>
   <path class="fil1" d="M13314 14486c158,226 -318,1310 -564,982 -277,-371 188,-1019 564,-982zm259 1440c285,-26 607,-356 701,-617 119,-330 54,-756 -244,-971 -609,-441 -1504,-63 -1606,680 -58,426 263,831 518,788 258,-43 447,-614 500,-833 92,-380 12,-515 178,-459 414,141 406,597 189,861 -125,151 -259,173 -433,234l197 317z"/>
   <path class="fil1" d="M5856 11051l-105 433c159,-179 303,-408 450,-601 772,-1015 1765,-1853 2966,-2320 511,-199 1075,-441 1625,-493 200,-76 1141,-93 1197,-266 -325,-92 -1362,134 -1718,236 -353,100 -753,242 -1086,402 -96,46 -253,133 -350,159 287,-250 1232,-607 1616,-706 -48,-17 -20,7 -59,-23 240,-79 428,-128 686,-169 130,-21 665,-85 731,-129 -535,-7 -1450,204 -1949,412 -585,243 -1058,407 -1605,750 -492,309 -899,634 -1310,1044 -266,265 -609,626 -835,931 -77,104 -166,253 -254,340z"/>
   <path class="fil1" d="M7877 15871c67,83 348,44 453,347 58,167 23,547 178,630 254,136 361,-184 274,-413 -124,-328 -128,-319 -86,-679 52,-438 159,-928 241,-1365 40,-220 251,-1236 231,-1376 -95,18 -231,657 -260,772 -69,276 -142,553 -209,829 -62,260 -140,554 -234,804 -34,90 -113,278 -175,346 -108,121 -287,72 -413,105z"/>
   <path class="fil1" d="M6661 16695c3,-91 324,-597 406,-641 4,-3 340,-92 23,-235 -85,-39 -279,-150 -364,-141 -10,73 2,130 -13,210 -27,146 -135,757 -240,808 -80,40 -289,-42 -361,-17 -52,76 54,426 139,471 59,-8 71,-53 114,-90 60,-52 401,-114 489,-134 68,-15 290,-69 345,-69 133,-1 56,173 169,243 128,79 404,-116 221,-453 -71,-131 -321,-342 -474,-347 -13,125 139,242 77,388 -86,56 -453,69 -531,7z"/>
   <path class="fil1" d="M18636 11156c-32,-302 -1231,-1545 -1516,-1754 -311,-228 -593,-484 -956,-684 -283,-156 -811,-458 -1107,-541 72,68 406,246 512,305 179,99 338,205 510,310 1757,1059 2474,2302 2557,2364z"/>
   <path class="fil1" d="M12283 10527c-109,98 -34,162 1,256 -145,86 -211,31 -268,40 -26,74 62,118 125,129 135,22 137,-42 233,-69 90,141 200,304 250,464 14,46 44,157 116,86 94,-91 -28,-272 -87,-346 -60,-75 -203,-191 -219,-274 98,-57 452,-340 562,-157 29,91 -86,167 -161,190 -95,30 -304,8 -323,18 319,211 760,-13 636,-214 -73,-117 -311,-96 -421,-62 -59,18 -344,161 -369,149 -72,-54 -18,-165 72,-185 103,-23 152,86 238,11 96,-158 -148,-196 -257,-184 17,14 148,50 81,122 -40,43 -153,16 -209,26z"/>
   <path class="fil1" d="M8409 11119c-11,-72 6,-84 41,-141 35,13 65,55 80,94 -36,48 -59,84 -121,47zm126 -232c33,-48 104,-110 161,-118 -12,69 -61,122 -86,188 -49,-11 -59,-22 -75,-70zm105 -363c50,47 133,-1 95,147l-230 164c-72,-97 -27,-284 -107,-339 -17,37 3,217 9,275 16,169 68,98 -58,240 -123,141 71,374 256,120 52,10 89,31 142,1 39,-60 6,-98 -48,-127l147 -315c230,-16 338,184 213,373 -102,155 -252,199 -406,282 187,25 481,-121 572,-266 150,-238 -115,-451 -362,-439 -13,-132 -111,-195 -223,-116z"/>
   <path class="fil1" d="M8249 11812c0,56 135,136 183,184 69,69 119,125 178,202 92,118 199,457 392,239 141,-160 32,-396 -124,-495 -128,-81 -491,-174 -629,-130z"/>
   <path class="fil1" d="M7165 10425c54,24 62,-12 109,51 29,37 66,67 54,105 -81,19 -118,0 -190,-16 2,60 39,94 89,119 88,44 107,2 190,3l56 89c-51,29 -127,37 -183,37 -117,1 -81,-3 -169,-38 -17,101 68,140 158,147 113,10 164,-57 257,-64 19,52 51,81 54,133 -96,49 -524,8 -464,222 42,151 384,248 472,134 20,-217 -384,4 -420,-194 56,-171 476,17 540,-24 62,-138 -105,-200 -125,-300 52,-48 152,-31 118,-134l-159 -26c23,46 37,22 29,72 -70,23 -85,-20 -105,-85 43,-32 112,-45 84,-107 -47,-54 -86,-7 -149,7 -10,-36 -46,-167 -68,-184 -51,-37 -158,-21 -178,53z"/>
   <path class="fil1" d="M15573 11199c38,-69 169,-70 227,-23 -37,77 -180,106 -227,23zm208 -785c33,40 42,2 71,60 17,35 14,100 13,140 -47,26 -126,49 -180,69 -59,23 -171,32 -193,42 50,155 328,-13 373,13 28,55 26,314 -23,360 -101,30 -216,-29 -307,69 -27,105 72,182 169,181 134,-1 161,-94 231,-133l57 48c-23,48 -73,75 -115,95 32,21 120,-10 172,-6 80,8 79,43 157,-9 43,-152 -172,-166 -231,-219l5 -429c67,-23 118,0 161,-51 -2,-86 -77,-75 -150,-81 -9,-76 19,-116 -55,-162 -53,-33 -119,-50 -155,13z"/>
   <path class="fil1" d="M18885 12844l3 -5c45,-48 -269,-854 -315,-955 -143,-306 -274,-525 -469,-801 -195,-276 -322,-460 -561,-708 -118,-122 -546,-543 -676,-597 6,10 513,490 639,634 568,651 881,1181 1208,1967 47,113 120,383 171,465z"/>
   <path class="fil1" d="M9632 10873c-20,75 97,109 155,115 96,10 125,-35 189,-92 105,-93 232,-226 388,-174 208,69 75,334 -214,452 -43,17 -193,52 -212,68 252,92 896,-243 614,-489 -272,-237 -611,55 -791,112 -68,22 -84,-6 -129,8z"/>
   <path class="fil1" d="M14167 10897c-26,50 -80,172 -117,206 -73,69 -168,-5 -204,-78 -61,-124 15,-465 -213,-432 1,19 34,105 42,150 24,147 24,328 181,456 68,55 241,126 317,61 58,-50 -15,-81 3,-265l1 -71c-6,-30 2,-10 -10,-27z"/>
   <path class="fil1" d="M11145 11016c-154,-75 28,-342 132,-306 22,62 -72,278 -132,306zm185 -336c166,-24 277,110 221,268 -48,137 -160,176 -253,251 106,39 383,-149 368,-323 -19,-209 -278,-295 -455,-188 -275,167 -181,405 -82,433 83,23 128,-124 161,-181 127,-213 55,-137 40,-260z"/>
   <path class="fil1" d="M15415 10856c-34,54 -57,205 -114,227 -10,-120 40,-234 59,-351 18,-108 -17,-262 -141,-271 109,375 -78,528 -4,776 48,162 171,224 169,8 0,-58 34,-383 31,-389z"/>
   <path class="fil1" d="M12198 7974c317,18 695,33 1005,83 157,25 315,41 471,70 114,21 360,88 460,83 -94,-52 -770,-200 -913,-220 -407,-58 -611,-95 -1023,-16z"/>
   <path class="fil1" d="M13765 7858c22,-45 -28,28 0,-37l786 162c-170,-120 -1166,-339 -1411,-329 34,42 546,193 625,204z"/>
   <path class="fil1" d="M14356 10952c55,4 116,-2 169,7 73,13 67,38 157,34 144,-199 -116,-350 -301,-341 30,63 150,66 155,168 4,82 -129,75 -180,132z"/>
   <path class="fil1" d="M10240 7491l-339 109c42,18 327,-63 396,-79 129,-29 288,-55 421,-74 147,-20 294,-36 442,-52 80,-9 425,-19 469,-40 -106,-53 -573,4 -710,27l-679 109z"/>
   <path class="fil1" d="M10339 8339c109,-5 304,-62 426,-80 146,-21 299,-47 445,-61 52,-30 601,-106 655,-96 -299,-44 -1029,81 -1378,178l-135 40c-32,16 -26,-1 -13,19z"/>
   <path class="fil1" d="M9510 8593l23 -10c6,-17 -12,-11 24,-12 24,-31 137,-79 185,-104 7,-3 24,-11 30,-16 26,-21 24,-3 12,-25 -147,33 -389,155 -537,218 -86,36 -181,77 -258,122 -53,31 -169,89 -217,131 -20,18 -6,6 -20,20 127,-32 247,-118 371,-167 122,-50 263,-118 387,-157z"/>
   <path class="fil1" d="M16108 10301c19,33 29,23 65,71 18,25 51,77 87,44 78,-72 -75,-127 -152,-115z"/>
   <path class="fil1" d="M16157 10475c47,-90 -78,-127 -148,-113 11,26 42,44 60,68 32,43 26,70 88,45z"/>
  </g>
 </g>
</svg>