<?xml version="1.0" encoding="UTF-8" standalone="no"?>
<!-- Created with Inkscape (http://www.inkscape.org/) -->

<svg
   xmlns:dc="http://purl.org/dc/elements/1.1/"
   xmlns:cc="http://creativecommons.org/ns#"
   xmlns:rdf="http://www.w3.org/1999/02/22-rdf-syntax-ns#"
   xmlns:svg="http://www.w3.org/2000/svg"
   xmlns="http://www.w3.org/2000/svg"
   xmlns:sodipodi="http://sodipodi.sourceforge.net/DTD/sodipodi-0.dtd"
   xmlns:inkscape="http://www.inkscape.org/namespaces/inkscape"
   id="svg2"
   version="1.1"
   inkscape:version="0.91 r13725"
   width="1245"
   height="630.9375"
   viewBox="0 0 1245 630.9375"
   sodipodi:docname="The Rising of the Shield Hero Anime Logo.svg">
  <metadata
     id="metadata8">
    <rdf:RDF>
      <cc:Work
         rdf:about="">
        <dc:format>image/svg+xml</dc:format>
        <dc:type
           rdf:resource="http://purl.org/dc/dcmitype/StillImage" />
        <dc:title></dc:title>
      </cc:Work>
    </rdf:RDF>
  </metadata>
  <defs
     id="defs6" />
  <sodipodi:namedview
     pagecolor="#ffffff"
     bordercolor="#666666"
     borderopacity="1"
     objecttolerance="10"
     gridtolerance="10"
     guidetolerance="10"
     inkscape:pageopacity="0"
     inkscape:pageshadow="2"
     inkscape:window-width="1366"
     inkscape:window-height="705"
     id="namedview4"
     showgrid="false"
     inkscape:zoom="0.43328926"
     inkscape:cx="622.5"
     inkscape:cy="363.18601"
     inkscape:window-x="-8"
     inkscape:window-y="-8"
     inkscape:window-maximized="1"
     inkscape:current-layer="svg2" />
  <path
     style="fill:#000000"
     d="m 288.45931,560.82625 c -0.1823,-0.18298 -4.15964,-0.36657 -8.83853,-0.40799 -4.6789,-0.0415 -8.72855,-0.29677 -8.99922,-0.56747 -0.93163,-0.93171 -1.17757,-7.39822 -0.35042,-9.21362 0.67234,-1.47562 1.47055,-1.80658 4.23546,-1.75614 2.58123,0.0471 4.29694,-0.56805 7.07887,-2.53802 7.06728,-5.00457 7.60305,-7.72775 7.35959,-37.40649 -0.092,-11.21966 -0.14301,-21.31736 -0.11326,-22.43932 0.0298,-1.12197 0.0479,-6.99699 0.0404,-13.05561 -0.0136,-10.94647 -0.001,-11.88182 0.23676,-17.74746 0.0682,-1.68295 0.0115,-9.99809 -0.12618,-18.4781 -0.21357,-13.15721 -0.48368,-15.94583 -1.84192,-19.01637 -2.1657,-4.89592 -6.46457,-9.18771 -9.36326,-9.34785 -5.66377,-0.31288 -6.86543,-0.48202 -7.42635,-1.04532 -1.01204,-1.01633 -0.36003,-9.64089 0.78221,-10.34683 0.58012,-0.35853 5.8767,-0.62134 11.77018,-0.58403 10.05898,0.0637 10.69092,0.16159 10.31528,1.59801 -0.49883,1.90753 0.46934,1.94376 3.07653,0.11512 1.10963,-0.77827 3.11907,-1.4617 4.46543,-1.51873 7.71413,-0.32678 37.7593,-0.0704 41.0417,0.35016 0.7703,0.0987 0.9927,1.52567 0.81598,5.23553 l -0.24293,5.09985 -4.07988,0.8688 c -2.24393,0.47784 -5.11355,1.30402 -6.37693,1.83595 -1.26338,0.53192 -2.64034,0.96714 -3.05991,0.96714 -0.41957,0 -0.76285,0.55078 -0.76285,1.22396 0,0.67318 -0.31143,1.22397 -0.69205,1.22397 -0.8441,0 -3.13089,5.21341 -3.75812,8.56774 -0.36748,1.96525 -0.83312,42.38979 -0.5274,45.78661 0.0586,0.65144 8.84204,0.876 31.08878,0.79483 17.05389,-0.0622 31.00707,0.1309 31.00707,0.42918 0,1.00668 5.89433,1.68381 6.79728,0.78085 0.48008,-0.48009 2.66766,-0.87289 4.86129,-0.87289 l 3.98841,0 -0.47384,-3.0599 c -0.67298,-4.34602 -0.9493,-16.77515 -0.39456,-17.74747 0.25605,-0.44879 0.23459,-6.5074 -0.0477,-13.46359 -0.38639,-9.52097 -0.85861,-13.3342 -1.91026,-15.42491 -0.76836,-1.5275 -1.39701,-3.19389 -1.39701,-3.70309 0,-1.58416 -7.13857,-6.98322 -9.23313,-6.98322 -1.0926,0 -3.11541,-0.22577 -4.49517,-0.50172 -2.4843,-0.49686 -2.50733,-0.54896 -2.37372,-5.36944 0.0994,-3.58486 0.4887,-5.05704 1.47734,-5.58614 1.51622,-0.81146 35.87103,-0.67662 35.36706,0.13881 -0.56792,0.91892 1.59479,2.17764 4.75685,2.76854 2.52203,0.4713 3.05991,0.33716 3.05991,-0.76315 0,-2.24018 3.45779,-2.84469 15.23207,-2.66293 l 11.28123,0.17416 0.66626,4.7707 c 0.85582,6.12799 0.41033,7.30639 -2.51895,6.66301 -2.58485,-0.56772 -12.42098,3.85298 -12.42098,5.58243 0,0.55385 -0.7761,2.61336 -1.72467,4.57667 -2.08876,4.32324 -2.17359,5.40096 -2.24804,28.55991 -0.0325,10.09769 -0.11802,20.19539 -0.19013,22.43932 -0.30641,9.53528 -0.0608,20.50313 0.48898,21.83773 0.33408,0.81095 0.15321,1.96771 -0.41464,2.65192 -0.7993,0.96311 -0.79752,1.46619 0.009,2.43754 0.75182,0.90589 0.77963,1.50854 0.10699,2.31901 -0.49984,0.60227 -0.74041,1.26344 -0.5346,1.46926 0.20581,0.20581 0.41361,7.84003 0.46178,16.96494 0.0481,9.1249 0.40958,17.18448 0.80314,17.91016 1.3417,2.47389 3.13111,7.02773 3.4005,8.65384 0.14784,0.89241 0.99896,1.7565 1.89137,1.92018 0.89243,0.16368 2.17337,0.75849 2.84655,1.32178 2.00675,1.67919 6.12554,2.76922 7.51841,1.98974 1.86581,-1.04416 2.90613,0.67701 3.18664,5.27216 0.27854,4.5629 -1.12898,6.20317 -5.33742,6.22004 -1.38144,0.006 -6.32087,0.10253 -10.9765,0.21552 -7.93127,0.19248 -8.55581,0.0897 -9.90914,-1.63051 -1.73877,-2.21018 -2.63417,-2.27677 -5.48583,-0.40799 -1.90312,1.24717 -4.57337,1.44196 -21.09107,1.53852 l -18.91207,0.11057 -0.42165,-3.74084 c -0.5916,-5.24867 0.44586,-7.63678 3.1079,-7.15407 2.56557,0.46523 11.81013,-4.20368 11.81013,-5.96463 0,-0.66433 0.77794,-2.03596 1.72877,-3.04806 2.05027,-2.18241 2.90608,-9.66881 2.50674,-21.92828 -0.0585,-1.79515 -0.0724,-3.99828 -0.0308,-4.89585 0.25382,-5.48423 -0.43169,-28.97705 -0.84692,-29.02461 -0.27604,-0.0316 -17.44925,-0.12342 -38.1627,-0.20399 l -37.66088,-0.14652 -0.43911,3.67189 c -0.24152,2.01954 -0.17276,5.14064 0.15279,6.93579 0.32554,1.79515 0.36112,5.09985 0.0791,7.34378 -0.28207,2.24393 -0.40842,7.01739 -0.28079,10.60768 0.12763,3.59029 0.26138,9.09813 0.29722,12.23963 0.10796,9.4629 1.52949,15.69846 4.29747,18.85102 1.33877,1.52479 2.86052,2.77233 3.38166,2.77233 0.52114,0 2.31771,0.73438 3.99239,1.63195 1.67468,0.89757 4.05597,1.63385 5.29176,1.63618 2.06361,0.004 2.26486,0.28676 2.46718,3.46789 0.32075,5.04323 -0.28486,6.76464 -2.43589,6.92381 -4.44743,0.32911 -19.58055,0.20127 -20.18206,-0.17048 -0.36328,-0.22453 -4.57293,0.029 -9.35477,0.56333 -6.37018,0.71185 -9.32851,0.73216 -11.06696,0.076 -1.30499,-0.49258 -2.56412,-0.70418 -2.79808,-0.47023 -0.50967,0.50968 -7.82515,0.76395 -8.29886,0.28845 z m 24.74686,-26.68358 c 1.20675,-1.20674 1.18552,-1.38756 -0.26227,-2.23347 -0.86643,-0.50623 -2.16691,-1.29232 -2.88995,-1.74686 -0.72303,-0.45453 -3.20156,-1.84239 -5.50783,-3.08411 -3.96474,-2.13467 -4.19322,-2.16958 -4.19322,-0.64069 0,0.88934 0.70951,1.99671 1.57669,2.4608 0.86718,0.4641 1.78939,1.51398 2.04936,2.33306 0.46558,1.46691 4.73111,4.07027 6.83592,4.17214 0.59304,0.0287 1.66913,-0.53869 2.3913,-1.26087 z M 431.699,463.44589 c -0.0439,-3.10275 -4.99257,-7.3435 -6.64322,-5.69285 -1.45637,1.45637 0.25575,5.20619 2.90323,6.35852 3.45729,1.50479 3.76988,1.44916 3.73999,-0.66567 z"
     id="path3338"
     inkscape:connector-curvature="0" />
  <path
     style="fill:#000000"
     d="m 603.40712,562.60665 c -0.93171,-1.47707 -3.24931,-1.73974 -16.03486,-1.81731 -4.84722,-0.0295 -6.32381,-0.30416 -6.32381,-1.17663 0,-1.83864 -6.19842,-2.08675 -7.72054,-0.30905 -1.09095,1.27414 -4.27293,1.88092 -8.57868,1.63589 -12.55008,-0.71418 -16.40127,-0.74927 -16.76991,-0.1528 -0.25019,0.40483 -1.38943,0.35824 -2.61272,-0.10685 -1.30871,-0.49757 -4.93841,-0.59658 -9.15084,-0.24959 -3.83996,0.3163 -7.62433,0.52659 -8.40971,0.4673 -0.78537,-0.0593 -2.52952,-0.11654 -3.87588,-0.12722 -1.34636,-0.0107 -2.90691,-0.0232 -3.4679,-0.0278 -0.56098,-0.005 -8.30702,-0.0964 -17.21341,-0.204 -8.90639,-0.10758 -16.32904,0.0238 -16.49477,0.29198 -0.38631,0.62509 -10.18791,0.15487 -10.8645,-0.52121 -0.66593,-0.66542 -0.8972,-6.67868 -0.36896,-9.59306 0.34656,-1.91204 0.61082,-2.11941 1.62654,-1.27643 0.8222,0.68236 1.38981,0.73139 1.76255,0.15224 0.30238,-0.46984 2.38573,-1.12317 4.62967,-1.45186 4.64761,-0.68076 5.71104,-1.3674 7.5122,-4.85045 3.35493,-6.48772 3.56016,-10.11952 3.65469,-64.67277 l 0.0908,-52.41873 2.39072,1.23629 c 2.29637,1.1875 2.38015,1.16745 2.12291,-0.50795 -0.1473,-0.95934 -1.36939,-2.36058 -2.71575,-3.11387 -2.98028,-1.66748 -3.64319,-2.51096 -3.65939,-4.65617 -0.007,-0.91004 -0.65508,-2.24986 -1.44045,-2.97739 -0.78538,-0.72753 -2.20555,-2.25454 -3.15595,-3.39336 -1.71555,-2.05568 -9.70427,-5.29365 -10.67226,-4.32566 -0.27786,0.27786 -0.99797,0.0962 -1.60025,-0.4036 -1.17788,-0.97756 -1.51582,-8.57574 -0.45557,-10.24305 0.46552,-0.73207 14.06147,-0.91941 56.08581,-0.77283 52.57762,0.18338 57.76795,0.005 62.21263,-2.14297 2.15359,-1.04057 3.36206,0.1 5.94453,5.61027 0.86611,1.84805 2.06158,3.76413 2.65658,4.25795 0.59501,0.49381 1.95867,2.83725 3.03036,5.20764 1.07168,2.37039 3.13944,5.81593 4.59502,7.65675 1.45557,1.84083 3.28147,4.67851 4.05755,6.30596 1.34315,2.81662 1.341,3.03642 -0.0448,4.5677 -1.89038,2.08884 -7.84303,5.02769 -8.88245,4.3853 -0.47112,-0.29118 -0.5469,-0.0781 -0.18215,0.51205 0.44056,0.71282 0.077,0.93033 -1.23363,0.73806 -1.13958,-0.16718 -2.51582,-1.45012 -3.55847,-3.31722 -0.9351,-1.67454 -2.54954,-3.63933 -3.58764,-4.36622 -1.03809,-0.72688 -2.23588,-2.23805 -2.66174,-3.35816 -0.42587,-1.12011 -1.49209,-2.22426 -2.3694,-2.45368 -0.8773,-0.22943 -1.8156,-1.11187 -2.0851,-1.96098 -0.46672,-1.47052 -1.29062,-1.8718 -3.34133,-1.6274 -0.50675,0.0604 -1.09555,-0.55625 -1.30843,-1.3703 -0.57641,-2.2042 -5.56772,-3.35049 -16.96037,-3.89505 -5.57093,-0.26629 -10.43303,-0.67209 -10.80467,-0.90178 -0.37166,-0.22969 -1.1753,-0.003 -1.7859,0.50374 -0.61059,0.50675 -2.00703,0.69626 -3.1032,0.42114 -1.09616,-0.27512 -5.99654,-0.58422 -10.88972,-0.68688 -4.89318,-0.10266 -9.66813,-0.47267 -10.61099,-0.82224 -3.88003,-1.43852 -4.0067,-0.47119 -4.00195,30.56091 l 0.004,28.90442 2.41739,0 c 2.0028,0 2.54168,-0.43338 3.14212,-2.52701 l 0.72474,-2.527 8.68952,-0.1218 c 4.77924,-0.067 11.07482,-0.35925 13.99018,-0.64947 4.86839,-0.48463 5.55469,-0.80096 8.41576,-3.87899 4.18331,-4.50057 6.17354,-8.50379 5.80431,-11.675 -0.29183,-2.50641 -0.17594,-2.61741 3.2727,-3.13456 1.96639,-0.29488 4.6726,-0.29513 6.0138,-5.5e-4 l 2.43854,0.53559 -0.11935,26.8388 c -0.13446,30.23495 0.51123,27.76567 -7.05514,26.9807 l -4.48787,-0.46559 -0.50506,-4.13772 c -0.51701,-4.23574 -1.89445,-7.69393 -3.06456,-7.69393 -0.36096,0 -1.05087,-0.86599 -1.53312,-1.92443 -0.61713,-1.35446 -1.8039,-2.07723 -4.00687,-2.44032 -1.72151,-0.28374 -4.13979,-1.04831 -5.37395,-1.69906 -1.23417,-0.65075 -2.24413,-0.92957 -2.24438,-0.6196 -2.4e-4,0.30999 -5.72411,0.5115 -12.71971,0.44783 -12.10215,-0.11016 -12.6997,-0.0409 -12.3158,1.42714 0.22192,0.84861 0.0457,1.76402 -0.39152,2.03425 -0.43725,0.27024 -0.60036,0.99855 -0.36247,1.61847 0.23788,0.61993 0.43069,7.46758 0.42845,15.217 -0.007,24.53183 0.1654,30.36163 0.92535,31.27731 0.67211,0.80985 1.3724,3.43957 1.5282,5.7387 0.10699,1.57884 5.76143,6.82093 8.04837,7.46143 1.21657,0.34072 10.10652,0.57786 19.75543,0.52696 18.08332,-0.0954 25.89051,-1.17508 28.04769,-3.87883 0.50569,-0.63382 2.38819,-1.60555 4.18334,-2.15939 3.77037,-1.16327 8.09438,-4.1983 11.00877,-7.7271 1.11818,-1.3539 3.40854,-3.84827 5.08969,-5.54303 1.68116,-1.69477 3.27795,-3.96313 3.54843,-5.0408 0.27048,-1.07769 1.00943,-2.15806 1.64211,-2.40085 0.63267,-0.24277 1.15032,-0.82743 1.15032,-1.29922 0,-1.52165 4.11442,-7.42813 4.85539,-6.97019 0.39438,0.24374 0.88368,-0.0181 1.08735,-0.58189 0.25419,-0.70363 1.10759,-0.36969 2.72161,1.06495 1.29323,1.14949 3.36109,2.51859 4.59525,3.04241 1.23416,0.52383 2.24393,1.39514 2.24393,1.93625 0,0.96996 -2.68483,7.27551 -4.11262,9.65883 -1.57522,2.62941 -4.04713,8.42418 -4.04713,9.48745 0,0.61613 -0.36719,1.12023 -0.81598,1.12023 -0.44878,0 -0.81597,0.86748 -0.81597,1.92775 0,1.06025 -1.10157,3.31387 -2.44793,5.00805 -1.34636,1.69417 -2.44792,3.74252 -2.44792,4.55191 0,0.80937 -0.36719,1.69852 -0.81598,1.97589 -0.44879,0.27737 -0.81598,1.1601 -0.81598,1.96163 0,0.80153 -0.72719,2.11543 -1.61599,2.91978 -0.8888,0.80435 -1.85973,2.789 -2.15763,4.41034 -0.76477,4.16221 -3.14233,5.51011 -4.87477,2.76363 z m -69.68525,-4.24439 c 0,-1.73427 -3.84859,-5.19433 -4.99176,-4.48782 -1.23391,0.76261 -0.80115,1.98344 1.43903,4.05957 2.60084,2.41038 3.55273,2.52512 3.55273,0.42825 z"
     id="path3340"
     inkscape:connector-curvature="0" />
  <path
     style="fill:#000000"
     d="m 647.19153,560.90694 c -6.05025,-0.3435 -8.28649,-2.6128 -7.39248,-7.50176 0.77662,-4.24701 1.26885,-4.70888 5.30347,-4.9764 1.79515,-0.11903 4.2173,-0.68021 5.38255,-1.24706 2.63343,-1.28108 6.55998,-6.10881 7.76367,-9.54553 1.04025,-2.97006 1.14963,-112.59305 0.11338,-113.62918 -0.33659,-0.33655 -0.61198,-1.67381 -0.61198,-2.97169 0,-4.6943 -7.58303,-11.69977 -13.2991,-12.28616 -1.46977,-0.15079 -3.11782,-0.54949 -3.66234,-0.88602 -1.33245,-0.8235 -1.30754,-9.18947 0.03,-10.05511 0.56098,-0.36308 21.39895,-0.70347 46.3066,-0.75642 34.39292,-0.0731 45.77735,0.14554 47.32658,0.909 1.12196,0.55291 3.98246,1.25343 6.35666,1.5567 2.3742,0.30328 5.12812,0.86576 6.11981,1.24996 0.99171,0.38419 3.42646,1.18346 5.41057,1.77616 1.98411,0.59269 4.55444,1.91324 5.71183,2.93456 1.1574,1.02132 2.90665,2.55685 3.88723,3.4123 0.98057,0.85544 1.96647,1.37175 2.19086,1.14735 0.2244,-0.2244 2.96061,2.19576 6.08046,5.37812 3.99413,4.07417 5.82691,6.60941 6.19447,8.56869 0.28711,1.53041 1.06308,3.23161 1.72438,3.78044 0.66131,0.54883 1.20238,2.02826 1.20238,3.28761 0,1.25935 0.48298,2.77494 1.07329,3.36798 1.16048,1.16585 1.31215,13.55787 0.20294,16.58179 -0.32924,0.89757 -1.09164,2.91711 -1.69423,4.48786 -0.60258,1.57076 -1.29891,3.81022 -1.54738,4.97659 -0.40488,1.90057 -8.6423,13.16002 -8.6423,11.81287 0,-0.30472 -0.82618,0.3302 -1.83595,1.41092 -1.00977,1.08072 -3.1211,2.62528 -4.69186,3.43236 -4.25582,2.18671 -7.34378,4.64903 -7.34378,5.85589 0,0.58878 0.40647,1.07051 0.90328,1.07051 0.4968,0 0.6846,0.56986 0.41733,1.26635 -0.27865,0.72615 -0.14186,1.05368 0.32069,0.76781 0.44364,-0.27418 0.80663,-0.0544 0.80663,0.48828 0,1.45206 4.25814,9.99106 5.45604,10.94116 0.56583,0.44878 1.57501,2.38238 2.24262,4.29687 0.66763,1.91449 2.14605,4.70307 3.2854,6.19684 1.13935,1.49377 2.07155,3.0539 2.07155,3.46697 0,1.085 3.20616,6.90552 4.53676,8.23612 0.62227,0.62227 1.56653,2.58375 2.09837,4.35885 0.53182,1.7751 1.24685,3.22745 1.58894,3.22745 0.34209,0 0.86778,1.11908 1.16819,2.48684 0.30041,1.36776 1.24756,2.92484 2.10477,3.46018 0.85722,0.53534 1.55857,1.44872 1.55857,2.02974 0,1.51188 2.27174,4.77163 5.83018,8.36581 2.97767,3.00757 6.64695,4.36176 13.75323,5.07581 1.87528,0.18842 2.05639,0.56723 2.24369,4.69283 0.18329,4.03733 -0.0141,4.64489 -1.96604,6.05205 -1.58608,1.14339 -3.28722,1.50936 -6.32356,1.3604 -5.12764,-0.25155 -27.35833,-0.28912 -32.71292,-0.0552 -1.34636,0.0587 -3.3659,0.12614 -4.48786,0.14967 -1.84938,0.0388 -22.06774,-0.66415 -25.49924,-0.88651 -1.1888,-0.077 -1.42795,-0.90189 -1.42795,-4.9251 0,-5.40556 -0.6627,-4.87073 9.2175,-7.43897 3.29299,-0.85598 4.10178,-1.46754 5.09985,-3.85626 1.40014,-3.351 1.49712,-6.72113 0.32251,-11.20738 -1.0117,-3.86407 -3.32724,-8.56774 -4.21774,-8.56774 -0.34673,0 -0.63042,-0.43159 -0.63042,-0.9591 0,-1.46974 -5.7233,-12.72218 -7.01691,-13.79578 -0.62857,-0.5217 -1.14284,-1.6098 -1.14284,-2.41805 0,-0.80825 -1.19337,-3.05822 -2.65192,-4.99993 -1.45856,-1.94172 -3.15606,-4.99915 -3.77224,-6.7943 -2.15644,-6.28253 -1.3394,-6.11516 -24.58291,-5.03585 -2.91711,0.13545 -5.92588,-0.12852 -6.68615,-0.58661 -1.04315,-0.62855 -1.81459,-0.4417 -3.14414,0.76153 -1.55563,1.40783 -1.69638,2.11982 -1.20263,6.0836 1.26082,10.12158 0.48842,34.3872 -1.11155,34.92052 -1.47989,0.4933 -1.06247,5.48966 0.58304,6.97882 0.8218,0.74372 1.70624,1.14014 1.96543,0.88095 0.2592,-0.25919 0.72721,0.38259 1.04004,1.42618 0.93042,3.10388 6.76855,8.00247 9.67906,8.12139 7.43998,0.30398 7.85263,0.61738 7.85263,5.96392 0,4.7563 -1.29552,6.6473 -3.97205,5.79781 -0.88134,-0.27973 -1.8386,-0.12647 -2.12725,0.34057 -0.28865,0.46705 -0.892,0.84917 -1.34079,0.84917 -0.44879,0 -0.60826,-0.33609 -0.35439,-0.74686 0.27039,-0.4375 -0.47017,-0.49089 -1.78779,-0.12891 -1.23715,0.33988 -3.07555,0.24984 -4.08532,-0.20009 -1.24716,-0.5557 -2.44765,-0.53933 -3.74336,0.051 -1.97814,0.9013 -34.71121,0.67999 -39.12877,-0.26454 -1.25254,-0.26782 -2.7213,-0.17906 -3.2639,0.19722 -0.5426,0.37629 -2.98401,0.57075 -5.42534,0.43215 l 0,3e-5 z M 689.5376,475.5244 c 1.47378,-1.7758 1.68558,-7.02296 0.30485,-7.55279 -1.47391,-0.56559 -4.53433,2.1785 -3.99555,3.58255 0.22614,0.5893 0.047,1.07146 -0.39802,1.07146 -0.44504,0 -0.2077,0.91797 0.52745,2.03993 1.53783,2.34703 2.19471,2.50545 3.56127,0.85885 z m 22.88289,-0.0292 c 5.97296,-0.22007 11.04086,-1.00336 13.4636,-2.08092 0.89757,-0.39921 3.7353,-1.31449 6.30607,-2.03396 2.6461,-0.74055 5.30139,-2.09137 6.11982,-3.11333 0.79513,-0.99286 2.54726,-2.58372 3.89361,-3.53525 1.76165,-1.24503 3.09527,-3.47965 4.75695,-7.97078 2.1522,-5.81687 2.28332,-6.86171 1.93054,-15.38343 -0.38997,-9.41985 -1.61007,-15.37814 -3.61212,-17.63946 -5.04428,-5.69753 -6.74725,-7.4506 -6.74725,-6.94572 0,0.32188 -0.87945,-0.36369 -1.95431,-1.52349 -1.32455,-1.4292 -4.57845,-2.924 -10.09758,-4.63866 -7.93001,-2.46366 -8.48248,-2.52184 -21.09699,-2.22156 l -12.95374,0.30835 -0.25966,2.6325 c -0.14282,1.44788 0.22437,3.21901 0.81597,3.93586 0.84779,1.02726 0.85959,1.37607 0.0557,1.64664 -1.25232,0.4215 -1.35703,4.79852 -0.13289,5.55508 0.63878,0.39479 0.63878,0.79653 0,1.43531 -1.00575,1.00576 -1.20506,5.16355 -0.27509,5.73874 0.72567,0.44883 0.67735,6.38757 -0.15892,19.53004 -0.42176,6.6281 -0.33343,9.9478 0.2845,10.69236 0.95092,1.14579 0.72305,9.65183 -0.32578,12.16051 -0.3986,0.95341 -0.0836,2.03968 0.90977,3.13735 1.37953,1.52436 2.08383,1.62514 7.64674,1.09413 3.36999,-0.32169 8.51398,-0.67283 11.43109,-0.78031 z"
     id="path3342"
     inkscape:connector-curvature="0" />
  <path
     style="fill:#000000"
     d="m 878.0635,563.19889 c -0.67318,-0.43505 -2.43556,-0.79661 -3.9164,-0.80348 -1.48084,-0.007 -3.76469,-0.56698 -5.07521,-1.24468 -1.31052,-0.67769 -2.66924,-1.16824 -3.01939,-1.09011 -1.46415,0.32674 -5.64745,-1.34977 -8.97981,-3.59876 -2.09082,-1.41107 -4.21062,-2.24019 -5.1197,-2.00246 -0.88699,0.23196 -2.68516,-0.4307 -4.19851,-1.54721 -1.45588,-1.07411 -3.06028,-1.95293 -3.56534,-1.95293 -0.50505,0 -1.71645,-0.91798 -2.69199,-2.03994 -0.97553,-1.12197 -2.09517,-2.03994 -2.48809,-2.03994 -1.23022,0 -13.48393,-12.46758 -16.03759,-16.3175 -1.33883,-2.01844 -3.03562,-4.22157 -3.77065,-4.89585 -2.24127,-2.05605 -6.76688,-11.43456 -9.14428,-18.94988 -2.67099,-8.44339 -3.54201,-20.68954 -1.66244,-23.37301 1.39515,-1.99185 0.65666,-4.18972 -1.40776,-4.18972 -1.36719,0 -1.54465,-0.65068 -1.54465,-5.66367 0,-3.11502 0.34149,-5.87473 0.75887,-6.13268 0.41737,-0.25795 1.008,-2.57455 1.31249,-5.148 0.30449,-2.57345 1.24816,-6.28623 2.09704,-8.25062 0.84889,-1.96439 1.54343,-4.2098 1.54343,-4.98981 0,-0.78 0.71161,-2.32285 1.58137,-3.42856 0.86975,-1.10572 1.8284,-2.99465 2.13033,-4.19763 0.30193,-1.20299 0.87547,-2.38904 1.27454,-2.63568 0.39907,-0.24664 0.72559,-1.09763 0.72559,-1.8911 0,-3.38321 21.66855,-27.83614 24.66653,-27.83614 0.6655,0 2.85248,-1.25412 4.85995,-2.78694 3.68349,-2.81255 12.61256,-7.00476 14.91959,-7.00476 0.6867,0 1.24855,-0.29777 1.24855,-0.66172 0,-0.83676 7.36337,-2.74625 12.22052,-3.16905 10.98367,-0.9561 28.78588,-0.25283 31.59013,1.24796 0.91213,0.48816 2.90562,1.02501 4.42998,1.19299 2.85408,0.31451 5.91594,1.62872 8.06167,3.46021 0.67318,0.5746 2.13958,1.16999 3.25866,1.32311 1.53273,0.20971 2.13929,0.8823 2.4587,2.72631 0.39144,2.25993 0.68834,2.45017 3.86595,2.47715 2.66978,0.0227 4.04028,0.5809 6.10904,2.48837 1.46691,1.35253 3.67687,2.96199 4.91103,3.57656 1.23417,0.61457 2.24394,1.40409 2.24394,1.75449 0,0.3504 2.5716,3.31766 5.71467,6.59391 3.14307,3.27626 5.94729,6.69121 6.2316,7.58879 0.28432,0.89757 1.58468,3.19082 2.8897,5.09611 1.30502,1.90528 2.29837,3.92482 2.20744,4.48786 -0.0909,0.56304 0.0762,1.66629 0.37136,2.45166 0.29518,0.78538 0.71768,2.00202 0.93891,2.70364 0.22122,0.70163 0.74664,1.06283 1.16758,0.80267 0.42095,-0.26016 1.06376,-0.008 1.42848,0.56026 1.13829,1.77369 3.5049,9.90778 3.5175,12.08975 0.007,1.1444 0.34774,2.42956 0.75808,2.85591 0.41033,0.42635 0.9975,4.81426 1.3048,9.75091 0.90573,14.54952 0.94012,14.03557 -1.98986,29.73867 -0.45599,2.4439 -1.9162,7.03376 -3.24488,10.19969 -1.32869,3.16595 -2.62849,6.30704 -2.88842,6.98022 -0.25994,0.67318 -1.84573,3.67321 -3.52397,6.66673 -3.38516,6.03818 -17.44264,21.35806 -20.43757,22.27293 -1.03548,0.3163 -2.22279,1.46963 -2.63845,2.56293 -0.48771,1.28275 -1.62232,2.16113 -3.19886,2.47643 -1.3437,0.26875 -2.86348,0.99516 -3.37729,1.61425 -0.5138,0.6191 -1.39504,1.12563 -1.95832,1.12563 -0.56328,0 -1.49512,0.56749 -2.07076,1.2611 -0.57564,0.6936 -1.55764,1.06499 -2.18223,0.82532 -0.62459,-0.23968 -0.91128,-0.0728 -0.63709,0.37085 0.27419,0.44364 -0.21084,0.80663 -1.07785,0.80663 -0.86702,0 -3.18362,0.6951 -5.14801,1.54466 -5.6901,2.46087 -7.56054,2.90187 -6.79745,1.60266 0.35774,-0.60906 -0.0827,-0.46618 -0.97864,0.31751 -2.42918,2.1247 -25.36978,3.96394 -28.02656,2.247 z m 15.35007,-20.86268 c 2.55274,-1.15238 5.7429,-2.68519 7.08926,-3.40624 3.7031,-1.98321 11.01566,-8.41787 11.01566,-9.69318 0,-0.61866 0.35774,-1.12484 0.79499,-1.12484 0.43724,0 1.9978,-1.29829 3.4679,-2.88508 1.47009,-1.58679 5.50054,-5.83893 8.95654,-9.44921 5.5455,-5.79306 6.34171,-7.01173 6.778,-10.37452 0.2719,-2.09572 1.01929,-4.77644 1.66086,-5.95715 0.69825,-1.28503 1.3025,-5.37922 1.50535,-10.19969 0.38892,-9.24264 1.86621,-29.92593 2.90639,-40.69196 0.92136,-9.53634 0.55806,-11.24913 -2.67639,-12.61787 -3.10259,-1.31293 -3.11553,-1.3151 -12.37797,-2.07759 -9.16751,-0.75467 -10.31336,-0.89635 -11.83164,-1.46301 -1.86857,-0.69739 -15.02709,-1.61429 -23.2553,-1.62045 -6.41437,-0.005 -21.11435,1.13831 -29.7831,2.31602 -1.57076,0.21339 -4.06412,0.37085 -5.54081,0.34989 -1.47668,-0.0209 -3.12702,0.23516 -3.66741,0.56914 -0.54039,0.33398 -2.29137,0.64007 -3.89107,0.68021 -1.59969,0.0401 -4.05696,0.54867 -5.46061,1.13008 l -2.55208,1.0571 0.019,7.06221 c 0.0104,3.88421 0.30978,7.42939 0.66525,7.87817 0.55207,0.69701 1.56422,10.00428 1.81909,16.7275 0.44954,11.85868 1.66206,28.53327 2.43274,33.45499 0.92143,5.88447 1.12539,6.27671 5.30376,10.19969 2.39002,2.24394 4.34524,4.47486 4.34494,4.95762 -6.8e-4,1.08713 3.17545,4.00796 5.09462,4.6851 0.78281,0.27619 2.09667,1.60945 2.91969,2.96281 2.75271,4.52646 14.06615,13.81725 18.43601,15.13996 2.20635,0.66784 4.59307,1.7288 5.30384,2.35768 1.12725,0.99738 2.95627,1.70997 5.2187,2.03321 0.36438,0.0521 2.75111,-0.84821 5.30384,-2.00059 z"
     id="path3344"
     inkscape:connector-curvature="0" />
  <path
     style="fill:#000000"
     d="m 884.99929,492.20903 c -1.31052,-2.24394 -2.71211,-4.07988 -3.11463,-4.07988 -0.40252,0 -0.52768,-0.53208 -0.27812,-1.18241 0.3186,-0.83027 0.0617,-1.03198 -0.86254,-0.67731 -0.78816,0.30245 -1.10972,0.17092 -0.80148,-0.32782 0.28505,-0.46123 -1.64794,-1.88861 -4.33161,-3.19858 -2.66551,-1.30111 -4.85647,-2.84528 -4.86879,-3.4315 -0.0123,-0.58622 1.65178,-1.80642 3.69799,-2.71155 2.04621,-0.90514 3.91607,-2.15568 4.15525,-2.77897 0.23919,-0.6233 1.10946,-1.34737 1.93395,-1.60905 0.82448,-0.26169 2.58424,-2.68317 3.91058,-5.38108 1.32633,-2.69791 2.63581,-4.97631 2.90996,-5.06311 0.27414,-0.0868 1.45226,1.67812 2.61803,3.92206 2.23258,4.29739 5.00915,7.0756 10.75031,10.75663 1.91359,1.22693 3.35585,2.61332 3.20502,3.08085 -0.15083,0.46754 -1.55653,1.46345 -3.12379,2.21313 -3.17484,1.51865 -8.02767,7.02677 -10.19496,11.57161 -0.78076,1.63727 -1.8252,2.97685 -2.32097,2.97685 -0.49578,0 -1.97367,-1.83594 -3.2842,-4.07987 z"
     id="path3346"
     inkscape:connector-curvature="0" />
  <path
     style="fill:#000000"
     d="m 175.50866,288.55406 c 0,-0.63518 0.50583,-1.15486 1.12405,-1.15486 2.77191,0 3.20488,-2.30734 3.36689,-17.94209 0.1276,-12.3139 -0.0627,-15.51773 -0.94155,-15.85499 -0.6058,-0.23247 -1.10146,-0.0439 -1.10146,0.41898 0,0.46291 -0.64258,0.74408 -1.42796,0.62481 -2.23577,-0.33952 -5.8586,0.83908 -8.43557,2.74432 -1.29581,0.95804 -2.52194,1.57598 -2.72472,1.3732 -0.20278,-0.20278 0.43529,-2.10415 1.41792,-4.22527 l 1.78661,-3.85658 6.77996,-6.4e-4 c 4.92742,-4.6e-4 6.62045,0.25744 6.19621,0.94387 -0.41925,0.67837 -0.0305,0.75616 1.3798,0.27608 1.07995,-0.36764 4.91393,-0.81741 8.51995,-0.99949 l 6.55641,-0.33106 2.15557,4.1834 c 1.71378,3.32601 1.9225,4.27283 1.01839,4.61977 -0.62544,0.24001 -1.97551,-0.51747 -3.00015,-1.68327 -1.2924,-1.47047 -3.21544,-2.36991 -6.27891,-2.93677 -2.42877,-0.44941 -4.57081,-0.66226 -4.76008,-0.47298 -0.50546,0.50545 -0.22191,30.50027 0.30121,31.86349 0.24477,0.63789 1.21142,1.27306 2.14809,1.4115 0.93667,0.13844 1.82391,0.61983 1.97164,1.06975 0.16561,0.50441 -2.86018,0.86898 -7.89185,0.95087 -6.55529,0.10669 -8.16045,-0.0943 -8.16045,-1.02204 z"
     id="path3348"
     inkscape:connector-curvature="0" />
  <path
     style="fill:#000000"
     d="m 205.36428,289.23966 c -0.21451,-0.21451 0.6912,-1.29979 2.01267,-2.41174 l 2.40268,-2.02172 0,-12.53669 c 0,-12.58425 -0.73523,-16.69336 -2.98689,-16.69336 -2.67799,0 -0.60415,-2.25365 4.2351,-4.60232 l 5.27959,-2.56238 0,9.29418 c 0,9.07701 0.4239,10.50903 2.4044,8.12267 1.35286,-1.6301 5.18037,-2.33298 9.09897,-1.67094 4.97636,0.84075 6.44118,3.77076 6.44504,12.89179 0.003,7.42644 0.81884,10.35005 2.88768,10.35005 0.65739,0 1.19525,0.32551 1.19525,0.72336 0,1.09182 -5.09084,1.64074 -6.8194,0.7353 -1.0178,-0.53314 -1.80838,-0.50106 -2.40713,0.0977 -1.36765,1.36766 -5.46103,1.11851 -5.46103,-0.33239 0,-0.67318 0.52604,-1.22396 1.16898,-1.22396 1.77239,0 2.43475,-2.99589 2.25152,-10.18376 -0.18756,-7.358 -0.56409,-9.06831 -2.12859,-9.66866 -1.62089,-0.62199 -7.13788,0.80201 -7.92658,2.04594 -0.94818,1.49546 -0.88383,13.16079 0.0867,15.71342 0.49258,1.29558 1.42526,2.09306 2.44793,2.09306 0.90868,0 1.65215,0.49278 1.65215,1.09506 0,0.83758 -1.81637,1.09982 -7.7245,1.11524 -4.24847,0.0111 -7.9,-0.15534 -8.11451,-0.36984 z"
     id="path3350"
     inkscape:connector-curvature="0" />
  <path
     style="fill:#000000"
     d="m 247.56519,288.65024 c -4.63324,-2.01497 -7.58322,-10.0923 -5.87301,-16.08082 1.23943,-4.33998 2.79819,-6.27891 6.20809,-7.72217 6.34183,-2.68421 12.11611,-0.59452 14.56722,5.27182 1.14336,2.73643 1.12777,3.05078 -0.19933,4.02118 -0.7918,0.57898 -2.81142,1.42208 -4.48804,1.87354 -1.67662,0.45147 -3.57135,1.3438 -4.21051,1.98297 -0.63917,0.63916 -2.12445,1.40364 -3.30063,1.69884 -2.85386,0.71628 -2.69541,1.94784 0.6703,5.21001 2.46183,2.3861 3.18188,2.66186 5.82884,2.23232 1.66101,-0.26955 3.81721,-1.239 4.79155,-2.15435 1.7629,-1.65615 3.7309,-2.21902 3.67914,-1.05228 -0.0569,1.28356 -3.16406,4.29663 -5.24768,5.08882 -3.05269,1.16063 -9.33681,0.97357 -12.42594,-0.36988 z m 4.90779,-13.15939 c 4.05326,-1.38109 4.53836,-2.40827 3.02147,-6.39798 -0.639,-1.68071 -1.34272,-2.09306 -3.57198,-2.09306 -3.4654,0 -4.69493,1.44092 -5.22236,6.12026 -0.47802,4.24102 -0.13247,4.38293 5.77287,2.37078 z"
     id="path3352"
     inkscape:connector-curvature="0" />
  <path
     style="fill:#000000"
     d="m 130.14368,352.86951 c -1.38075,-1.31953 -2.75665,-2.91237 -3.05754,-3.53964 -0.3009,-0.62728 -1.44711,-2.60926 -2.54713,-4.40441 -1.81189,-2.95685 -1.95476,-3.84801 -1.51866,-9.47296 0.26476,-3.41499 0.1575,-6.40118 -0.23835,-6.63599 -0.39585,-0.23481 -1.5459,-0.11469 -2.55567,0.26694 -1.29559,0.48966 -1.83743,1.36206 -1.84097,2.96411 l -0.005,2.27022 -1.21461,-2.32886 c -0.66803,-1.28087 -0.97623,-2.71456 -0.68487,-3.18598 0.30947,-0.50074 0.13804,-0.61504 -0.41232,-0.2749 -0.60858,0.37614 -0.94202,-0.0874 -0.94202,-1.3096 0,-1.04049 -0.73438,-2.35044 -1.63195,-2.91099 -0.89757,-0.56054 -1.63195,-1.7653 -1.63195,-2.67725 0,-1.58238 -2.99609,-6.59548 -4.28387,-7.16782 -0.33659,-0.1496 -0.63882,-0.88398 -0.67162,-1.63195 -0.0328,-0.74798 -0.74312,-2.46153 -1.57848,-3.80789 -0.83536,-1.34636 -2.33384,-4.10027 -3.32996,-6.11981 -0.99612,-2.01954 -2.25444,-4.22267 -2.796269,-4.89585 -0.541827,-0.67318 -2.383356,-3.9178 -4.092286,-7.21027 -2.324389,-4.47822 -2.849413,-6.14559 -2.084081,-6.61859 0.738449,-0.45638 0.588121,-0.74603 -0.540364,-1.04114 -1.027362,-0.26866 -1.926717,-1.70637 -2.62295,-4.19307 -0.582737,-2.08134 -1.399637,-3.78425 -1.815334,-3.78425 -0.415698,0 -1.452889,-1.57585 -2.304871,-3.50189 -0.851981,-1.92606 -2.483236,-4.58818 -3.62501,-5.91582 -1.141774,-1.32766 -2.076401,-2.98633 -2.076949,-3.68593 -5.49e-4,-0.6996 -0.510933,-1.96938 -1.134188,-2.82173 -0.623256,-0.85235 -0.931656,-2.1159 -0.685334,-2.80788 0.640658,-1.79977 3.178799,-4.11374 3.81473,-3.47781 0.295886,0.29588 0.301588,-0.078 0.01267,-0.83095 -0.39306,-1.02429 0.05828,-1.51436 1.792819,-1.94665 1.274967,-0.31775 3.419688,-1.24653 4.766048,-2.06395 2.211896,-1.34292 5.890451,-3.11519 6.935791,-3.34155 0.224393,-0.0486 0.89265,-0.57301 1.485016,-1.16537 1.471858,-1.47186 4.736432,-2.2032 6.468922,-1.44919 1.36091,0.59229 1.361,0.63872 0.002,0.9638 -1.0157,0.24294 -1.42795,1.14878 -1.42795,3.13762 0,2.79219 0.005,2.79609 3.88068,2.79609 3.54779,0 3.97593,0.21516 4.99088,2.50809 0.61061,1.37945 2.53619,4.1557 4.27907,6.16944 1.74288,2.01375 3.17406,3.91442 3.18039,4.22371 0.006,0.3093 1.3833,2.10083 3.05991,3.98119 1.67661,1.88035 4.14996,4.81077 5.49632,6.51204 2.93419,3.70766 9.98319,11.34868 12.1887,13.21238 0.86957,0.73481 3.43077,3.08016 5.69156,5.21189 2.26079,2.13174 4.37612,3.87588 4.70074,3.87588 0.32462,0 1.49888,0.82618 2.60946,1.83595 1.11059,1.00977 3.03373,2.57032 4.27365,3.46789 1.23993,0.89758 3.2489,2.45813 4.46439,3.4679 1.2155,1.00977 2.56646,1.83594 3.00213,1.83594 0.43568,0 1.66783,0.68387 2.73812,1.51971 1.07029,0.83584 2.86396,1.80649 3.98593,2.157 1.12196,0.35051 2.50007,1.29089 3.06244,2.08974 0.56237,0.79884 2.39832,1.89509 4.07987,2.4361 1.68156,0.54101 3.97535,1.46222 5.09732,2.04713 3.08648,1.60906 13.09125,5.03409 16.31951,5.58682 1.57075,0.26893 3.95748,1.00312 5.30384,1.63152 3.1241,1.45815 10.61675,3.00731 14.16547,2.9288 2.60773,-0.0577 2.67222,0.009 1.31868,1.36248 -1.96787,1.96787 -0.28313,2.31332 3.00057,0.61525 1.99771,-1.03306 4.25437,-1.32349 8.82705,-1.13604 8.36246,0.3428 9.22413,0.30889 17.15889,-0.67535 8.56841,-1.06285 12.74296,-2.01201 15.91152,-3.61779 1.34636,-0.68231 4.19207,-2.10435 6.32381,-3.1601 2.13173,-1.05575 3.87588,-2.31553 3.87588,-2.79952 0,-0.48399 1.44979,-1.51962 3.22175,-2.30141 1.77196,-0.78178 3.46045,-2.17351 3.7522,-3.09272 0.40512,-1.27644 1.02712,-1.57634 2.63281,-1.26939 1.48642,0.28414 2.53071,-0.11084 3.56443,-1.34818 1.67733,-2.00773 1.95399,-4.32413 0.57152,-4.78495 -1.16152,-0.38717 -0.34278,-4.12868 1.25257,-5.72402 1.37117,-1.37119 3.00414,-12.82979 2.53713,-17.8032 -0.73411,-7.81783 -1.43267,-11.61734 -2.51857,-13.69861 -0.62271,-1.19351 -1.13446,-2.79093 -1.13723,-3.54982 -0.002,-0.75889 -0.37221,-1.60674 -0.821,-1.88411 -0.44879,-0.27736 -0.81598,-1.06257 -0.81598,-1.7449 0,-1.86797 -14.89767,-16.33949 -18.27205,-17.74941 -1.61879,-0.67638 -2.94327,-1.61571 -2.94327,-2.0874 0,-0.47169 -0.61519,-0.85761 -1.3671,-0.85761 -0.75189,0 -3.9648,-1.25911 -7.13978,-2.79802 -5.03276,-2.43938 -11.86537,-4.75158 -20.47945,-6.93041 -1.35691,-0.34322 -3.26052,-1.04865 -4.23022,-1.56762 -0.96972,-0.51896 -2.66038,-0.94358 -3.75704,-0.94358 -1.09666,0 -3.31214,-0.55078 -4.92329,-1.22396 -1.61115,-0.67318 -3.95092,-1.22534 -5.1995,-1.22702 -1.24858,-0.002 -3.43801,-0.71515 -4.8654,-1.5855 -1.42741,-0.87036 -3.26335,-1.57805 -4.07988,-1.57266 -0.81654,0.006 -4.05493,-0.78102 -7.19644,-1.74759 -3.14151,-0.96656 -6.95009,-2.0649 -8.46351,-2.44074 -1.51343,-0.37584 -3.14742,-1.07908 -3.63109,-1.56275 -0.48368,-0.48368 -1.54035,-0.87941 -2.34816,-0.87941 -0.80782,0 -1.46876,-0.30855 -1.46876,-0.68566 0,-0.3771 -2.11134,-1.16031 -4.69186,-1.74045 -2.58052,-0.58014 -6.7114,-2.06013 -9.17972,-3.28886 -2.46833,-1.22874 -5.40584,-2.51558 -6.52781,-2.85966 -1.12196,-0.34407 -2.91563,-1.30946 -3.98592,-2.1453 -1.07029,-0.83583 -2.47348,-1.5197 -3.11819,-1.5197 -0.64472,0 -1.71329,-0.54109 -2.37461,-1.2024 -0.66132,-0.66132 -2.64247,-1.59017 -4.40256,-2.06412 -1.76009,-0.47394 -3.48772,-1.3621 -3.83917,-1.97368 -0.35144,-0.61158 -2.02111,-1.68569 -3.71037,-2.38691 -1.68926,-0.70121 -3.28829,-1.84019 -3.5534,-2.53105 -0.26511,-0.69087 -0.80765,-1.05487 -1.20565,-0.8089 -0.398,0.24598 -1.66138,-0.4905 -2.8075,-1.63663 -1.14613,-1.14613 -2.62949,-2.08387 -3.29635,-2.08387 -0.66687,0 -1.42384,-0.55078 -1.68217,-1.22396 -0.25832,-0.67318 -0.76457,-1.22397 -1.125,-1.22397 -0.81427,0 -8.79025,-7.88669 -11.00172,-10.87855 -0.89757,-1.21432 -2.7543,-3.41964 -4.12606,-4.90072 -2.91123,-3.14321 -6.07363,-8.06444 -6.07363,-9.45158 0,-0.53182 -0.90173,-2.29397 -2.00385,-3.91587 -1.10212,-1.62192 -1.81483,-3.25479 -1.5838,-3.6286 0.23104,-0.37382 0.0609,-0.67967 -0.37799,-0.67967 -0.81863,0 -2.04766,-4.32883 -3.46951,-12.22016 -1.00065,-5.55362 -1.37952,-20.42208 -0.53371,-20.94482 0.34379,-0.21248 0.62508,-1.72934 0.62508,-3.3708 0,-3.85045 2.33869,-9.97482 3.80904,-9.97482 1.60932,0 2.65108,-3.29876 1.77544,-5.621951 -0.53429,-1.417536 -0.39443,-2.326393 0.51214,-3.328152 0.68594,-0.757949 1.24716,-2.009657 1.24716,-2.781572 0,-0.771915 3.6754,-5.060934 8.16755,-9.531152 l 8.16756,-8.127671 3.0521,1.320362 c 4.54132,1.964599 5.90803,2.249766 5.90803,1.23272 0,-0.504098 -0.89313,-1.693103 -1.98473,-2.642235 l -1.98472,-1.725695 2.18872,-1.80563 c 2.22946,-1.839241 7.21271,-4.523893 8.39726,-4.523893 0.35968,0 2.96539,-1.075633 5.79046,-2.390297 5.5765,-2.595066 19.09239,-5.908012 27.71989,-6.794558 0.75243,-0.07732 1.18974,-0.429084 0.97181,-0.781702 -0.21792,-0.352618 3.20553,-0.68689 7.60768,-0.742828 4.40216,-0.05594 11.12503,-0.233187 14.93971,-0.393887 3.81469,-0.1607 7.48658,-0.08936 8.15975,0.158534 0.67318,0.247894 3.45254,0.560302 6.17634,0.69424 2.7238,0.133937 5.72897,0.659148 6.67815,1.167133 0.94918,0.507986 2.80665,0.923611 4.1277,0.923611 1.32106,0 3.72013,0.550783 5.33128,1.223963 1.61115,0.67318 4.13452,1.2255 5.60748,1.227378 1.47298,0.0019 4.3742,0.864005 6.44717,1.915836 2.07297,1.051832 5.06502,2.122728 6.64898,2.379771 2.40012,0.389485 9.33912,3.39758 14.46923,6.272488 3.09213,1.732828 8.08945,3.431652 9.33995,3.17509 0.75866,-0.155653 1.97809,-1.272974 2.70982,-2.482936 1.1872,-1.963087 1.21658,-3.004337 0.27292,-9.671667 -0.75197,-5.312984 -0.80493,-7.724316 -0.1833,-8.345948 0.94604,-0.946032 14.4387,-1.067969 19.70587,-0.178088 3.08113,0.520555 5.68961,3.050886 5.68961,5.519155 0,0.954017 2.72246,7.215902 4.95527,11.397511 0.41611,0.779287 0.75793,2.248043 0.75961,3.263902 0.002,1.015859 0.80668,3.132178 1.78888,4.702931 0.98221,1.570752 1.69765,3.465965 1.58986,4.211583 -0.10779,0.745619 0.18878,1.593464 0.65904,1.884101 0.47027,0.290638 0.85502,1.109123 0.85502,1.818858 0,0.709734 0.76958,2.982995 1.71018,5.05169 4.05965,8.928565 4.71753,10.500625 6.01314,14.368945 0.75155,2.24393 1.57911,4.99785 1.83903,6.11981 0.25991,1.12197 0.722,2.22354 1.02686,2.44793 0.85697,0.63077 3.28238,5.83225 3.28238,7.03933 0,0.59222 0.68825,2.64714 1.52946,4.56649 2.69882,6.15778 3.29453,8.65523 2.26373,9.49032 -3.02417,2.45001 -18.15742,9.49563 -19.80797,9.22205 -1.76411,-0.29241 -6.94237,-5.81704 -6.35029,-6.77505 0.34492,-0.55811 0.2313,-0.72883 -0.27629,-0.41513 -0.8329,0.51476 -4.75163,-4.95474 -4.4396,-6.19652 0.0846,-0.33659 -0.13617,-0.52018 -0.49053,-0.40799 -0.9332,0.29547 -7.51546,-5.49032 -7.51546,-6.60607 0,-0.51794 -0.55078,-0.9417 -1.22396,-0.9417 -0.67318,0 -1.22396,-0.48029 -1.22396,-1.06731 0,-1.03447 -8.64838,-9.19556 -11.32377,-10.68574 -0.72812,-0.40555 -2.85133,-2.0579 -4.71826,-3.67188 -6.31182,-5.45665 -11.27358,-8.77258 -16.05138,-10.727068 -2.61703,-1.070567 -5.10847,-2.600917 -5.53654,-3.400777 -0.42808,-0.799859 -1.49977,-1.45429 -2.38156,-1.45429 -0.88178,0 -1.60324,-0.367189 -1.60324,-0.815976 0,-0.448786 -0.71271,-0.815975 -1.58379,-0.815975 -0.87109,0 -1.81073,-0.367189 -2.0881,-0.815975 -0.27737,-0.448787 -1.53924,-0.815976 -2.80416,-0.815976 -1.26492,0 -2.75697,-0.550783 -3.31566,-1.223963 -0.55869,-0.67318 -1.53454,-1.223963 -2.16856,-1.223963 -0.63401,0 -1.96601,-0.500515 -2.95999,-1.112257 -0.99398,-0.611741 -4.92834,-1.524518 -8.74303,-2.028394 -3.81468,-0.503876 -8.22095,-1.124075 -9.7917,-1.378221 -5.55928,-0.899484 -11.74074,-1.245436 -13.00184,-0.727662 -0.70275,0.288534 -2.56289,0.619806 -4.13365,0.736162 -5.89073,0.436362 -14.05446,2.114791 -16.57047,3.406817 -1.43272,0.735738 -3.68443,2.38659 -5.00379,3.668557 -1.31935,1.281968 -2.8753,2.33085 -3.45765,2.33085 -0.58235,0 -1.9419,1.376959 -3.02122,3.059908 -1.07931,1.68295 -2.68149,3.811935 -3.5604,4.731083 -2.32536,2.43182 -3.51668,8.5586 -3.56226,18.32022 -0.0376,8.06006 0.78766,12.02912 2.99689,14.41293 1.0933,1.17969 1.98781,2.59589 1.98781,3.14713 0,0.83159 3.84552,5.67916 6.28643,7.92454 3.76998,3.46796 6.61028,5.61821 7.97558,6.0379 0.90723,0.2789 3.30186,1.69018 5.3214,3.13619 2.01954,1.44601 5.6453,3.32444 8.05723,4.17429 2.41193,0.84984 4.56256,2.007 4.77916,2.57146 0.2166,0.56446 0.99711,1.03662 1.73448,1.04926 2.58613,0.0443 9.9786,2.89938 9.3349,3.60525 -0.35776,0.39231 -0.20641,0.45839 0.33631,0.14684 0.54273,-0.31154 1.64429,-0.21785 2.44792,0.20822 1.87108,0.99199 12.55224,4.16828 14.13179,4.20242 1.57638,0.0341 4.05686,1.94412 4.05686,3.12391 0,0.51151 0.55078,0.93002 1.22396,0.93002 0.67318,0 1.22397,0.36719 1.22397,0.81597 0,0.44879 0.73438,0.81598 1.63195,0.81598 0.90664,0 1.63195,0.54398 1.63195,1.22396 0,0.67318 0.55078,1.22396 1.22396,1.22396 0.67318,0 1.22397,-0.32264 1.22397,-0.71698 0,-0.39433 1.11453,-1.17863 2.47674,-1.74288 2.06916,-0.85708 2.97555,-0.81342 5.50784,0.26526 1.66709,0.71015 4.31624,1.51583 5.887,1.79041 2.85813,0.49962 3.53842,0.73714 9.09905,3.17691 1.63857,0.71894 3.26164,1.30716 3.6068,1.30716 1.41619,0 12.23201,5.33649 12.85925,6.3447 0.50242,0.80759 0.95876,0.85644 1.76329,0.18873 0.74989,-0.62235 1.24894,-0.63633 1.61425,-0.0453 0.29083,0.47058 1.29268,0.8556 2.22633,0.8556 0.93365,0 3.48781,1.10157 5.67592,2.44792 2.18812,1.34636 4.62202,2.44793 5.40867,2.44793 0.78665,0 2.70888,0.86538 4.27162,1.92306 1.56273,1.05767 5.22806,3.15466 8.14517,4.65995 2.91711,1.50531 5.81888,3.24008 6.44838,3.85506 0.6295,0.61499 3.0994,2.5623 5.48866,4.32735 5.36209,3.96121 12.20535,10.93168 13.94254,14.20171 0.71525,1.34636 1.97794,3.45769 2.80598,4.69186 0.82804,1.23416 2.17377,3.2537 2.99051,4.48786 0.81674,1.23416 2.3346,4.44707 3.37304,7.13979 1.03843,2.69272 2.18306,5.63023 2.54361,6.5278 1.26492,3.14891 1.56475,4.9704 1.71483,10.41768 0.0833,3.02162 0.45716,5.49384 0.83089,5.49384 0.65397,0 0.18289,6.46126 -0.52251,7.16666 -0.1897,0.18971 0.002,1.25595 0.4248,2.36943 0.42335,1.11348 0.4917,2.45269 0.15189,2.97601 -0.33979,0.52332 -1.08571,3.70541 -1.65758,7.07131 -0.57187,3.3659 -1.25462,7.31318 -1.51723,8.77174 -0.28786,1.59883 -0.96272,2.65192 -1.69945,2.65192 -0.74563,0 -1.04068,-0.47249 -0.7569,-1.21203 0.38903,-1.01377 0.2031,-1.0484 -1.13666,-0.2117 -1.92522,1.20232 -2.03451,2.50636 -0.35113,4.18974 1.01593,1.01593 1.06859,1.60109 0.28059,3.11819 -1.96475,3.78263 -2.34719,4.72466 -2.34719,5.78146 0,0.59408 -1.03019,2.15961 -2.28931,3.47897 -1.25912,1.31936 -3.29414,4.14299 -4.52226,6.27472 -1.22812,2.13174 -2.55472,3.87589 -2.94798,3.87589 -0.39327,0 -1.47283,1.22613 -2.39902,2.72474 -0.92619,1.49861 -2.37798,3.05916 -3.2262,3.4679 -1.40705,0.67802 -4.02633,2.7074 -11.05258,8.56343 -2.41298,2.0111 -6.00973,4.15933 -8.6496,5.16613 -1.40421,0.53554 -3.61283,1.89179 -6.42448,3.94508 -1.07544,0.78537 -2.98573,1.42795 -4.24508,1.42795 -1.25935,0 -2.5105,0.35721 -2.78033,0.79381 -0.26983,0.43659 -2.03564,1.18629 -3.92403,1.666 -1.8884,0.47971 -4.16783,1.21377 -5.0654,1.63125 -8.899,4.13906 -40.41537,6.79299 -59.15857,4.98162 -4.26328,-0.41201 -8.3022,-0.78225 -8.97538,-0.82275 -3.31433,-0.19939 -12.41486,-1.73411 -13.21492,-2.22857 -0.49978,-0.30888 -1.67816,-0.6716 -2.61862,-0.80603 -0.94046,-0.13443 -3.36228,-0.84916 -5.38182,-1.5883 -2.01954,-0.73913 -5.59943,-1.85288 -7.9553,-2.47497 -2.35588,-0.62209 -6.84478,-2.42096 -9.97533,-3.99749 -3.88321,-1.95555 -6.80038,-2.86319 -9.18019,-2.85629 -3.10635,0.009 -3.69751,0.333 -5.39954,2.9594 -1.35025,2.08356 -1.75869,3.57761 -1.39144,5.08975 1.29881,5.34774 1.91392,8.6917 1.64815,8.96003 -0.15893,0.1605 -5.91385,0.46817 -12.7887,0.68373 l -12.49972,0.39193 -2.51047,-2.39914 0,5e-5 z M 330.3808,230.11772 c 1.26349,-1.26349 1.27213,-4.73266 0.0118,-4.73266 -1.34546,0 -4.74445,3.31707 -4.74445,4.6301 0,1.34938 3.41191,1.42331 4.73266,0.10256 l -4e-5,0 z m -209.99252,-65.4124 c 2.33302,-2.16217 2.70055,-3.78232 0.85802,-3.78232 -1.58158,0 -4.48787,2.90629 -4.48787,4.48787 0,1.75339 1.23579,1.51319 3.62985,-0.70555 z m 48.09747,-2.50172 c 0.64017,-2.55068 -0.73384,-6.17645 -2.34061,-6.17645 -0.949,0 -1.24416,0.96787 -1.24416,4.07988 0,3.45796 0.23529,4.07988 1.54349,4.07988 0.95413,0 1.73357,-0.75731 2.04128,-1.98331 z m 90.66039,-84.102101 c 0,-1.903942 -0.36265,-2.447926 -1.63195,-2.447926 -1.25293,0 -1.69244,0.63081 -1.89242,2.716074 -0.23329,2.432504 -0.0629,2.688078 1.63195,2.447926 1.49912,-0.212419 1.89242,-0.776898 1.89242,-2.716074 z"
     id="path3354"
     inkscape:connector-curvature="0" />
  <path
     style="fill:#000000"
     d="m 352.87949,350.11451 c -0.83419,-0.92172 -1.13382,-2.69856 -0.96188,-5.70406 l 0.24973,-4.36532 4.10736,-0.58762 c 5.60453,-0.80183 9.94785,-2.73939 10.5758,-4.71788 0.2873,-0.90519 0.825,-1.64581 1.19489,-1.64581 0.72577,0 1.72377,-3.01054 2.29923,-6.93579 0.19739,-1.34636 0.45687,-11.62765 0.57664,-22.84731 0.11976,-11.21967 0.25411,-23.70409 0.29855,-27.74317 0.21345,-19.40128 -0.53508,-62.24356 -1.11915,-64.05407 -1.45762,-4.51838 -6.09178,-9.71707 -8.70544,-9.76592 -0.75889,-0.0142 -1.61848,-0.41199 -1.91021,-0.88401 -0.29173,-0.47203 -1.50676,-0.78384 -2.70008,-0.69293 -5.11527,0.38972 -5.12049,0.38372 -4.85886,-5.58863 l 0.24127,-5.50783 16.31951,-0.0966 c 8.97573,-0.0531 16.93981,0.22328 17.69795,0.61419 0.83379,0.42992 1.57823,0.38748 1.8841,-0.10743 0.27811,-0.45 1.59848,-0.81818 2.93414,-0.81818 2.14811,0 2.33096,0.18221 1.5838,1.57831 -0.46458,0.86807 -0.84469,1.78604 -0.84469,2.03994 0,1.06497 2.07163,0.33311 3.8902,-1.37432 1.85104,-1.73793 2.63798,-1.83841 14.74015,-1.88209 8.10864,-0.0293 13.00397,0.26918 13.38419,0.81598 0.85635,1.23151 0.76253,5.69661 -0.1713,8.15278 -0.65398,1.72009 -1.32747,2.09306 -3.77957,2.09306 -4.56737,0 -11.92112,4.87573 -13.53752,8.97572 -0.77298,1.96066 -1.28611,13.30713 -1.72724,38.19315 -0.14153,7.98384 0.0875,11.91828 0.72443,12.44692 1.14329,0.94884 11.68815,0.74606 12.29537,-0.23644 0.24079,-0.3896 0.90111,-0.32385 1.4674,0.14612 1.23876,1.02809 7.81632,0.9344 9.17663,-0.13071 0.59642,-0.46699 1.5358,-0.46326 2.44793,0.01 1.68261,0.8725 6.70904,0.82359 8.15553,-0.0794 0.52997,-0.33083 1.19423,-0.22833 1.47611,0.22777 0.73569,1.19037 6.94402,1.05636 6.94402,-0.14988 0,-0.76158 0.2176,-0.76158 0.97917,0 0.54755,0.54755 3.17324,0.97917 5.95662,0.97917 2.78338,0 5.40907,-0.43162 5.95662,-0.97917 0.72908,-0.72909 0.97917,-0.73634 0.97917,-0.0284 0,1.10921 18.2073,1.02364 19.32192,-0.0908 0.36822,-0.36815 0.69815,-8.6499 0.73321,-18.40389 0.035,-9.754 0.33211,-18.16879 0.66014,-18.69955 0.33145,-0.53632 0.1648,-0.96501 -0.37516,-0.96501 -0.65881,0 -0.83377,-1.02742 -0.54348,-3.19164 0.30697,-2.28867 -0.014,-3.91852 -1.13437,-5.76088 -0.85935,-1.41309 -1.3141,-2.9711 -1.01055,-3.46225 0.33112,-0.53576 0.17505,-0.66008 -0.39015,-0.31077 -0.51813,0.32022 -0.94205,0.16886 -0.94205,-0.33636 0,-0.50521 -0.9565,-2.17261 -2.12557,-3.70533 -2.19849,-2.88238 -5.91103,-4.43517 -10.62405,-4.44358 -2.20173,-0.004 -2.61955,-0.35274 -3.0599,-2.55448 -1.34965,-6.74824 0.149,-9.08094 5.76345,-8.97099 2.15944,0.0423 9.89485,0.0749 17.18978,0.0725 11.77829,-0.004 13.63171,0.18344 16.55149,1.673 3.3713,1.71991 5.11421,1.58536 4.37621,-0.33784 -0.337,-0.8782 2.14797,-1.06783 13.02331,-0.99384 7.39187,0.0503 13.69567,0.34737 14.00845,0.66018 0.31277,0.31281 0.68005,2.57289 0.81617,5.02239 0.26628,4.79169 -0.30864,5.38526 -5.2433,5.41339 -2.68769,0.0153 -8.38256,3.76461 -10.40019,6.8471 -3.56148,5.44114 -3.73525,7.30923 -3.34896,36.00275 0.0181,1.34636 0.0173,4.83466 -0.002,7.75177 -0.0192,2.91711 -0.0291,6.95619 -0.0221,8.97573 0.007,2.01954 -0.0228,12.30083 -0.0663,22.84731 -0.11385,27.64112 0.32081,43.21187 1.30441,46.72759 1.15305,4.12138 6.34193,9.18557 10.58144,10.32715 2.7427,0.73853 3.47367,1.35054 3.89291,3.25933 0.29913,1.36195 1.18275,2.5244 2.10151,2.76466 1.83004,0.47856 2.11641,3.19068 0.48027,4.54856 -1.1185,0.92827 -22.74038,1.33804 -55.38568,1.04966 l -15.28419,-0.13501 -0.52692,-2.09942 c -0.28981,-1.15468 -0.20459,-3.63321 0.18937,-5.50784 0.58883,-2.80191 1.07911,-3.44757 2.75531,-3.62847 5.34374,-0.57673 7.40491,-1.20057 10.1728,-3.0789 1.64675,-1.11751 3.42782,-1.7717 3.95796,-1.45374 0.73597,0.44142 0.7394,0.29992 0.0144,-0.5985 -0.7395,-0.91645 -0.53992,-2.14485 0.90264,-5.55581 1.80489,-4.26773 1.84619,-4.99262 1.62227,-28.47336 -0.14662,-15.37475 -0.53338,-24.28178 -1.06872,-24.61263 -0.46143,-0.28518 -13.79943,-0.45191 -29.64001,-0.37051 -26.85522,0.13799 -28.97029,0.0448 -31.30616,-1.37906 -2.46334,-1.50158 -2.55766,-1.49889 -5.65542,0.16142 -2.29554,1.23033 -3.97259,1.55697 -6.18088,1.20385 -2.18703,-0.34972 -3.15235,-0.16726 -3.46808,0.65551 -0.24063,0.62707 -0.18741,1.39059 0.11825,1.69672 0.71398,0.71508 0.82961,4.06489 0.94393,27.34611 0.11086,22.57901 0.69459,26.04156 5.1156,30.34453 1.70055,1.65515 3.9118,3.26519 4.91389,3.57788 1.00209,0.31268 2.06345,0.94481 2.3586,1.40473 0.35788,0.55769 1.38578,0.48447 3.08607,-0.21982 1.4022,-0.5808 2.73743,-0.86803 2.96719,-0.63828 0.63528,0.63529 0.76926,10.25825 0.15142,10.87609 -0.29765,0.29765 -16.00732,0.58985 -34.91039,0.64934 -30.91027,0.0973 -34.49115,-0.0266 -35.58082,-1.23061 l 2e-5,0 z m 18.82499,-11.49043 c 1.3318,-1.9014 1.62211,-4.47981 0.75796,-6.73175 -0.85729,-2.23406 -4.38358,1.69126 -4.38358,4.87962 0,4.06565 1.52836,4.84641 3.62562,1.85213 z m 97.92148,-69.36421 c 1.86498,-2.66264 1.55463,-3.66839 -1.10191,-3.57091 -1.30224,0.0478 -2.22232,0.3238 -2.04462,0.61337 0.17769,0.28956 -0.22559,0.73702 -0.89619,0.99436 -1.20652,0.46298 -1.69861,3.84765 -0.704,4.84226 0.74875,0.74875 3.28183,-0.78767 4.74672,-2.87908 z m 27.59363,-22.04746 c 0.70297,-1.83279 0.0249,-7.90555 -1.02382,-9.16917 -1.33443,-1.60789 -3.27267,-1.58562 -3.27267,0.0376 0,0.69966 -0.31607,1.07678 -0.70237,0.83802 -1.27135,-0.78573 0.45906,6.06024 1.94752,7.70497 1.68526,1.86219 2.50239,2.01981 3.05134,0.58858 z"
     id="path3356"
     inkscape:connector-curvature="0" />
  <path
     style="fill:#000000"
     d="m 550.11524,351.04528 c -0.99831,-0.6953 -0.83227,-9.64278 0.1939,-10.44854 0.52591,-0.41296 2.8376,-0.96209 5.13708,-1.22032 3.93746,-0.44215 9.77482,-3.07058 8.85721,-3.98819 -0.44532,-0.44532 0.77848,-2.99897 3.06304,-6.39153 1.10837,-1.64592 1.39873,-4.09278 1.45243,-12.23963 0.0369,-5.60035 0.15046,-12.20199 0.2523,-14.67032 0.10185,-2.46832 -0.0575,-6.97487 -0.35417,-10.01454 -0.43413,-4.44844 -0.95537,-5.94271 -2.67171,-7.65905 -1.17279,-1.1728 -2.13236,-2.55147 -2.13236,-3.0637 0,-0.51225 -0.73437,-1.56015 -1.63195,-2.32868 -0.89757,-0.76852 -1.63195,-1.14713 -1.63195,-0.84136 0,0.30578 -0.48586,-0.10849 -1.07968,-0.9206 -0.59383,-0.81211 -3.07236,-2.31756 -5.50784,-3.34545 -5.30258,-2.23794 -5.93139,-3.85943 -2.23495,-5.76318 1.48646,-0.76556 3.29651,-2.07196 4.02233,-2.90311 0.72582,-0.83114 1.71734,-1.51117 2.20339,-1.51117 0.48604,0 1.17735,-0.45959 1.53624,-1.0213 0.35889,-0.56172 1.66229,-1.54174 2.89646,-2.17782 1.23416,-0.63609 2.24393,-1.41118 2.24393,-1.72242 0,-0.31124 1.06418,-1.90498 2.36483,-3.54165 2.29268,-2.88495 2.35026,-3.18093 1.887,-9.69991 -0.26282,-3.69828 -0.42086,-7.82572 -0.35121,-9.17208 0.41868,-8.09343 0.0974,-19.33707 -0.6529,-22.84731 -0.47962,-2.24393 -0.91698,-4.53886 -0.97191,-5.09985 -0.0549,-0.56098 -0.56472,-1.01997 -1.13286,-1.01997 -0.56814,0 -1.2601,-0.71559 -1.53769,-1.59021 -0.27759,-0.87461 -1.22031,-1.81733 -2.09492,-2.09492 -0.87462,-0.2776 -1.59022,-0.78822 -1.59022,-1.13473 0,-1.11614 -4.06593,-2.52391 -7.28956,-2.52391 -2.86881,0 -3.16369,-0.20986 -3.49828,-2.48954 -0.20096,-1.36925 -0.14465,-3.84778 0.12515,-5.50784 l 0.49053,-3.01829 20.38562,-0.2069 c 11.21209,-0.11379 22.40516,-0.15547 24.87349,-0.0926 2.46832,0.0628 8.99913,0.15595 14.51289,0.20689 11.43027,0.1056 11.93559,0.37897 11.23179,6.07611 -0.56116,4.5424 -0.90569,5.03052 -3.55751,5.04015 -3.06042,0.0111 -9.99151,3.42624 -12.18869,6.00569 -2.51182,2.94884 -3.58663,8.38166 -3.59749,18.18422 -0.008,7.4758 -0.16217,8.32637 -1.57314,8.69534 -1.94234,0.50794 -2.07074,3.54516 -0.23561,5.57296 0.853,0.94255 1.38427,3.15553 1.48461,6.18407 0.0859,2.59394 0.22256,5.68385 0.3036,6.86645 0.14914,2.17629 7.00859,11.3134 8.49325,11.3134 1.33457,0 5.47663,3.85235 4.86846,4.52794 -0.31171,0.34626 -0.13527,0.38243 0.39208,0.0804 1.51177,-0.86588 5.16099,1.19266 5.16099,2.91134 0,1.09554 -1.35295,2.14422 -4.64433,3.59982 -3.1576,1.39644 -6.26995,3.75318 -9.72253,7.36212 l -5.0782,5.30818 0.27689,19.0148 c 0.29478,20.24391 0.95386,24.66387 4.20946,28.22993 1.04671,1.14652 1.90311,2.48579 1.90311,2.97614 0,0.79763 8.22826,2.69104 11.69449,2.69104 0.9217,0 1.38664,0.72442 1.44018,2.24393 0.11935,3.38755 -0.18863,8.73236 -0.52283,9.07344 -0.45549,0.46484 -69.80724,0.56944 -70.47224,0.10629 z m 21.00659,-75.77584 c 0.38253,-2.7036 -0.65252,-3.40822 -4.1684,-2.83767 -2.70499,0.43896 -3.04047,0.7569 -3.04047,2.88147 0,2.30488 0.12082,2.37934 3.4679,2.13718 2.93751,-0.21254 3.50966,-0.5461 3.74097,-2.18098 z"
     id="path3358"
     inkscape:connector-curvature="0" />
  <path
     style="fill:#000000"
     d="m 763.4578,352.72016 c -1.39178,-1.53791 -2.8462,-1.58796 -45.20911,-1.55594 -56.13036,0.0424 -50.474,0.24591 -48.66691,-1.75089 1.30188,-1.43856 1.32049,-1.63195 0.15708,-1.63195 -0.7259,0 -3.26134,0.70638 -5.6343,1.56974 -4.14906,1.50956 -11.90119,2.13726 -22.50722,1.82243 l -4.32115,-0.12827 0.24127,-5.50784 0.24128,-5.50783 4.48787,-0.42526 c 4.61785,-0.43758 8.97572,-2.62069 8.97572,-4.49644 0,-0.58417 0.2754,-1.18451 0.61199,-1.33411 0.33659,-0.1496 1.53838,-1.61921 2.67064,-3.26582 l 2.05866,-2.99381 0.18374,-33.2838 c 0.15803,-28.62541 0.35526,-33.37978 1.40924,-33.96961 1.64939,-0.92305 1.54915,-2.79027 -0.20247,-3.77142 -1.29794,-0.72704 -1.4351,-2.6809 -1.5064,-21.4599 -0.0431,-11.36303 -0.24678,-21.21083 -0.45251,-21.88401 -1.78008,-5.82447 -8.65561,-12.23963 -13.118,-12.23963 -3.85583,0 -5.2817,-1.43894 -5.72737,-5.7799 -0.70509,-6.86773 -5.4407,-6.34356 57.07425,-6.31748 30.5561,0.0127 56.40491,-0.24609 57.44179,-0.57518 1.03688,-0.32909 2.43303,-1.14613 3.10253,-1.81564 1.07907,-1.07907 1.43084,-0.96902 3.09797,0.96913 1.03437,1.20253 1.88068,2.65982 1.88068,3.23841 0,0.5786 0.75389,1.73426 1.67532,2.56814 0.92142,0.83388 2.77317,3.73651 4.11499,6.45028 3.79966,7.68462 4.84664,9.42199 5.67787,9.42199 0.42429,0 0.77145,0.66514 0.77145,1.47809 0,0.81295 0.71952,2.25042 1.59895,3.19437 3.39877,3.64815 2.80965,8.38315 -1.04302,8.38315 -0.9307,0 -3.05873,0.94702 -4.72896,2.1045 -2.45777,1.70323 -3.35019,1.93676 -4.68046,1.22482 -0.90402,-0.48381 -1.90116,-1.70622 -2.21586,-2.71647 -0.85359,-2.7401 -8.22178,-12.0365 -9.53996,-12.0365 -0.40237,0 -1.76602,-1.03444 -3.03033,-2.29874 -1.51507,-1.51508 -3.92771,-2.67414 -7.07701,-3.39988 -6.3341,-1.45966 -6.30114,-1.45685 -19.46584,-1.66364 -6.32041,-0.0993 -11.89173,-0.55469 -12.47144,-1.01945 -0.72192,-0.57877 -1.61012,-0.56028 -2.85592,0.0594 -1.04102,0.51786 -5.32501,0.8255 -10.09773,0.72514 l -8.2896,-0.17433 0.37512,12.52412 c 0.25854,8.63155 0.0882,12.86983 -0.54803,13.63645 -0.60814,0.73276 -0.76338,3.28423 -0.45492,7.47712 0.25753,3.50064 0.43976,9.42417 0.40496,13.16342 l -0.0633,6.79861 13.73651,-0.53646 c 7.55508,-0.29506 14.2873,-0.54176 14.96048,-0.54824 5.63399,-0.0542 13.87158,-6.68068 13.87158,-11.15859 0,-1.36488 0.36719,-2.70853 0.81598,-2.9859 0.44878,-0.27736 0.81597,-1.37893 0.81597,-2.44792 0,-2.65161 0.80504,-2.96736 6.00692,-2.35598 l 4.48652,0.5273 0.1622,7.85013 c 0.0892,4.31757 0.22698,10.97124 0.30617,14.78592 0.0792,3.81469 -0.13739,8.22095 -0.48128,9.79171 -0.34389,1.57075 -0.29995,4.28202 0.0976,6.02504 0.4737,2.07665 0.42084,3.6528 -0.15332,4.57218 -0.62475,1.00037 -0.62325,2.12873 0.005,3.9315 0.64429,1.84821 0.62621,3.20455 -0.0671,5.04158 -0.90241,2.39074 -1.13626,2.4981 -4.80109,2.20431 -6.16818,-0.49449 -7.15629,-1.61875 -7.3045,-8.31102 -0.0696,-3.1415 -0.28145,-6.35441 -0.47084,-7.13978 -0.34753,-1.44236 -3.49799,-2.06018 -3.49799,-0.68604 0,0.40807 -1.37695,0.0809 -3.0599,-0.72693 -4.36442,-2.09507 -16.77935,-3.22511 -22.52099,-2.04992 -2.30413,0.4716 -3.32174,0.35149 -3.81745,-0.45058 -0.53131,-0.85969 -1.11315,-0.89436 -2.72028,-0.1621 -1.51038,0.68817 -2.12437,0.6916 -2.35052,0.0131 -0.16837,-0.50509 -0.6919,-0.67993 -1.1634,-0.38852 -0.50882,0.31446 -0.8902,4.2703 -0.93826,9.73218 -0.0445,5.06129 -0.0961,9.78599 -0.11454,10.49932 -0.0185,0.71335 -1.02417,1.74835 -2.23493,2.3 -1.21076,0.55166 -1.8432,1.25319 -1.40543,1.55894 0.43776,0.30575 1.4759,2.09817 2.30697,3.98316 1.15768,2.62579 1.56584,5.86962 1.74544,13.87158 0.3341,14.88556 1.32101,17.79766 7.25248,21.40007 3.26547,1.98326 7.37453,2.60514 19.03404,2.88072 10.90648,0.25778 23.67686,-0.97189 25.49031,-2.45447 0.67318,-0.55036 2.50912,-1.26993 4.07987,-1.59904 3.52759,-0.73911 8.32008,-3.11388 9.74221,-4.82745 0.58591,-0.70599 1.43489,-1.28361 1.88663,-1.28361 0.92927,0 12.03445,-11.42338 12.03445,-12.37928 0,-0.34075 1.13961,-1.91748 2.53245,-3.50384 1.39286,-1.58637 2.25721,-2.88431 1.92079,-2.88431 -0.33641,0 0.35992,-0.90044 1.54743,-2.00098 1.1875,-1.10054 2.15909,-2.69025 2.15909,-3.53268 0,-1.58159 2.80574,-2.06675 4.48786,-0.77602 0.44879,0.34437 2.09859,1.45884 3.66624,2.47662 3.26501,2.11978 3.97007,4.15446 2.14023,6.1764 -0.6998,0.77327 -1.90482,3.40808 -2.67782,5.85511 -0.77301,2.44704 -2.25217,5.81883 -3.28703,7.49286 -1.03485,1.67403 -1.88156,3.55681 -1.88156,4.18395 0,0.62716 -0.55078,1.59738 -1.22396,2.15607 -0.67318,0.55869 -1.22396,1.70522 -1.22396,2.54784 0,0.84262 -0.32739,1.53204 -0.72752,1.53204 -0.40014,0 -0.98004,1.00609 -1.28866,2.23576 -0.30863,1.22966 -0.80742,2.42303 -1.10842,2.65192 -0.66624,0.5066 -2.69619,4.66144 -5.08701,10.41186 -1.93998,4.66609 -3.58126,5.39969 -6.02912,2.69485 z m -99.99583,-46.7797 c 0,-1.03287 -3.9118,-4.66968 -5.02277,-4.66968 -1.44144,0 -0.60153,2.60697 1.45353,4.51153 2.1077,1.95335 3.56924,2.01811 3.56924,0.15815 z m -5.37615,-106.26104 c 0.69515,-2.76969 -0.83179,-6.29772 -2.58199,-5.96574 -1.75301,0.33251 -2.53935,7.0676 -0.94053,8.05573 1.50989,0.93316 2.98315,0.0591 3.52252,-2.08999 z"
     id="path3360"
     inkscape:connector-curvature="0" />
  <path
     style="fill:#000000"
     d="m 914.52009,352.88122 c -1.32557,-1.32556 -4.84374,-1.43338 -49.06258,-1.50363 -51.44846,-0.0817 -49.63599,0.0659 -56.55628,-4.60416 -2.96512,-2.00093 -3.54957,-2.15481 -3.97485,-1.04655 -0.27422,0.71462 0.0967,1.95712 0.82434,2.76112 2.11737,2.33967 1.57193,2.95582 -2.75485,3.11198 -3.90776,0.14104 -4.0904,0.0487 -4.7214,-2.3864 -0.36102,-1.39322 -0.45664,-3.98948 -0.21249,-5.76946 0.39472,-2.87764 0.71524,-3.26406 2.89184,-3.48631 5.38581,-0.54992 7.45672,-1.24142 9.56081,-3.19244 1.20979,-1.12178 2.85822,-2.06859 3.66318,-2.10402 0.80497,-0.0354 1.05713,-0.23211 0.56036,-0.43706 -0.60211,-0.24843 -0.36252,-1.46548 0.71872,-3.65086 1.56876,-3.17074 1.62431,-5.1156 1.69485,-59.33313 0.0695,-53.41324 -8.1e-4,-56.24381 -1.49194,-60.06276 -2.68674,-6.88105 -7.46175,-10.67713 -13.06567,-10.38705 -3.26201,0.16886 -3.55881,0.006 -4.40494,-2.42151 -1.21213,-3.47713 -1.15162,-8.03424 0.11271,-8.48869 1.95449,-0.70251 26.66541,-0.96477 26.24127,-0.2785 -0.23502,0.38027 0.53555,0.32532 1.71238,-0.12211 1.17683,-0.44743 2.85016,-0.81351 3.71852,-0.81351 1.60682,0 4.84274,2.66784 4.84274,3.99258 0,0.86156 1.99983,1.71925 4.00873,1.71925 0.78503,0 1.9362,-1.00977 2.55815,-2.24394 0.62196,-1.23416 1.21793,-2.38007 1.32439,-2.54646 0.41493,-0.64853 22.84502,-0.87994 25.11691,-0.25912 2.28002,0.62303 2.41118,0.89292 2.44792,5.03734 0.0371,4.18091 -0.0719,4.41029 -2.4091,5.06973 -1.34636,0.37988 -5.56903,0.77884 -9.38372,0.88658 -8.21952,0.23215 -9.21523,0.66347 -8.12872,3.5212 0.4391,1.15492 0.72051,10.70065 0.639,21.67601 -0.12623,16.99826 -0.31653,19.67501 -1.4278,20.08315 -1.86148,0.68367 -2.47954,1.88456 -2.49364,4.84511 -0.009,1.78672 0.50205,2.89858 1.60109,3.48677 1.31645,0.70455 1.52577,0.6347 1.13667,-0.37927 -0.26231,-0.68357 -0.10232,-1.24285 0.35554,-1.24285 0.55664,0 0.72932,10.07089 0.52116,30.39509 -0.17122,16.71729 -0.3244,31.68024 -0.34041,33.251 -0.0332,3.2574 1.57679,10.63174 2.57421,11.79084 0.36688,0.42635 0.66705,1.42766 0.66705,2.22512 0,0.79747 0.93641,2.06351 2.08092,2.81342 1.33914,0.87744 1.90551,1.8206 1.58883,2.64586 -0.27066,0.70531 -0.27353,1.06381 -0.006,0.79667 0.26715,-0.26715 3.03685,3.7e-4 6.15489,0.59449 6.08524,1.15949 22.54957,0.5482 25.67668,-0.95332 0.89757,-0.43098 2.79812,-0.76053 4.22343,-0.73234 1.42532,0.0282 2.43224,-0.20641 2.23761,-0.52134 -0.19464,-0.31492 1.57671,-1.20787 3.93631,-1.98432 2.42501,-0.79797 6.41872,-3.16161 9.18606,-5.43668 4.79874,-3.94513 13.46359,-13.38536 13.46359,-14.66841 0,-1.06479 3.08468,-3.821 3.64702,-3.25867 0.28551,0.28551 0.28821,-0.0826 0.006,-0.81805 -0.28222,-0.73543 0.14888,-2.3766 0.95799,-3.64701 2.65951,-4.1758 3.75717,-4.40519 7.14356,-1.49289 1.30397,1.12142 2.62474,2.03894 2.93506,2.03894 0.31031,0 1.33128,0.66529 2.26881,1.47841 1.53604,1.3322 1.59193,1.67513 0.56515,3.46789 -1.78906,3.12369 -4.19218,8.39538 -6.02703,13.22141 -0.46639,1.22743 -1.22449,2.23168 -1.68438,2.23168 -0.4599,0 -0.83618,0.40349 -0.83618,0.89665 0,0.49316 -0.58141,2.23731 -1.29203,3.87588 -0.71062,1.63858 -1.80625,4.1726 -2.43473,5.63116 -0.62847,1.45855 -1.48664,2.65192 -1.90703,2.65192 -0.42038,0 -1.01798,1.19336 -1.32798,2.65192 -0.30999,1.45855 -1.02704,3.2027 -1.59343,3.87588 -0.56639,0.67318 -1.266,2.54477 -1.5547,4.15908 -0.36821,2.05895 -1.14125,3.21593 -2.58967,3.87588 -2.54928,1.16153 -2.18817,1.20684 -3.88224,-0.48719 z"
     id="path3362"
     inkscape:connector-curvature="0" />
  <path
     style="fill:#000000"
     d="m 945.38147,351.04528 -3.2639,-0.40799 -0.48539,-4.48786 c -0.26697,-2.46833 -0.3455,-4.74967 -0.17451,-5.06963 0.48644,-0.9103 5.95665,-2.22565 7.22761,-1.73794 0.62816,0.24104 1.72857,-0.14818 2.44534,-0.86494 0.71677,-0.71677 1.92976,-1.30322 2.69554,-1.30322 3.57776,0 7.00892,-9.06767 7.1015,-18.76744 0.15447,-16.18446 0.0622,-15.70172 3.43082,-17.95039 1.67988,-1.12137 3.5406,-2.49939 4.13493,-3.06225 1.81751,-1.72128 -0.95817,-2.15087 -3.93869,-0.60958 -1.42858,0.73874 -2.77007,1.17051 -2.9811,0.95947 -0.21104,-0.21103 -0.34331,-7.49009 -0.29395,-16.17568 0.0494,-8.68559 0.0641,-16.52636 0.0327,-17.42393 -0.0314,-0.89758 -0.0684,-11.36246 -0.0823,-23.2553 -0.0312,-26.62572 -0.78736,-31.08433 -6.18806,-36.48503 -2.8763,-2.87629 -4.04527,-3.49975 -6.57915,-3.50891 -6.32565,-0.0229 -6.75327,-0.41018 -6.75327,-6.11654 0,-3.91729 0.30345,-5.23782 1.2907,-5.61666 2.48103,-0.95206 10.18499,-0.49882 12.0261,0.70753 2.10129,1.37682 13.75629,3.30879 15.62799,2.59055 0.68546,-0.26304 1.2463,-1.19388 1.2463,-2.06853 0,-1.45977 0.63245,-1.59535 7.70699,-1.65209 4.53224,-0.0363 7.92342,0.28838 8.2324,0.78832 0.35614,0.57625 0.89889,0.54016 1.68473,-0.11203 0.78226,-0.64921 3.39293,-0.82826 8.02679,-0.55048 3.77711,0.22641 7.19321,0.0859 7.59131,-0.31215 0.4211,-0.42109 1.8282,-0.33879 3.3646,0.19679 1.4525,0.50633 3.7693,0.6949 5.1486,0.41905 1.3792,-0.27585 4.9411,-0.10637 7.9153,0.37662 2.9742,0.483 7.2436,1.00303 9.4875,1.15565 2.2439,0.15261 5.7322,0.85349 7.7518,1.55753 2.0195,0.70403 4.4649,1.2854 5.4342,1.29193 2.1872,0.0147 18.6921,8.53546 18.4895,9.5453 -0.081,0.40451 0.6091,0.79247 1.5339,0.86213 0.9247,0.0697 2.4836,0.88026 3.464,1.80134 0.9804,0.92108 2.2572,1.67468 2.8373,1.67468 0.6179,0 0.8535,0.52439 0.5687,1.26635 -0.2786,0.72615 -0.1418,1.05368 0.3207,0.76782 0.4437,-0.27419 0.8067,-0.10967 0.8067,0.3656 0,0.47528 0.5223,0.86414 1.1606,0.86414 0.6384,0 2.8478,1.92774 4.9097,4.28387 3.4179,3.90559 3.6118,4.34525 2.1963,4.97901 -1.292,0.57842 -3.3708,3.69598 -3.3708,5.05508 0,1.19822 3.3685,0.0425 5.1926,-1.78161 1.1831,-1.18317 2.1512,-1.70945 2.1512,-1.16952 0,0.53992 0.918,2.18521 2.0399,3.65618 1.122,1.47098 2.04,2.89892 2.04,3.17322 0,0.2743 0.9179,1.85143 2.0399,3.50474 1.122,1.65331 2.0399,3.97465 2.0399,5.15852 0,1.18388 0.4896,2.87678 1.0878,3.76202 1.7896,2.64778 3.6787,10.92697 4.2773,18.745 0.7877,10.28867 0.5056,16.55183 -1.2863,28.55914 -0.5358,3.59029 -1.017,7.17038 -1.0694,7.95576 -0.052,0.78538 -0.3428,1.42796 -0.6455,1.42796 -0.3027,0 -0.778,1.21396 -1.0564,2.69768 -0.2783,1.48372 -1.2372,4.13168 -2.1307,5.88435 -0.8936,1.75268 -1.6247,3.7551 -1.6247,4.44983 0,0.69472 -0.7344,1.72176 -1.6319,2.28231 -0.8976,0.56054 -1.632,1.69352 -1.632,2.51774 0,0.82421 -0.7344,2.16316 -1.6319,2.97546 -0.8976,0.81229 -1.632,1.91386 -1.632,2.44793 0,0.53406 -0.7344,1.63563 -1.6319,2.44792 -0.8976,0.8123 -1.632,1.97077 -1.632,2.5744 0,0.60361 -0.526,1.09749 -1.169,1.09749 -0.6429,0 -1.3961,0.7156 -1.6737,1.59021 -0.2776,0.87462 -1.1285,1.79046 -1.8909,2.03519 -0.7624,0.24474 -2.0738,1.47463 -2.9142,2.73307 -0.8404,1.25846 -2.9517,3.1075 -4.6918,4.10899 -1.7402,1.0015 -3.1639,2.21641 -3.1639,2.69981 0,0.4834 -0.5402,0.67163 -1.2004,0.4183 -0.6602,-0.25335 -1.7355,0.0746 -2.3896,0.72867 -0.6541,0.65411 -1.553,1.18929 -1.9974,1.18929 -0.4445,0 -2.0313,0.61292 -3.5262,1.36203 -5.0348,2.52296 -5.5473,2.71785 -7.1467,2.71785 -0.8772,0 -1.7978,0.32841 -2.0459,0.72979 -0.8822,1.42741 -19.0095,3.41072 -31.7401,3.47265 -8.985,0.0437 -9.7409,-0.0749 -10.8852,-1.70864 -0.9795,-1.39838 -1.4661,-1.55943 -2.3915,-0.7914 -0.7343,0.60938 -2.49807,0.78108 -4.7928,0.46655 -2.87667,-0.39429 -3.78738,-0.21819 -4.38388,0.84769 -0.66831,1.1942 -3.16992,1.35244 -22.26487,1.4083 -11.83159,0.0346 -22.98073,-0.12067 -24.77588,-0.34506 z m 76.01323,-13.12977 c 6.2915,-0.53766 11.0661,-1.34543 12.0576,-2.03994 0.9029,-0.63239 2.4779,-1.1498 3.5,-1.1498 1.0221,0 1.8584,-0.33802 1.8584,-0.75114 0,-0.41313 1.1263,-0.99854 2.503,-1.30091 1.3767,-0.30237 2.7012,-1.06592 2.9432,-1.69679 0.2421,-0.63085 1.1432,-1.14701 2.0023,-1.14701 0.8745,0 1.9714,-0.89803 2.4916,-2.03994 0.5112,-1.12197 1.3867,-2.03994 1.9456,-2.03994 1.1418,0 6.0657,-7.04526 6.0657,-8.67893 0,-0.58045 0.7186,-1.43992 1.5969,-1.90996 0.9347,-0.50026 1.8246,-2.11923 2.1463,-3.90459 0.3022,-1.6775 0.8192,-3.41718 1.1489,-3.86597 0.3296,-0.44878 0.8047,-2.42944 1.0557,-4.40147 0.2509,-1.97202 0.7595,-3.80797 1.1301,-4.07987 0.8682,-0.63692 1.3119,-2.24647 1.5987,-5.79823 1.3055,-16.1707 1.4848,-22.47346 0.9269,-32.58535 -0.4784,-8.67231 -1.112,-13.08308 -2.4027,-16.72749 -0.9642,-2.72224 -2.0608,-5.29835 -2.437,-5.7247 -0.3761,-0.42635 -0.6839,-1.57475 -0.6839,-2.55201 0,-0.97725 -0.532,-2.21835 -1.1822,-2.75799 -0.6502,-0.53964 -1.617,-2.32874 -2.1483,-3.97579 -0.5313,-1.64705 -1.6517,-3.65152 -2.4897,-4.45438 -0.838,-0.80286 -1.5236,-1.93001 -1.5236,-2.50477 0,-0.57477 -0.8262,-1.82758 -1.8359,-2.78403 -1.0098,-0.95646 -2.2032,-2.13293 -2.6519,-2.6144 -1.8854,-2.02267 -6.1404,-5.7326 -6.5749,-5.7326 -0.2584,0 -1.731,-0.96198 -3.2725,-2.13772 -1.5415,-1.17574 -5.0971,-2.76826 -7.9013,-3.53894 -4.9813,-1.36897 -6.6726,-1.92894 -9.9945,-3.3091 -0.8976,-0.37292 -2.1827,-0.68983 -2.8559,-0.70426 -9.7337,-0.2086 -21.79378,-1.19787 -22.58243,-1.85239 -2.21645,-1.83949 -2.87789,0.17292 -2.27933,6.93481 0.32256,3.64386 0.58223,9.01696 0.57705,11.94021 -0.005,2.92325 0.34159,5.98106 0.7706,6.79512 0.49706,0.94318 0.49521,1.83121 -0.005,2.44793 -0.62669,0.77247 -0.81767,30.34292 -0.196,30.34292 0.57507,0 0.53546,5.41295 -0.0422,5.76998 -0.98008,0.60573 -0.91501,5.80811 0.0963,7.69774 0.54692,1.02194 0.54692,1.69644 0,2.03445 -1.07887,0.66678 -1.05718,3.67325 0.0265,3.67325 0.58226,0 0.58226,0.49035 0,1.57831 -1.21487,2.27001 -1.08345,10.43887 0.17528,10.8947 0.81251,0.29425 0.80817,0.7277 -0.0214,2.13106 -1.28888,2.18049 -1.19809,15.28433 0.12065,17.41394 0.70532,1.13901 0.66868,1.64367 -0.15666,2.15748 -0.99638,0.62029 -0.93561,9.1206 0.1232,17.23097 0.22155,1.69709 2.48371,6.94124 3.47891,8.06484 0.2608,0.29444 9.38807,2.23437 11.50637,2.44557 0.5365,0.0535 5.6627,-0.3033 11.3916,-0.79287 z m 62.1676,-39.90863 c 0.5187,0 0.943,-0.32265 0.943,-0.71699 0,-0.39433 1.1094,-1.17653 2.4654,-1.73819 3.1787,-1.31665 3.6469,-2.15677 2.077,-3.72668 -0.8679,-0.86784 -1.8591,-1.07426 -3.112,-0.64805 -1.0111,0.34399 -2.1411,0.54358 -2.511,0.44355 -0.37,-0.10004 -0.4401,0.19441 -0.1559,0.65431 0.2843,0.45991 0.015,0.83619 -0.5982,0.83619 -1.4001,0 -6.1526,6.6371 -5.7079,7.97123 0.22,0.66009 1.2134,0.31368 2.993,-1.04368 1.465,-1.11743 3.088,-2.03169 3.6066,-2.03169 z"
     id="path3364"
     inkscape:connector-curvature="0" />
  <path
     style="fill:#000000"
     d="m 1011.0675,139.62348 c 0,-2.04794 0.3238,-2.44793 1.9817,-2.44793 2.0157,0 3.991,-1.47908 5.2611,-3.93951 0.9723,-1.88349 0.9887,-25.2592 0.02,-28.38345 -0.564,-1.81892 -1.7066,-2.95425 -4.0252,-3.9998 -5.299,-2.389507 -3.5909,-5.845381 2.6782,-5.418765 2.0682,0.140743 2.2487,-0.08792 2.3046,-2.92017 0.084,-4.271254 0.461,-5.92281 2.3633,-10.360699 0.9108,-2.124724 1.6559,-4.327004 1.6559,-4.893955 0,-1.437627 6.6445,-7.337967 9.4843,-8.422001 9.0303,-3.447258 20.5213,-0.111036 21.81,6.332159 0.5176,2.588064 -1.4554,8.887595 -2.4668,7.876189 -0.2894,-0.289406 -0.9271,-0.208509 -1.4172,0.179771 -0.4901,0.388281 -2.6837,0.965651 -4.8747,1.283042 l -3.9837,0.577078 0.6154,-2.310091 c 0.9193,-3.45071 0.7081,-8.318844 -0.4197,-9.677785 -1.5308,-1.844479 -5.5009,-1.465255 -7.7019,0.73567 -2.589,2.58908 -3.3587,6.014447 -3.3234,14.791778 l 0.03,7.343779 6.6449,0.235589 c 6.9675,0.247029 7.7934,0.775112 7.0012,4.476401 -0.271,1.26644 -1.1464,1.41998 -6.978,1.22396 l -6.6681,-0.22412 -0.1275,10.60768 c -0.2387,19.86632 0.6903,23.49025 6.3097,24.61414 1.9729,0.39458 2.3855,0.88287 2.3855,2.82303 l 0,2.34593 -14.2795,0 -14.2796,0 0,-2.44792 z"
     id="path3366"
     inkscape:connector-curvature="0" />
  <path
     style="fill:#000000"
     d="m 972.46392,142.04393 c -1.70976,-0.43079 -3.9035,-1.20865 -4.87499,-1.72857 -2.73516,-1.46382 -8.74386,-7.35743 -8.74386,-8.5764 0,-0.60017 -0.30825,-1.09121 -0.685,-1.09121 -2.33996,0 -4.0335,-11.52437 -2.64498,-17.99881 1.26153,-5.88232 6.46787,-12.62583 11.45755,-14.84039 2.03724,-0.904187 4.34167,-1.963419 5.12096,-2.353849 0.77928,-0.390431 3.75778,-0.709874 6.61888,-0.709874 4.14643,0 6.02607,0.455333 9.26308,2.243932 5.55329,3.068461 6.84558,4.174711 9.29367,7.955761 4.99837,7.71998 5.02747,7.80325 5.09747,14.61285 0.06,5.78741 -0.206,7.06736 -2.1514,10.36785 -5.08621,8.62919 -10.28015,12.13311 -18.64927,12.58113 -3.29641,0.17646 -7.39236,-0.0316 -9.10211,-0.46242 z m 16.20195,-8.74426 c 2.85876,-3.11254 3.17356,-4.30212 2.86117,-10.81168 -0.34769,-7.24487 -8.68904,-20.39938 -12.93537,-20.39938 -0.80781,0 -1.84415,-0.3754 -2.30297,-0.83422 -0.5683,-0.5683 -2.07338,-0.28607 -4.7217,0.88541 -2.98499,1.3204 -4.17735,2.41335 -5.13602,4.70777 -2.19782,5.26011 -0.58828,15.59525 3.12274,20.05169 0.4088,0.49091 1.57041,2.17773 2.58135,3.74849 2.22067,3.45037 6.42033,5.70884 10.61888,5.71056 2.54118,0.001 3.60925,-0.55155 5.91192,-3.05864 z"
     id="path3368"
     inkscape:connector-curvature="0" />
  <path
     style="fill:#000000"
     d="m 886.78293,162.3941 c -12.36819,-1.80841 -17.21247,-10.29273 -10.10416,-17.69656 l 2.57082,-2.6777 -2.32974,-1.85767 c -1.87547,-1.49546 -2.40872,-2.67974 -2.73485,-6.07376 -0.38378,-3.99415 -0.24824,-4.37297 2.57475,-7.19596 2.08102,-2.08102 2.83355,-3.44085 2.49481,-4.50814 -0.26678,-0.84055 -0.8275,-1.52827 -1.24604,-1.52827 -0.41855,0 -0.76099,-0.43007 -0.76099,-0.95572 0,-0.52564 -0.57096,-1.58662 -1.2688,-2.35773 -1.74836,-1.93191 -1.80682,-10.44321 -0.0965,-14.04747 0.72182,-1.52113 3.10949,-4.44665 5.30592,-6.501159 3.46207,-3.238359 4.63292,-3.821341 8.79818,-4.380735 7.87038,-1.056992 17.1498,0.208757 19.14372,2.61128 1.54786,1.86506 3.21022,1.327178 3.71614,-1.202416 0.38998,-1.949891 0.98264,-2.43931 3.44749,-2.846934 5.13669,-0.849474 5.83248,-0.673321 5.83248,1.476613 0,3.411613 -1.46285,6.043579 -4.12383,7.419621 -2.03969,1.05477 -2.45845,1.68654 -2.0541,3.09899 1.25017,4.36702 1.43739,9.72868 0.46144,13.21444 -1.15887,4.13908 -5.21676,8.19407 -11.00298,10.99513 -4.12657,1.99764 -12.21369,2.18631 -18.0338,0.42071 -2.20306,-0.66832 -4.09736,-1.2191 -4.20956,-1.22396 -0.1122,-0.005 -0.204,1.23449 -0.204,2.75411 0,3.95812 2.9685,5.10308 15.09555,5.82242 5.38544,0.31945 10.15889,0.8573 10.60768,1.19523 0.44879,0.33792 2.16174,1.04763 3.80656,1.57713 6.13513,1.97499 9.43949,8.47917 7.2429,14.25663 -1.43032,3.76202 -6.77686,8.47571 -10.27687,9.06044 -1.77128,0.29592 -4.28508,0.8769 -5.58621,1.29107 -2.80123,0.89167 -10.4401,0.82917 -17.06603,-0.13963 z m 20.85968,-6.56662 c 1.68295,-0.41986 3.088,-1.20821 3.12234,-1.75189 0.0343,-0.54369 0.1875,-1.64515 0.34037,-2.44769 0.31312,-1.6439 -2.49223,-4.63032 -4.43255,-4.71864 -2.86067,-0.1302 -15.32905,-1.5705 -17.82978,-2.05962 -3.64856,-0.71362 -5.88364,1.33071 -5.88364,5.38152 0,4.65769 2.1117,6.03253 10.07741,6.561 6.97909,0.46301 9.56865,0.29198 14.60585,-0.96468 z m -7.06937,-33.05267 c 1.12912,-0.73983 2.609,-2.42044 3.28862,-3.73469 1.57787,-3.05126 1.7961,-11.37422 0.42477,-16.19981 -0.86828,-3.055397 -1.54331,-3.910305 -3.70467,-4.691862 -4.38628,-1.5861 -8.47258,-1.204169 -10.67445,0.997701 -1.07437,1.074371 -2.10031,1.806481 -2.27987,1.626921 -0.40375,-0.40375 -2.01761,7.50322 -2.1005,10.29127 -0.0842,2.83017 1.42107,8.15975 2.30453,8.15975 0.40125,0 0.94596,0.68187 1.21047,1.51527 1.02382,3.22577 7.87006,4.43425 11.5311,2.03545 z"
     id="path3370"
     inkscape:connector-curvature="0" />
  <path
     style="fill:#000000"
     d="m 761.51162,141.35465 c -1.38521,-0.87803 -0.87769,-4.6675 0.58325,-4.35493 2.15447,0.46096 4.0958,-0.76901 5.89713,-3.73624 1.65378,-2.72418 1.81958,-3.95332 1.67363,-12.40744 -0.17813,-10.31763 -1.4633,-14.37673 -4.81872,-15.21938 -1.00977,-0.25359 -1.83594,-0.94201 -1.83594,-1.52984 0,-0.58782 -0.2154,-1.63008 -0.47866,-2.31613 -0.36474,-0.95049 0.62671,-1.5687 4.16575,-2.597523 4.4561,-1.295424 8.10092,-3.252647 12.76147,-6.85275 1.19295,-0.921507 2.38631,-1.675467 2.65192,-1.675467 0.26561,0 0.48293,9.34284 0.48293,20.76187 0,20.67059 0.009,20.77177 1.93541,23.01193 1.24756,1.45037 2.76614,2.26405 4.2728,2.28943 1.61488,0.0272 2.4281,0.51064 2.63089,1.56397 0.16711,0.86806 -0.0589,1.3068 -0.52481,1.01885 -0.48773,-0.30144 -0.64579,0.15399 -0.39126,1.12732 0.41514,1.5875 0.0316,1.63273 -13.74369,1.62059 -7.79391,-0.007 -14.66185,-0.32379 -15.2621,-0.70426 z"
     id="path3372"
     inkscape:connector-curvature="0" />
  <path
     style="fill:#000000"
     d="m 799.72986,139.66045 c 0,-2.09795 0.3618,-2.47883 2.78681,-2.93376 1.53275,-0.28755 3.64409,-1.43527 4.69186,-2.55049 1.81736,-1.93434 1.90505,-2.57868 1.90505,-13.99773 0,-14.4314 -0.37224,-16.14118 -3.67189,-16.8659 -1.65391,-0.36326 -2.60667,-1.16437 -2.9335,-2.46655 -0.65211,-2.598206 0.14822,-3.652274 2.77766,-3.658294 1.20768,-0.0028 3.24752,-0.553548 4.53298,-1.223963 1.28546,-0.670415 2.88116,-1.218936 3.54599,-1.218936 0.66484,0 2.36701,-0.603214 3.78261,-1.340476 6.03791,-3.144606 5.57884,-3.340953 4.9608,2.121783 -0.69702,6.160886 0.35379,6.434856 5.32654,1.388785 5.49188,-5.57286 12.61565,-6.709952 20.55916,-3.281642 2.12662,0.917821 3.60983,2.446934 5.19051,5.351172 2.1542,3.957971 2.21308,4.425941 2.21308,17.589351 0,16.63147 0.78725,18.77247 7.4179,20.17362 1.92423,0.40662 2.25408,0.84328 2.03993,2.70052 l -0.25544,2.21547 -14.27957,0 -14.27957,0 -0.24108,-2.0666 c -0.19719,-1.69035 0.24848,-2.24369 2.44792,-3.03931 3.89288,-1.4082 4.55654,-4.54964 4.26436,-20.18522 -0.24176,-12.93739 -0.2626,-13.06759 -2.38308,-14.89155 -3.68185,-3.16699 -9.53486,-2.111562 -14.68382,2.64781 -0.97104,0.89758 -2.06018,2.36633 -2.42031,3.26391 -0.91447,2.27919 -0.66729,22.57118 0.30613,25.13147 0.85808,2.25693 3.1192,3.83172 5.51645,3.84202 1.94018,0.008 3.9711,4.09963 2.49907,5.03437 -0.55961,0.35536 -7.90226,0.65172 -16.31701,0.6586 l -15.29954,0.0125 0,-2.41095 z"
     id="path3374"
     inkscape:connector-curvature="0" />
  <path
     style="fill:#000000"
     d="m 772.19069,81.213044 c -3.28739,-2.590854 -3.61479,-6.484807 -0.81597,-9.704802 2.8129,-3.236212 5.90771,-3.416256 8.81136,-0.512613 3.79713,3.797133 3.20337,7.75118 -1.64914,10.982198 -2.65791,1.769752 -3.21559,1.702546 -6.34625,-0.764783 z"
     id="path3376"
     inkscape:connector-curvature="0" />
  <path
     style="fill:#000000"
     d="m 715.27641,142.94581 c -2.10843,-0.40173 -2.91157,-1.40536 -5.79088,-7.23647 -1.83862,-3.72352 -3.76637,-7.19346 -4.28387,-7.71097 -1.50207,-1.50207 -1.10364,-2.72636 1.23388,-3.79141 2.07187,-0.944 2.40642,-0.74745 7.06866,4.1529 2.69162,2.82909 4.83406,5.41919 4.76098,5.75578 -0.0731,0.33659 0.14253,0.53317 0.47912,0.43684 0.33659,-0.0963 2.35255,0.50297 4.47991,1.33178 4.408,1.71734 15.10293,1.52211 17.31787,-0.31613 1.51017,-1.25333 1.65101,-5.75991 0.23356,-7.47344 -1.76306,-2.13133 -5.29882,-3.94112 -10.17831,-5.20981 -7.66674,-1.9934 -10.05981,-2.9211 -14.99229,-5.81195 -3.85605,-2.25997 -4.92826,-3.39077 -6.08364,-6.41609 -2.83335,-7.419 0.5266,-15.279842 7.51715,-17.586933 4.18428,-1.380937 14.07868,-1.192813 17.70396,0.33661 3.34465,1.411035 4.60517,1.19097 4.60517,-0.803984 0,-1.613858 4.08866,-1.190242 4.92573,0.510343 0.33136,0.67318 1.41986,3.706425 2.41889,6.740545 1.4632,4.443849 1.6203,5.752889 0.80788,6.731799 -1.39887,1.68553 -1.52698,1.63212 -6.11256,-2.54859 -5.19826,-4.739298 -9.58653,-6.803349 -14.51227,-6.825956 -4.75698,-0.02183 -7.92706,1.824703 -7.92706,4.617436 0,2.58437 1.38901,5.15635 2.78472,5.15635 0.60243,0 1.5193,0.51084 2.03747,1.1352 0.51818,0.62436 1.9401,1.31526 3.15982,1.53532 7.35495,1.327 15.2674,4.10759 19.29139,6.77937 3.6861,2.44743 4.71527,3.63843 5.42652,6.2798 4.09867,15.2213 -11.49372,24.41805 -30.86397,18.20428 -1.3528,-0.43396 -1.83595,-0.26506 -1.83595,0.64184 0,1.65143 -0.76379,1.93963 -3.67188,1.38554 z"
     id="path3378"
     inkscape:connector-curvature="0" />
  <path
     style="fill:#000000"
     d="m 680.62576,82.722207 c -1.90792,-0.750193 -4.05152,-3.732713 -4.08104,-5.678204 -0.0377,-2.484058 3.01884,-7.415278 4.98254,-8.038531 1.78434,-0.566329 7.79266,2.914552 8.58219,4.97204 0.69108,1.800938 -0.27439,4.603226 -2.44606,7.099727 -1.87832,2.15926 -4.29377,2.723845 -7.03763,1.644968 z"
     id="path3380"
     inkscape:connector-curvature="0" />
  <path
     style="fill:#000000"
     d="m 668.5541,140.45052 c -1.55196,-2.48508 -1.25828,-3.05467 1.96846,-3.81778 1.76215,-0.41673 3.68027,-1.64378 4.69186,-3.00143 1.56185,-2.09615 1.69361,-3.22848 1.51018,-12.97833 -0.21714,-11.54173 -0.93793,-13.87208 -4.73757,-15.3167 -1.36721,-0.51981 -1.99726,-1.38856 -1.99726,-2.75391 0,-1.68094 0.67218,-2.21782 4.27489,-3.414451 2.35119,-0.78094 6.75746,-3.011176 9.79171,-4.95608 l 5.51681,-3.53619 0.012,19.782051 c 0.009,14.03312 0.30495,20.37489 1.01997,21.822 0.55437,1.12196 2.57009,2.76552 4.47939,3.65235 3.38496,1.57224 4.90363,3.6547 3.87684,5.31607 -0.31121,0.50355 -6.11797,0.82328 -14.95193,0.82328 -13.52653,0 -14.50737,-0.10286 -15.45538,-1.62088 z"
     id="path3382"
     inkscape:connector-curvature="0" />
  <path
     style="fill:#000000"
     d="m 584.47333,139.303 c 0.21117,-2.16753 0.63386,-2.59464 2.91304,-2.94343 1.8955,-0.29007 3.12904,-1.17261 4.26805,-3.0536 1.49485,-2.46866 1.6066,-4.31169 1.67056,-27.55347 0.0609,-22.125652 -0.0924,-25.272666 -1.37244,-28.173924 -1.1419,-2.588191 -2.08432,-3.458824 -4.54059,-4.19474 -2.67315,-0.800895 -3.0996,-1.257915 -3.0996,-3.321793 l 0,-2.393129 23.45929,0.284409 23.4593,0.28441 4.89585,2.755935 c 8.67184,4.881484 11.84069,9.85077 11.82399,18.541988 -0.01,4.975192 -3.65223,11.737694 -7.75355,14.394194 -1.55445,1.00686 -2.83082,2.34474 -2.83638,2.97308 -0.0108,1.21955 4.11169,10.00233 5.01957,10.69399 0.29798,0.22702 1.80665,3.16453 3.35259,6.5278 3.03774,6.60877 7.60627,11.95897 10.57102,12.37972 1.42709,0.20252 1.91298,0.87387 2.10979,2.91504 l 0.25569,2.65192 -15.96322,0 -15.96322,0 0,-2.38464 c 0,-2.00186 0.4585,-2.53597 2.85628,-3.32731 1.92952,-0.63679 3.01768,-1.58572 3.35371,-2.92456 0.74396,-2.96419 -0.32793,-7.34795 -2.4214,-9.90291 -1.02207,-1.24737 -2.34476,-3.55311 -2.9393,-5.12387 -0.59455,-1.57075 -1.96782,-4.1911 -3.05173,-5.82299 l -1.97073,-2.96709 -7.09314,0.11117 -7.09313,0.11117 0.22622,10.60768 c 0.12442,5.83423 0.40513,11.42718 0.6238,12.42879 0.4326,1.9815 4.16034,4.29871 6.91542,4.29871 1.40225,0 1.67816,0.42161 1.46848,2.24393 l -0.2582,2.24393 -16.56651,0.0875 -16.56651,0.0875 0.247,-2.53544 z m 42.48737,-38.35776 c 6.31794,-3.722341 7.80149,-7.196025 6.73134,-15.761211 -0.49074,-3.927737 -1.04017,-5.071078 -3.56063,-7.409416 -3.95593,-3.670093 -5.16072,-4.062036 -14.16823,-4.60922 l -7.67913,-0.466488 -0.18264,15.609398 -0.18265,15.609397 7.57621,-0.34044 c 6.47874,-0.29112 8.13964,-0.67239 11.46573,-2.63202 z"
     id="path3384"
     inkscape:connector-curvature="0" />
  <path
     style="fill:#000000"
     d="m 525.15413,142.07533 c -11.66833,-1.74015 -18.46076,-9.469 -21.02381,-23.92219 -1.89783,-10.70194 5.91814,-23.439195 15.77984,-25.715547 10.54867,-2.434924 19.25863,0.128595 23.56692,6.936222 1.37098,2.166315 2.71423,4.764925 2.985,5.774695 0.27078,1.00977 0.84524,1.83595 1.27659,1.83595 0.43134,0 0.66693,0.80531 0.52352,1.78957 -0.18751,1.28695 -1.42287,2.26096 -4.39839,3.4679 -2.2757,0.92307 -5.07005,2.29571 -6.20967,3.0503 -1.13962,0.75459 -4.13615,1.97204 -6.65895,2.70544 -2.52281,0.7334 -4.79251,1.6661 -5.04379,2.07268 -0.25128,0.40657 -2.09401,1.46341 -4.09496,2.34853 -2.08294,0.92138 -3.63809,2.15798 -3.63809,2.89287 0,1.56309 7.02096,8.47994 9.64083,9.49787 3.96292,1.53976 8.67003,0.84935 12.86259,-1.88661 2.20868,-1.44132 4.30942,-3.09367 4.66831,-3.67189 0.84249,-1.35735 2.32029,-1.3344 4.23516,0.0658 1.49101,1.09025 1.48986,1.17548 -0.048,3.54734 -2.19394,3.38366 -6.70243,7.13973 -10.44714,8.70361 -3.31295,1.38357 -7.16377,1.52339 -13.97593,0.50746 z m -5.67103,-24.42192 c 0.42635,-0.41508 3.80449,-2.26057 7.50698,-4.10107 7.27565,-3.61672 7.63532,-4.20615 5.57519,-9.13672 -2.18115,-5.220227 -5.44152,-6.774167 -11.18736,-5.332052 -3.77194,0.946692 -7.12722,12.782812 -5.11221,18.033842 0.55203,1.43856 2.03637,1.68584 3.2174,0.536 z"
     id="path3386"
     inkscape:connector-curvature="0" />
  <path
     style="fill:#000000"
     d="m 436.23263,141.41124 c -0.23529,-0.23529 -0.42781,-1.24562 -0.42781,-2.24518 0,-1.35428 0.98763,-2.30725 3.87589,-3.73989 3.68834,-1.82948 3.90097,-2.11993 4.39439,-6.00239 0.75423,-5.93452 0.78761,-44.445394 0.041,-47.326572 -0.4392,-1.694985 -1.56399,-2.907813 -3.65683,-3.943085 -4.5508,-2.251161 -4.13597,-4.542157 1.26136,-6.966036 2.35612,-1.058112 6.71983,-3.307759 9.69712,-4.999215 l 5.41325,-3.075374 0.39187,2.964051 c 0.21553,1.630229 0.42086,9.522029 0.45629,17.537334 0.0354,8.015305 0.25738,14.766242 0.49322,15.002082 0.56929,0.569286 4.70257,-2.147034 5.97467,-3.92644 1.48385,-2.075617 8.55725,-3.508491 14.33737,-2.904349 8.5562,0.8943 10.4082,3.210786 12.50921,15.646584 1.05067,6.21886 1.16179,9.25128 0.53196,14.51791 -0.62919,5.26137 -0.56615,6.9946 0.30069,8.26665 0.60324,0.88524 1.0968,2.12992 1.0968,2.76596 0,1.67471 2.50495,3.32033 5.09985,3.35034 1.93577,0.0224 2.24393,0.35705 2.24393,2.43691 0,3.08612 -1.35004,3.32875 -17.13548,3.07962 l -11.83165,-0.18674 -0.24897,-2.14842 c -0.2046,-1.76548 0.20037,-2.30508 2.27191,-3.02722 3.96458,-1.38206 4.64273,-4.29062 4.5241,-19.40362 -0.084,-10.69844 -0.35337,-13.53734 -1.44235,-15.19933 -2.62677,-4.008961 -8.80518,-3.570996 -15.11824,1.07168 l -3.45004,2.53719 0,13.04778 0,13.04779 2.38516,2.38515 c 1.40211,1.40212 3.25179,2.38516 4.48786,2.38516 1.8284,0 2.10265,0.34597 2.10226,2.65192 l -4.6e-4,2.65192 -15.07527,0.0878 c -8.29139,0.0483 -15.26778,-0.10469 -15.50308,-0.33999 z"
     id="path3388"
     inkscape:connector-curvature="0" />
  <path
     style="fill:#000000"
     d="m 382.97041,141.4125 c -3.21786,-0.23282 -3.46789,-0.42011 -3.46789,-2.59772 0,-1.93002 0.38418,-2.39266 2.16323,-2.605 1.21546,-0.14507 2.9136,-1.26698 3.87589,-2.56068 1.65181,-2.2207 1.72098,-3.31905 1.94715,-30.92315 l 0.23451,-28.620678 -6.13876,0.464275 c -4.35174,0.32912 -6.83202,0.957916 -8.52023,2.160022 -1.3098,0.932662 -2.74018,1.695749 -3.17862,1.695749 -0.43844,0 -1.82175,1.376959 -3.07404,3.059908 -1.25229,1.68295 -2.3843,3.199774 -2.5156,3.370721 -0.13129,0.170947 -1.56591,-0.318983 -3.18804,-1.088734 -2.64796,-1.256544 -2.82892,-1.538427 -1.77095,-2.758739 1.5299,-1.764651 5.4779,-9.758445 5.4779,-11.091473 0,-1.280461 2.81196,-3.911262 3.4735,-3.249721 0.44219,0.44219 49.51637,0.545937 53.17452,0.112415 1.20876,-0.143249 2.04746,0.939677 3.64765,4.709832 1.14288,2.692719 2.31304,5.079447 2.60034,5.303841 0.2873,0.224393 1.11471,1.564416 1.83869,2.97783 1.48662,2.902291 0.92199,3.830226 -2.91686,4.793716 -1.85237,0.464917 -2.35073,0.235689 -2.96188,-1.362357 -0.40413,-1.056728 -2.24863,-3.134434 -4.09889,-4.617122 -3.35332,-2.687144 -8.93572,-4.223771 -15.38625,-4.235267 l -2.65192,-0.0047 0,27.709629 c 0,24.74233 0.15291,28.01991 1.42795,30.60713 0.89138,1.80872 2.19449,3.07339 3.4679,3.36559 3.74475,0.85928 4.07988,1.08716 4.07988,2.7743 0,1.03421 -0.77453,1.97223 -2.01925,2.44547 -1.82903,0.69539 -16.84686,0.79246 -25.51993,0.16494 z"
     id="path3390"
     inkscape:connector-curvature="0" />
</svg>
